<svg width="328" height="312" viewBox="0 0 328 312" fill="none" xmlns="http://www.w3.org/2000/svg">
<path d="M214.187 10.8461C216.732 10.5015 220.111 10.5541 222.734 10.6892C223.556 10.7309 223.196 11.2975 223.769 11.3478C224.89 11.444 225.889 11.0746 227.009 11.1918C227.381 11.2329 227.027 12.1197 227.416 12.1434C229.552 12.2653 231.512 11.789 233.668 11.6571C244.308 11.0061 254.864 9.16836 265.948 7.72799C269.606 7.25027 274.16 7.33515 277.928 6.53753C278.368 6.44336 278.013 5.74453 278.09 5.67381C279.313 4.58906 279.048 6.12007 279.939 6.21599C283.481 6.5945 287.308 6.32696 290.665 5.86249C292.099 5.66454 290.582 4.27419 292.081 5.0258C292.184 5.07674 291.85 5.87511 292.249 5.94085C293.154 6.08669 294.841 5.89328 295.531 5.94237C296.856 6.03954 297.072 6.02972 298.315 6.03443C299.281 6.05027 299.989 6.11908 301.445 6.32777C301.667 6.36366 301.736 6.37369 302.142 6.46007C302.374 6.51358 302.631 6.57075 303.049 6.74377C303.26 6.83383 303.516 6.95237 303.853 7.18577C304.528 7.25407 306.39 10.8539 305.084 12.4927C302.537 15.4971 303.157 14.0243 302.627 14.4461C302.419 14.5138 302.236 14.5644 302.052 14.6126C301.339 14.794 300.877 14.8895 300.425 15.0254C300.021 15.1444 300.736 15.8255 300.072 16.0892C299.45 16.3465 297.799 16.5496 297.177 16.4534C296.621 16.3486 296.748 15.6905 296.632 15.5622C295.657 14.4799 294.042 16.4233 293.783 16.5018C289.536 17.8275 285.65 17.3626 281.575 17.8997C278.481 18.3085 275.215 19.0529 272.27 19.397C268.761 19.8042 265.741 19.7687 262.375 20.3186C262.014 20.3767 262.569 21.2508 262.131 21.3235C257.651 22.0358 252.548 22.9296 247.814 22.5023C247.355 22.4694 247.885 21.6023 247.42 21.5202C244.501 21.0407 239.846 19.7012 238.382 23.4109C236.415 23.3979 234.068 23.4063 232.283 22.7979C231.134 22.4065 232.159 21.4328 230.81 21.9102C230.506 22.0168 230.962 22.7777 230.502 22.8781C228.57 23.2998 226.409 23.1941 224.517 23.7432C224.128 23.857 224.289 24.5552 224.187 24.6906C223.331 25.7891 221.649 24.2068 221.304 24.1099C218.65 23.3919 216.807 23.9115 214.426 24.1212C213.881 24.1694 214.614 25.0522 214.101 25.1324C212.734 25.3389 211.347 25.5049 210.077 25.6288C209.442 25.687 208.594 25.7991 208.49 25.7568C208.439 25.3074 209.401 27.2901 210.62 22.8542C210.515 23.1349 210.416 23.4144 210.323 23.6672C210.156 24.1229 209.423 23.5523 209.302 23.7737C208.79 24.7753 210.295 25.1822 209.915 26.2348C209.838 26.4609 209.15 26.3073 209.072 26.3469C207.853 26.9932 209.549 27.6303 209.588 27.7976C210.119 29.9912 208.469 31.5848 208.932 33.8424C208.99 34.1101 209.803 33.4159 209.914 34.1706C210.653 39.2049 211.346 44.7187 210.952 50.2401C210.885 51.1065 210.197 50.5175 210.119 50.5768C208.89 51.489 210.595 51.9961 210.661 52.2767C211.092 54.6059 209.505 56.3459 211.461 57.8805C210.871 62.2257 210.777 66.5636 210.72 70.8265C210.696 72.9536 210.675 75.0811 210.676 77.1018C210.677 78.0997 210.691 79.1168 210.74 79.9068C211.197 81.0221 209.198 79.6841 210.537 80.3983C210.616 80.4317 210.319 81.234 210.493 81.2992C212.798 82.0099 212.478 80.5912 213.912 78.9335C214.262 78.5115 215.731 80.3024 215.873 80.4288C216.355 80.9026 216.033 82.1875 216.187 82.2732C217.471 82.9423 216.818 78.8436 218.596 78.7106C218.651 78.7138 218.471 79.4863 218.623 79.5517C219.09 79.7578 219.541 79.4339 220.011 79.6858C221.123 80.2896 221.278 82.2356 222.979 81.3249C223.222 81.2416 223.237 78.7256 225.238 79.46C225.596 79.6008 226.834 80.096 227.794 80.8139C228.867 81.6596 228.297 81.1946 228.574 81.4309C228.909 81.701 228.429 82.3356 228.439 82.3739C229.626 83.7173 229.052 83.9764 229.786 85.5803C230.619 87.1558 230.69 83.629 231.075 83.2693C231.46 82.9143 232.753 83.7798 233.096 84.0622C233.433 84.3497 233.006 84.8269 233.312 84.9896C235.369 86.0298 234.175 83.2401 234.808 82.6704C236.268 81.3065 237.608 83.8199 239.084 83.9586C239.479 83.9956 239.113 83.4315 239.455 83.3478C240.805 83.0221 241.711 83.7491 243.215 82.8581C243.452 82.7138 244.598 81.033 245.541 82.1044C245.673 82.2593 245.388 82.9325 246.007 83.0272C246.909 83.1615 248.608 83.2362 249.537 83.0353C250.239 82.8751 249.434 81.8077 250.318 82.1393C250.711 82.2874 249.983 82.9118 250.721 83.1378C251.455 83.3638 253.332 83.3364 254.047 83.3148C254.76 83.2928 254.37 82.4832 254.427 82.4286C254.776 82.1162 256.144 81.7258 256.265 81.7267C262.365 81.6279 267.99 82.9926 273.929 82.5409C274.395 82.5067 274.084 81.6529 274.155 81.6388C275.751 81.2811 274.493 83.5511 275.607 84.3109C275.438 82.563 276.186 82.9643 276.663 82.573C276.915 82.3688 276.466 81.8269 276.465 81.7537C276.188 80.7695 277.203 81.602 277.507 81.6966C278.505 82.1318 278.125 80.8476 278.874 81.0563C279.602 81.2845 279.639 82.5418 280.419 81.8541C280.302 81.1569 278.475 80.522 279.196 79.6381C281.128 77.5357 284.155 78.1078 286.182 78.176C288.387 78.3433 290.556 78.7984 291.859 79.0266C294.463 79.4916 295.349 79.6673 296.759 80.3665C299.235 81.743 298.725 80.266 300.628 80.6198C302.521 81.0646 300.195 83.1556 300.08 83.8223C299.936 84.4801 300.496 84.0609 300.535 84.5063C300.567 84.9477 299.846 84.9835 300.289 85.4409C300.71 85.8678 302.824 86.0961 303.425 85.73C304.697 84.9445 304.986 83.2794 306.038 84.7928C306.098 84.8808 305.351 85.2787 305.608 85.586C307.646 87.9945 310.116 89.9903 312.311 92.1987C312.612 92.5032 311.804 92.9913 311.977 93.1782C313.794 95.1114 313.878 93.3903 315.889 92.7569C314.489 94.4103 314.372 95.9791 316.232 96.9803C317.355 97.5491 317.61 96.6142 318.513 96.2432C318.778 96.1398 319.433 96.9474 319.631 96.4926C320.016 95.3284 319.378 92.1661 318.163 95.5684C318.2 95.5511 318.97 95.7032 319.043 95.5869C319.367 93.7606 317.841 93.44 317.615 91.3744C317.436 89.7366 318.239 86.7791 318.266 84.8886C320.691 84.7807 320.016 83.0102 318.289 82.4246C318.262 81.2034 318.047 79.8986 318.154 78.7032C318.19 78.291 318.916 78.4821 318.986 78.4231C320.085 77.5068 318.406 77.1553 318.312 76.9027C317.359 74.1487 318.231 71.6456 316.55 69.1874C316.489 69.099 314.808 69.2654 315.878 68.326C315.952 68.2624 316.879 68.9966 316.688 67.7306C316.501 66.4748 316.849 63.8936 315.632 62.3755C315.339 62.0031 313.741 61.3515 314.518 60.2258C314.623 60.0736 315.123 60.0558 315.331 59.8172C315.992 59.0429 314.281 59.2769 315.46 58.2225C316.639 57.175 317.217 55.4648 315.599 54.0899C315.549 54.0428 314.142 54.1552 313.943 53.624C313.623 52.7711 313.344 51.4755 313.026 50.5793C312.87 50.1513 312.178 50.7093 312.137 50.6389C310.666 47.7697 310.95 45.3743 310.768 42.082C310.736 41.4813 309.367 39.899 310.125 38.6256C310.955 37.2309 315.195 38.0694 313.882 35.2588C313.352 34.1067 308.01 33.2614 310.388 30.7823C309.133 26.8072 309.675 22.5244 306.913 18.9987C306.789 18.8393 305.238 19.0005 305.048 18.6206C304.749 18.0125 305.195 17.3684 305.038 16.9263C304.401 15.0711 303.342 13.5425 302.712 11.8134C302.462 11.1659 303.217 11.0917 302.848 10.295C302.433 9.48576 301.424 9.56481 300.928 8.50856C300.584 7.73906 300.53 5.47165 299.092 4.83218C298.527 6.61944 297.693 6.31342 296.246 6.71581C295.972 6.79506 296.215 7.46152 296.09 7.533C295.557 7.8369 295.095 7.26249 294.574 7.59075C294.444 7.66922 294.385 8.30493 294.284 8.40558C293.382 9.28173 292.108 7.7503 291.894 7.48536C291.058 6.47564 290.564 7.27564 289.906 6.86004C289.233 6.44433 290.307 6.04136 289.5 5.76532C287.839 5.19467 285.657 5.19641 283.932 5.12841C283.244 5.10532 283.696 5.96776 283.597 5.98424C282.188 6.16942 280.734 5.26963 279.991 6.98323C278.909 2.62246 279.152 7.40591 277.138 6.65194C276.981 6.59217 276.609 4.53618 277.225 4.18934C277.856 3.8427 278.823 4.44822 279.687 3.9543C279.884 3.83617 281.059 1.87716 281.226 1.76064C282.524 0.838346 282.669 3.94913 282.732 4.11896C283.452 5.96432 284.91 3.90841 285.296 3.77804C287.041 3.1742 288.485 3.68801 289.943 3.30218C290.891 3.05412 291.12 1.03387 291.858 1.14592C294.375 1.53178 294.592 4.3683 297.517 2.1479C298.234 1.7489 297.988 -0.728635 300.448 1.75166C300.653 1.9129 301.999 4.10404 303.634 4.1416C303.849 4.14399 304.242 3.62874 304.472 3.74341C306.001 4.55252 306.335 5.78798 307.333 6.92276C308.338 8.08634 309.252 9.36481 309.456 10.5239C309.584 11.235 308.715 12.3766 308.537 12.7417C308.021 13.7999 309.602 13.9877 308.831 14.7857C308.077 15.6253 306.237 15.4068 306.188 16.8693C307.714 16.1621 309.296 15.4677 310.823 14.7411C312.154 17.115 313.287 21.5742 314.023 24.6987C314.127 25.1098 314.913 24.485 315.048 24.9268C315.605 26.7974 315.235 28.5151 315.752 30.3342C316.155 31.743 317.29 33.1779 317.696 34.5869C315.888 35.689 316.773 37.7018 316.788 39.1764C316.795 39.6946 316.281 39.7275 316.165 40.1125C315.742 41.5608 317.336 40.6767 317.654 41.0026C319.021 42.3564 315.235 43.1246 315.706 44.9394C315.73 45.0475 317.988 45.7117 318.148 45.8103C319.194 46.5293 317.494 46.1436 317.506 46.7722C317.545 47.9305 317.286 48.7435 318.315 49.7085C318.602 49.9615 320.224 50.4313 319.68 51.7202C319.608 51.8859 318.957 52.0834 318.957 52.1909C319.018 54.1197 321.017 53.4286 322.056 54.1811C323.096 54.9446 322.192 56.9493 321.876 57.372C321.075 58.4958 321.24 56.9 321.12 56.8866C319.738 56.7717 320.299 57.7854 320.439 58.6447C318.476 59.3629 318.918 60.4486 320.589 59.5289C320.771 59.4247 320.398 58.8389 320.439 58.6447C322.618 58.7784 323.258 60.0665 321.757 61.951C321.048 62.8298 319.893 62.4561 320.726 64.3469C321.097 65.2096 322.423 64.5472 322.981 65.2763C324.256 66.9535 323.377 69.6216 323.877 71.4866C324.059 72.1677 324.734 71.3728 324.885 71.8371C325.287 73.0735 324.853 74.268 325.308 75.4985C325.351 75.6103 326.135 75.228 326.193 75.6239C326.649 78.6277 326.358 81.2953 326.543 84.4194C326.635 85.9312 327.213 88.6161 327.163 90.185C327.126 91.5432 326.816 93.0912 326.541 94.5381C326.471 94.954 326.409 95.036 326.344 95.7598C326.284 96.3751 326.118 98.9129 323.759 100.736C319.305 103.351 318.151 101.633 317.115 101.658C314.704 101.017 315.032 101.928 313.946 102.052C311.882 102.249 310.825 99.2392 310.754 98.8271C310.748 98.8149 312.04 99.4117 311.63 98.6475C311.751 97.6775 310.771 98.8334 310.754 98.8271C310.66 98.5448 308.553 96.8618 308.043 96.6747C307.76 96.5763 307.431 97.3024 307.292 97.2385C304.002 95.708 301.099 93.6197 298.752 91.2614C298.715 91.2121 299.329 90.5845 299.237 90.4772C297.994 88.9783 296.781 89.4898 295.538 89.5327C294.328 89.6125 293.828 89.2161 293.623 87.5866C292.794 87.5263 291.691 86.6505 290.904 86.1652C290.123 85.6781 289.866 87.3763 289.798 87.4033C287.529 88.3414 286.09 87.4266 283.266 87.3778C281.804 87.4638 284.375 87.1182 284.458 86.9089C284.722 86.7445 283.891 87.8131 282.677 88.9046C281.002 90.6817 276.498 91.2371 275.577 91.2909C275.431 91.3249 275.579 92.0821 275.534 92.1112C274.329 93.0171 274.908 91.1661 274.659 90.8356C273.757 89.6335 273.2 88.9932 271.656 89.5587C271.3 89.6882 270.263 92.3533 269.613 92.5092C268.77 92.7069 269.088 91.7516 268.204 91.983C268.129 92.002 268.145 92.5913 267.599 92.5653C265.068 92.4524 262.308 92.1095 259.677 92.1686C259.318 92.1744 259.779 93.1092 259.259 93.1329C256.823 93.2437 254.153 93.2091 251.78 92.7716C251.195 92.661 251.562 92.0065 251.435 91.8121C250.656 90.6363 249.552 92.3448 249.37 92.3773C246.341 93.169 242.465 92.2496 237.823 93.2679C237.584 93.3303 235.579 95.2719 234.565 93.7154C234.488 93.6126 233.544 92.0257 232.676 93.1111C232.617 93.178 233.242 94.0194 232.136 93.9124C231.047 93.7995 229.088 94.2671 227.256 92.9861C226.592 92.4881 226.033 91.146 222.36 90.5081C222.29 90.5511 220.52 90.1314 220.519 90.7633C220.328 91.2609 220.879 91.7889 221.223 90.8393C221.357 90.5427 222.14 88.5653 221.578 89.54C221.48 89.7346 221.479 90.2121 221.301 90.4795C221.061 90.8908 220.351 90.289 219.415 91.2974C219.256 91.4733 218.64 92.9591 217.786 91.9534C217.652 91.7957 217.808 91.0722 217.4 91.0338C215.441 90.8299 212.929 91.6832 209.557 90.8083C208.251 90.451 209.024 89.4311 207.908 88.8756C207.503 88.666 207.975 88.8737 205.959 88.0251C204.294 87.1611 203.283 85.4441 202.838 84.4933C202.061 82.7314 201.994 82.1672 201.576 81.5741C200.852 80.5854 199.263 82.068 198.859 80.4425C197.426 73.843 198.828 69.1064 199.134 63.8936C199.187 63.1295 198.512 63.7324 198.547 62.6159C198.641 58.2738 198.643 52.0896 199.627 49.2342C200.505 46.6074 201.633 49.7503 201.897 47.7242C202.017 46.7357 199.797 45.8966 199.705 45.6723C198.765 43.4318 199.469 41.6441 198.914 39.4614C198.799 39.0091 198.004 39.5637 197.916 39.1759C197.606 37.8495 197.821 36.3663 197.621 35.0302C197.53 34.4327 196.89 34.6015 196.889 34.0341C196.883 32.673 197.069 31.4198 197.622 30.0154C197.673 29.8889 198.519 30.6961 198.508 29.656C198.493 27.9604 199.083 25.8617 198.678 23.6261C198.564 22.9451 197.071 22.6209 198.342 21.2687C198.475 21.136 198.965 21.2485 199.269 21.1539C199.421 21.1069 199.526 21.0083 199.52 20.8082C199.517 20.7082 199.485 20.583 199.418 20.4271C199.352 20.7573 199.41 18.848 200.049 17.5649C200.758 16.2473 201.484 15.8443 201.927 15.4506C205.662 13.308 207.501 11.44 208.865 12.526C209.239 12.8333 210.159 14.1955 210.787 13.892C210.874 13.8452 210.417 13.09 210.966 12.9491C212.787 12.4815 214.733 12.3859 216.573 11.9741C217.063 11.863 216.25 11.1001 216.988 10.9608C219.022 10.5761 221.563 10.5911 223.563 10.7044C224.301 10.7476 223.846 11.4703 223.905 11.5409C224.838 12.6922 225.224 11.0184 225.501 10.9025C227.215 10.2051 228.604 10.8823 230.203 10.569C230.645 10.4846 230.276 9.72497 230.36 9.6493C231.234 8.90649 230.644 10.3556 231.236 10.4711C232.886 10.7998 234.714 10.6162 236.334 10.4101C236.941 10.3324 236.197 9.47125 236.742 9.4121C239.932 9.04667 243.273 8.92036 246.386 9.20749C246.96 9.2638 246.651 9.98594 246.78 10.137C247.704 11.1929 248.806 9.58434 249.063 9.41886C250.239 8.66422 250.837 9.23339 251.455 9.05401C256.275 7.64601 263.92 7.01548 269.081 6.58906C275.985 6.00342 281.349 5.99679 287.797 4.94997C288.199 4.88516 287.668 4.01887 288.011 3.95135C290.298 3.52605 292.511 3.25267 294.717 2.94258C295.804 2.78916 296.881 2.62842 297.823 2.44104C298.213 2.36877 298.876 2.19015 298.515 2.27451C298.352 2.38524 298.405 2.01558 296.261 3.443C295.942 3.7299 295.871 3.52851 294.525 5.15718C293.343 6.47643 291.931 10.5584 293.333 13.7641C296.86 19.9229 297.185 17.8099 297.821 18.5351C298.959 19.042 299.374 19.0727 299.68 19.1455C300.329 19.2676 300.167 19.2313 300.076 19.2485C299.888 19.2583 300.173 20.1548 299.792 20.1998C298.951 20.2998 297.156 20.2694 296.014 20.0113C295.431 19.8881 296.202 19.1146 295.612 19.0067C294.237 18.7547 292.799 18.7483 291.423 18.9644C290.838 19.0587 291.773 19.9098 291.011 19.9629C285.762 20.3544 280.576 21.0877 274.967 20.7119C274.583 20.6862 273.99 18.9199 273.24 19.3865C273.255 19.8985 273.347 20.4897 273.401 21.0313C265.588 22.4927 257.597 23.3706 249.427 24.7183C249.082 24.7753 249.846 25.6263 249.179 25.7414C245.32 26.4078 241.566 27.3191 237.389 26.9702C236.975 26.9364 236.929 25.218 235.792 25.645C235.592 25.7229 233.851 26.1995 233.439 26.6283C233.383 26.6922 233.817 27.4382 233.244 27.5392C229.91 28.1115 226.33 28.3376 222.887 28.1406C222.331 28.1071 222.844 27.2119 222.449 27.1803C219.66 26.9616 216.668 27.7812 213.98 27.088C212.186 26.6174 212.81 25.1311 211.86 23.7034C211.726 23.5025 210.649 23.481 210.59 22.6399C210.44 20.5272 210.928 18.2096 210.707 15.9581C210.661 15.4745 209.309 15.9992 210.108 14.8256C210.164 14.7477 211.137 14.3526 211.37 13.951C211.532 13.6738 211.224 12.823 211.555 12.4665C211.885 12.11 212.266 12.8205 212.815 12.3936C213.361 11.9605 213.091 10.9979 214.187 10.8461ZM286.971 84.1978C286.069 83.389 285.994 86.3818 286.922 85.6569C286.967 85.6184 287.017 84.2376 286.971 84.1978ZM310.884 22.0258C310.021 23.6732 312.105 24.0349 312.837 22.839C313.548 21.5985 311.135 21.5025 310.884 22.0258ZM304.953 10.3862C304.609 12.2147 308.676 10.9761 307.153 9.56459C307.062 9.47792 304.968 10.2726 304.953 10.3862ZM216.121 23.1621C216.106 23.1234 215.335 23.1176 215.318 23.1573C214.944 24.1237 216.496 24.1347 216.121 23.1621ZM292.373 5.33096C292.788 5.93503 294.109 5.36756 293.613 4.61602C293.203 4.01022 291.856 4.57906 292.373 5.33096ZM239.24 85.4107C239.222 85.3677 238.675 85.3703 238.705 85.6205C238.804 86.4272 239.548 86.1382 239.24 85.4107ZM270.544 6.39937C274.157 5.13944 276.065 8.77998 273.137 8.91717C272.584 8.9827 274.05 7.55333 273.269 7.40915C271.698 7.19655 271.748 9.52556 270.824 9.02242C270.297 9.25762 270.118 6.50827 270.548 6.39195C270.547 6.39442 270.546 6.3969 270.544 6.39937ZM286.412 80.6104C286.393 80.5704 285.64 80.5466 285.623 80.5868C285.24 81.5439 286.741 81.5923 286.412 80.6104ZM209.676 81.0302C209.787 81.1664 209.444 79.771 209.383 79.7176C207.614 79.1571 208.495 82.5752 209.676 81.0302ZM318.329 84.8551C317.325 84.1086 317.144 83.1675 318.288 82.4284C318.288 83.2366 318.336 84.0456 318.329 84.8551Z" fill="white"/>
<path d="M230.634 34.0556C230.983 33.7951 231.439 34.0736 231.786 34.456C231.895 34.5746 231.84 35.1047 231.915 35.2104C232.061 35.4165 232.198 35.1565 232.343 35.402C232.391 35.486 232.331 36.3256 232.382 36.3945C232.658 36.7655 232.919 36.5517 233.199 36.7302C234.577 37.6108 235.932 37.926 237.327 38.3085C237.787 38.4339 238.346 39.196 238.821 38.8627C238.877 38.8231 238.844 38.0861 238.854 38.0253C239.02 37.0954 238.965 38.5833 239.073 38.7809C239.502 39.5614 239.979 39.6293 240.392 39.3449C240.567 39.2217 240.391 37.7579 240.568 38.5795C240.58 38.635 240.536 39.4177 240.584 39.5011C240.693 39.6889 240.9 39.549 240.985 39.611C241.148 39.7345 241.175 39.7266 241.329 39.7355C241.54 39.7545 241.791 40.1436 242.017 39.9662C242.066 39.9261 242.002 39.1238 242.079 38.9872C242.156 38.8509 242.36 38.919 242.429 39.1081C242.498 39.2973 242.468 39.9279 242.48 40.0724C242.581 41.2924 242.817 39.6027 242.847 39.561C243.4 38.849 243.875 39.8115 244.395 39.8088C244.789 39.8046 245.211 39.4869 245.586 39.5304C246.033 39.5855 246.412 40.0202 246.847 39.9455C246.893 39.9385 246.839 38.9952 246.895 38.9848C247.49 38.875 248.081 38.9778 248.673 39.6147C248.732 39.6794 248.656 40.5076 248.715 40.6217C249.079 41.3024 249.654 42.9375 249.869 39.3315C250.116 39.4723 250.414 39.6178 250.635 40.3446C250.777 40.8125 250.639 41.7147 250.813 41.3298C250.852 41.244 250.801 40.4538 250.86 40.3849C251.109 40.0957 251.38 40.3525 251.626 39.9443C251.676 39.8594 251.662 39.1513 251.676 39.0239C251.795 37.9913 251.993 39.6982 252.036 39.8222C252.365 40.7471 252.605 40.3831 252.912 40.4057C252.983 40.4113 252.899 39.4603 252.967 39.4316C253.322 39.2953 253.69 39.377 254.037 39.799C254.114 39.8951 254.043 40.7052 254.08 40.7926C254.243 41.1681 254.279 39.6381 254.435 39.9687C254.468 40.0364 254.45 40.7299 254.456 40.8061C254.55 42.0017 254.631 40.3076 254.655 40.2702C254.961 39.7591 255.157 41.5277 255.452 41.2773C255.487 41.2455 255.408 40.368 255.507 40.3324C256.169 40.0902 256.869 40.3313 257.524 41.0331C257.626 41.1411 257.553 41.8002 257.56 41.8815C257.664 43.1512 257.732 41.45 257.765 41.3859C258.027 40.9247 258.272 42.3514 258.45 40.3251C259.559 41.0283 260.664 39.8904 261.765 41.7057C261.779 41.7268 261.753 42.5646 261.781 42.6029C262.117 43.0734 262.053 41.7712 262.275 40.1786C262.331 39.7787 262.502 41.7015 262.517 41.8424C262.572 42.3618 262.515 43.6083 262.533 43.7089C262.685 44.4987 262.661 40.3765 262.866 40.3752C262.872 40.382 262.845 41.1408 262.863 41.2162C262.916 41.4531 262.969 41.1516 263.022 41.4128C263.142 42.0171 263.184 44.0202 263.368 42.8544C263.391 42.7031 263.355 40.3648 263.539 40.4753C263.612 40.5213 263.935 40.4812 264.026 40.6327C264.117 40.7841 264.054 41.5376 264.061 41.5702C264.305 42.5666 264.212 42.9796 264.335 44.4547C264.457 45.9243 264.423 42.4192 264.473 42.028C264.523 41.6379 264.702 42.46 264.746 42.7458C264.79 43.0317 264.735 43.5105 264.774 43.6723C265.033 44.7294 264.888 41.9325 264.973 41.3761C265.174 40.0589 265.331 42.6583 265.515 42.913C265.565 42.9818 265.525 42.3898 265.569 42.3344C265.745 42.1229 265.851 42.934 266.051 42.1903C266.083 42.0692 266.245 40.5063 266.35 41.6532C266.365 41.8186 266.323 42.4664 266.397 42.6115C266.509 42.8292 266.711 42.9708 266.831 42.7543C266.92 42.5941 266.818 41.5267 266.93 41.8583C266.98 42.0064 266.888 42.6308 266.981 42.8568C267.074 43.0828 267.312 43.0554 267.402 43.0338C267.492 43.0118 267.443 42.2022 267.45 42.1476C267.494 41.8352 267.667 41.4448 267.683 41.4457C268.454 41.3469 269.166 42.7116 269.917 42.2599C269.976 42.2256 269.937 41.3719 269.946 41.3578C270.148 41.0001 269.989 43.2701 270.13 44.0299C270.109 42.2974 270.192 42.6111 270.335 42.4211C270.403 42.3281 270.366 41.6572 270.372 41.5885C270.474 40.5696 270.544 41.8857 270.563 42.1549C270.63 43.1454 270.703 41.9751 270.749 42.6371C270.795 43.2942 270.689 44.2682 270.826 44.2558C270.864 43.6356 270.763 42.0148 270.866 41.7521C271.257 40.7585 271.986 42.0302 272.3 42.1623C272.614 42.2943 272.715 42.1798 272.898 42.404C273.227 42.8092 273.107 41.6067 273.311 41.0563C273.517 40.506 273.417 43.4647 273.447 44.1007C273.476 44.7365 273.507 44.0821 273.543 44.4315C273.579 44.781 273.501 45.2134 273.586 45.3446C273.671 45.4757 273.902 44.3447 273.932 43.6796C273.995 42.2706 273.891 40.7918 274.115 41.3114C274.128 41.3423 274.086 42.1203 274.135 42.1989C274.527 42.7978 274.933 42.8349 275.324 43.3647C275.378 43.4387 275.33 44.3042 275.361 44.3571C275.687 44.9107 275.571 43.4514 275.749 41.8302C275.709 43.9876 275.808 45.3075 276.055 45.3202C276.204 45.3286 276.178 44.3864 276.275 43.7223C276.304 43.5221 276.409 44.1691 276.428 43.726C276.491 42.2775 276.392 40.656 276.647 41.3017C276.658 41.3324 276.622 42.1252 276.661 42.1733C276.911 42.4876 276.941 40.9725 277.211 40.789C277.422 40.645 277.799 41.5689 278.04 41.7192C278.035 44.1447 278.263 43.5892 278.355 41.9169C278.512 41.9854 278.681 41.8908 278.832 42.122C278.884 42.2008 278.85 42.903 278.856 42.9789C278.957 44.1692 279.025 42.5422 279.059 42.4784C279.412 41.8584 279.717 43.0863 280.014 41.872C280.025 41.8282 279.992 40.1437 280.115 41.3705C280.124 41.4551 280.039 42.2249 280.196 42.2789C280.351 42.3332 280.696 43.2226 280.877 42.4311C280.922 42.2405 280.975 40.8679 281.144 41.9283C281.167 42.0723 281.18 42.5556 281.217 42.8227C281.338 43.6738 281.269 41.9719 281.441 43.4106C281.613 44.8492 281.868 45.9182 282.031 44.9054C282.036 44.8759 281.991 43.5258 282.064 43.5417C282.181 43.5681 282.366 43.8353 282.486 43.8165C282.543 43.807 282.436 42.9749 282.445 42.9588C282.786 42.4587 283.122 43.178 283.568 43.4602C283.65 43.5135 283.752 42.3548 283.99 43.2387C284.252 44.206 284.508 48.3164 284.787 47.3015C284.901 46.8952 284.533 41.6847 285.092 44.3446C285.541 43.6217 286.172 44.9443 286.589 43.937C286.608 43.8923 286.527 42.4357 286.585 42.4495C286.671 42.4728 286.788 43.1451 286.851 43.1836C287.118 43.3617 287.283 42.7589 287.53 42.8253C287.623 42.8491 287.661 43.5529 287.772 43.5816C287.882 43.6097 287.865 42.6798 288.053 43.1118C288.196 43.4413 288.477 45.3183 288.637 45.5259C288.476 43.6636 288.578 43.693 288.714 43.1862C288.74 43.0879 288.648 42.4428 288.658 42.3628C288.697 42.023 288.803 42.5553 288.837 42.1863C288.845 42.0977 288.794 41.4613 288.798 41.3529C288.833 40.4069 289.126 41.8245 289.174 42.0717C289.361 43.0098 289.354 42.1779 289.47 42.5446C289.585 42.9114 289.486 43.3868 289.603 43.606C289.846 44.0596 290.105 43.9402 290.319 43.9583C290.404 43.9616 290.302 43.1137 290.313 43.0944C290.482 42.8691 290.698 43.7668 290.729 42.0668C291.029 46.4472 290.822 41.6365 291.116 42.5061C291.139 42.5764 291.225 44.6502 291.162 44.957C291.099 45.2635 290.965 44.6191 290.881 45.0978C290.86 45.2101 290.81 47.1588 290.799 47.2773C290.705 48.2032 290.534 45.1067 290.517 44.937C290.334 43.1054 290.27 45.2071 290.237 45.3541C290.074 46.0279 289.877 45.6037 289.74 46.0878C289.651 46.4009 289.788 48.4279 289.702 48.3719C289.416 48.1872 289.077 45.3715 289.017 47.8428C289.005 48.37 289.256 50.5767 288.901 48.8554C288.879 48.7468 288.581 47.1701 288.585 48.1844C288.586 48.3123 288.647 48.9565 288.637 49.012C288.573 49.3712 288.459 48.8642 288.376 49.1203C288.293 49.3764 288.202 49.7554 288.057 49.5494C287.97 49.4263 287.751 48.2368 287.685 47.9469C287.495 47.1117 287.529 48.5099 287.358 47.4925C287.185 46.4702 287.148 44.8937 286.905 44.247C287.076 45.9196 287.243 47.6371 287.412 49.3195C287.038 49.2996 286.61 48.7996 286.236 48.9153C286.19 48.9313 286.337 49.8245 286.29 49.8648C286.091 50.0311 285.831 49.4113 285.632 49.691C285.478 49.9109 285.385 50.8833 285.222 51.143C284.905 49.242 284.695 49.9205 284.472 49.7664C284.394 49.7132 284.347 49.2015 284.28 49.0398C284.026 48.442 284.284 50.1248 284.256 50.3963C284.136 51.5554 283.746 47.7272 283.491 47.8465C283.478 47.8515 283.489 49.9102 283.475 50.0397C283.393 50.8833 283.386 49.3309 283.275 49.1886C283.073 48.9283 282.912 48.4505 282.751 49.0663C282.705 49.2485 282.654 50.535 282.458 49.5581C282.433 49.4302 282.39 48.7534 282.375 48.7148C282.099 48.0716 282.247 50.1966 282.159 50.9259C282.07 51.6551 281.761 50.2011 281.694 49.7804C281.517 48.6928 281.75 49.3076 281.749 49.1998C281.737 47.9175 281.604 48.1469 281.485 48.0455C281.345 45.9614 281.202 46.0952 281.362 47.9487C281.38 48.1512 281.457 47.9516 281.485 48.0455C281.508 50.0971 281.329 50.3702 281.04 48.467C280.905 47.5748 280.941 46.5259 280.691 46.9201C280.577 47.0979 280.683 48.533 280.586 48.9292C280.358 49.8335 279.957 48.5028 279.697 48.7183C279.6 48.7966 279.705 49.5824 279.638 49.663C279.459 49.8793 279.303 49.2898 279.133 49.5926C279.118 49.6211 279.156 50.4451 279.103 50.4557C278.731 50.5514 278.417 50.0236 278.034 50.0089C277.849 50.0022 277.519 50.4567 277.328 50.3654C276.996 50.2119 276.589 49.0135 276.305 49.3046C276.121 49.4909 276.161 50.3152 276.082 50.8768C275.929 51.9655 275.659 50.0155 275.623 49.7135C275.622 49.7035 275.781 49.5092 275.696 49.0861C275.646 48.2044 275.625 49.7097 275.623 49.7135C275.599 49.5185 275.281 49.3313 275.218 49.4889C275.184 49.575 275.203 50.356 275.185 50.3861C274.761 51.085 274.336 51.2835 273.905 50.9183C273.898 50.9026 273.909 50.029 273.891 50.0028C273.642 49.6144 273.482 50.683 273.277 51.3175C273.071 51.9517 272.908 51.7393 272.787 50.2396C272.632 50.4285 272.409 49.7655 272.281 49.3632C272.153 48.9609 272.135 50.6613 272.124 50.695C271.772 51.7709 271.569 50.7976 271.205 50.6461C271.032 50.5712 270.688 50.8178 270.5 51.0038C270.352 51.1536 270.262 50.7551 270.126 51.0099C270.107 51.0439 270.126 51.8011 270.12 51.8302C269.968 52.7361 270.041 50.8851 270.01 50.5546C269.896 49.3525 269.825 48.7122 269.63 49.2777C269.585 49.4072 269.453 52.0723 269.371 52.2282C269.265 52.4259 269.305 51.4706 269.193 51.702C269.184 51.721 269.186 52.3103 269.117 52.2843C268.796 52.1714 268.447 51.8285 268.114 51.8876C268.069 51.8934 268.127 52.8282 268.061 52.8519C267.753 52.9627 267.415 52.9281 267.115 52.4906C267.041 52.38 267.088 51.7255 267.072 51.5311C266.973 50.3553 266.833 52.0638 266.81 52.0963C266.261 52.9173 265.84 51.3712 265.28 52.1073C265.249 52.1505 265.014 53.982 264.91 52.4113C264.902 52.3068 264.799 50.6997 264.707 51.7985C264.701 51.8672 264.766 52.6946 264.653 52.6102C264.541 52.5261 264.359 53.0786 264.204 52.1696C264.155 51.8832 264.039 50.2801 263.893 51.558C263.884 51.6472 263.658 54.5367 263.577 52.5431C263.564 52.2149 263.578 50.1052 263.403 51.1869C263.37 51.3966 263.43 51.8672 263.342 52.161C263.208 52.6139 263.029 52.0488 262.864 52.9886C262.835 53.155 262.712 54.587 262.614 53.5001C262.598 53.3299 262.627 52.6256 262.575 52.5468C262.328 52.1687 262.069 52.6398 261.817 52.1525C261.728 51.9812 261.774 50.8426 261.681 50.5375C261.588 50.2325 261.401 49.939 261.304 50.4594C261.207 50.9799 261.313 52.7946 261.168 52.9398C260.535 53.5705 259.908 52.5059 259.277 52.3502C259.183 52.327 259.261 52.9763 259.123 52.9886C258.614 53.037 257.735 53.6458 257.293 52.266C256.939 51.1609 257.385 50.3195 257.114 49.8698C256.984 49.6552 256.843 51.765 256.811 51.8314C256.503 52.5061 256.289 51.5715 256.013 51.8583C255.955 51.9178 256.011 52.7729 255.963 52.8141C255.796 52.9624 255.622 52.5807 255.463 52.6505C255.392 52.6838 255.405 53.3369 255.339 53.2865C255.182 53.1734 255.043 52.8989 254.89 52.2867C254.876 52.231 254.97 51.4185 254.854 51.3883C254.666 51.3417 254.433 50.7379 254.217 51.3615C254.153 51.5491 254.15 53.0417 254.012 52.0109C253.983 51.7956 254.02 50.0032 253.86 51.5519C253.833 51.8092 253.563 53.8981 253.43 52.5516C253.396 52.1973 253.306 50.7306 253.229 50.9611C253.219 50.9978 253.261 51.7996 253.197 51.8778C252.971 52.1395 252.735 52.0539 252.504 52.3051C252.442 52.3737 252.534 53.2034 252.442 53.2792C252.189 53.4889 251.872 53.2776 251.625 53.0179C251.533 52.9206 251.596 52.2334 251.59 52.1586C251.483 50.9421 251.42 52.5841 251.384 52.6798C251.164 53.2531 250.996 52.4818 250.792 52.6859C250.736 52.7402 250.776 53.5231 250.765 53.5929C250.649 54.275 250.735 52.869 250.662 52.714C250.457 52.2751 250.228 52.3381 250.02 52.4381C249.944 52.476 250.029 53.3838 249.961 53.4073C249.556 53.5638 249.134 53.4769 248.739 52.9764C248.664 52.8806 248.711 52.1815 248.696 52.0219C248.589 50.9048 248.432 52.4285 248.396 52.5736C248.232 53.2363 248.168 52.6181 248.023 52.7335C247.315 53.308 246.442 52.8986 245.774 52.6456C244.903 52.3201 244.228 51.6551 243.398 51.8278C243.345 51.8379 243.398 52.7678 243.352 52.7885C242.765 53.0126 242.187 52.6493 241.599 52.9178C241.551 52.9382 241.62 53.8198 241.543 53.8822C241.384 54.0163 241.182 53.9684 241.022 53.6869C240.943 53.5513 241.048 52.7948 240.97 52.6737C240.786 52.3901 240.589 52.3273 240.4 52.4686C240.32 52.5307 240.441 53.4323 240.337 53.4427C239.626 53.5322 238.927 53.6875 238.209 52.5199C238.159 52.4397 238.116 50.6072 238.011 50.9586C238.004 51.4672 238.004 52.0654 238.001 52.609C236.965 52.9018 235.941 52.2666 234.903 52.1683C234.859 52.1644 234.935 53.1354 234.85 53.1327C234.36 53.1183 233.883 53.3873 233.382 52.4222C233.332 52.3279 233.358 50.6197 233.211 50.8781C233.185 50.9252 232.964 51.153 232.907 51.5238C232.899 51.5797 232.94 52.377 232.868 52.4003C232.455 52.5213 232.021 52.3393 231.608 51.8522C231.542 51.772 231.613 50.923 231.565 50.8585C231.228 50.4078 230.862 51.0533 230.54 50.2824C230.325 49.7633 230.405 48.2956 230.29 46.851C230.274 46.6472 230.141 46.6149 230.134 45.7743C230.116 43.6607 230.181 41.3463 230.154 39.0934C230.149 38.6082 229.97 39.1308 230.076 37.9582C230.083 37.8797 230.213 37.4905 230.245 37.0927C230.267 36.8177 230.227 35.9628 230.272 35.6108C230.317 35.259 230.367 35.9756 230.442 35.5619C230.517 35.1432 230.484 34.1707 230.634 34.0556ZM271.705 47.5651C271.586 46.7485 271.568 49.7394 271.697 49.0238C271.703 48.9857 271.711 47.6051 271.705 47.5651ZM286.366 46.5569C286.069 45.2622 286.175 47.202 286.394 48.203C286.612 49.2029 286.456 46.9494 286.366 46.5569ZM287.838 45.4334C287.557 44.416 287.957 48.6386 288.055 47.7671C288.061 47.7179 287.854 45.4924 287.838 45.4334ZM230.821 46.4396C230.82 46.3999 230.724 46.3612 230.721 46.4005C230.67 47.3505 230.862 47.4272 230.821 46.4396ZM289.297 44.2512C289.198 43.6833 289.09 44.3562 289.215 45.062C289.314 45.6299 289.419 44.9577 289.297 44.2512ZM265.52 44.373C265.519 44.3284 265.45 44.2883 265.451 44.5402C265.456 45.3516 265.551 45.1226 265.52 44.373ZM291.927 44.0849C291.55 43.9284 291.206 40.4323 291.682 40.8194C291.766 40.8898 291.521 41.9393 291.63 42.2535C291.823 42.826 291.935 40.6252 292.136 41.8038C292.168 42.0195 291.946 44.1014 291.926 44.0897C291.926 44.0881 291.927 44.0865 291.927 44.0849ZM271.636 43.9726C271.634 43.933 271.539 43.8955 271.536 43.9347C271.485 44.8843 271.677 44.9604 271.636 43.9726ZM261.51 42.5236C261.505 42.4393 261.284 42.3605 261.277 42.4381C261.161 43.9909 261.608 44.1549 261.51 42.5236ZM278.044 41.7839C278.148 40.8286 278.272 40.7161 278.355 41.9157C278.252 41.852 278.148 41.8426 278.044 41.7839Z" fill="white"/>
<path d="M236.386 59.6525C236.771 59.392 237.276 59.6705 237.66 60.0529C237.78 60.1715 237.719 60.7015 237.802 60.8073C237.965 61.0134 238.116 60.7534 238.276 60.9989C238.329 61.0829 238.263 61.9225 238.319 61.9913C238.625 62.3624 238.914 62.1485 239.223 62.327C240.748 63.2076 242.246 63.5228 243.789 63.9054C244.298 64.0308 244.917 64.7928 245.442 64.4596C245.504 64.4199 245.467 63.6829 245.479 63.6222C245.662 62.6923 245.601 64.1801 245.72 64.3778C246.195 65.1583 246.722 65.2262 247.179 64.9418C247.373 64.8186 247.178 63.3547 247.374 64.1764C247.388 64.2319 247.338 65.0145 247.392 65.098C247.512 65.2858 247.742 65.1459 247.835 65.2079C248.016 65.3313 248.046 65.3235 248.216 65.3324C248.45 65.3514 248.727 65.7404 248.977 65.5631C249.031 65.5229 248.96 64.7206 249.045 64.5841C249.131 64.4478 249.356 64.5158 249.432 64.705C249.508 64.8942 249.476 65.5248 249.489 65.6693C249.6 66.8893 249.861 65.1996 249.895 65.1578C250.507 64.4458 251.032 65.4084 251.607 65.4056C252.043 65.4015 252.51 65.0837 252.925 65.1273C253.42 65.1823 253.839 65.6171 254.319 65.5424C254.37 65.5354 254.311 64.5921 254.373 64.5817C255.031 64.4719 255.684 64.5747 256.339 65.2115C256.405 65.2762 256.32 66.1045 256.386 66.2186C256.788 66.8993 257.424 68.5344 257.663 64.9283C257.935 65.0692 258.265 65.2146 258.509 65.9415C258.666 66.4094 258.514 67.3116 258.706 66.9266C258.75 66.8408 258.693 66.0507 258.759 65.9818C259.033 65.6925 259.334 65.9494 259.605 65.5411C259.661 65.4562 259.645 64.7482 259.661 64.6207C259.793 63.5882 260.012 65.295 260.06 65.4191C260.423 66.3439 260.689 65.98 261.028 66.0026C261.107 66.0082 261.014 65.0572 261.089 65.0284C261.482 64.8921 261.888 64.9739 262.273 65.3959C262.358 65.492 262.28 66.3021 262.32 66.3895C262.5 66.765 262.54 65.235 262.713 65.5655C262.75 65.6333 262.729 66.3268 262.736 66.4029C262.84 67.5986 262.93 65.9045 262.957 65.8671C263.295 65.356 263.511 67.1246 263.838 66.8741C263.877 66.8424 263.789 65.9649 263.899 65.9293C264.631 65.6871 265.405 65.9281 266.13 66.63C266.243 66.7379 266.162 67.3971 266.169 67.4784C266.285 68.7481 266.359 67.0468 266.396 66.9828C266.686 66.5216 266.957 67.9483 267.154 65.922C268.381 66.6252 269.603 65.4873 270.82 67.3026C270.836 67.3236 270.808 68.1615 270.839 68.1998C271.211 68.6703 271.139 67.3681 271.385 65.7755C271.447 65.3756 271.636 67.2984 271.653 67.4393C271.713 67.9587 271.65 69.2052 271.671 69.3058C271.839 70.0956 271.812 65.9734 272.039 65.972C272.046 65.9789 272.016 66.7377 272.035 66.8131C272.094 67.05 272.153 66.7485 272.211 67.0096C272.344 67.614 272.391 69.617 272.594 68.4513C272.619 68.3 272.58 65.9617 272.783 66.0721C272.864 66.1182 273.222 66.0781 273.322 66.2296C273.422 66.381 273.353 67.1345 273.36 67.1671C273.63 68.1635 273.528 68.5765 273.663 70.0516C273.799 71.5212 273.761 68.0161 273.816 67.6249C273.871 67.2348 274.069 68.0568 274.118 68.3426C274.167 68.6285 274.106 69.1074 274.149 69.2691C274.436 70.3262 274.275 67.5293 274.369 66.973C274.592 65.6558 274.765 68.2552 274.969 68.5099C275.024 68.5787 274.979 67.9866 275.029 67.9313C275.223 67.7198 275.34 68.5309 275.561 67.7872C275.598 67.666 275.776 66.1032 275.892 67.2501C275.909 67.4155 275.862 68.0633 275.945 68.2084C276.069 68.4261 276.292 68.5677 276.425 68.3512C276.523 68.191 276.411 67.1236 276.534 67.4552C276.589 67.6032 276.487 68.2277 276.591 68.4537C276.693 68.6797 276.956 68.6523 277.056 68.6307C277.156 68.6087 277.101 67.799 277.109 67.7445C277.158 67.432 277.35 67.0416 277.367 67.0426C278.22 66.9438 279.007 68.3085 279.838 67.8568C279.904 67.8225 279.86 66.9687 279.87 66.9547C280.093 66.597 279.917 68.867 280.073 69.6268C280.051 67.8942 280.143 68.2079 280.3 68.0179C280.376 67.925 280.335 67.2541 280.341 67.1854C280.454 66.1664 280.532 67.4826 280.552 67.7518C280.627 68.7422 280.708 67.572 280.758 68.234C280.809 68.8911 280.692 69.8651 280.843 69.8526C280.886 69.2324 280.774 67.6117 280.888 67.349C281.32 66.3554 282.127 67.627 282.474 67.7591C282.821 67.8911 282.933 67.7767 283.135 68.0008C283.5 68.4061 283.366 67.2036 283.593 66.6532C283.82 66.1028 283.71 69.0616 283.742 69.6976C283.774 70.3334 283.809 69.6789 283.849 70.0284C283.889 70.3778 283.803 70.8103 283.896 70.9415C283.99 71.0726 284.246 69.9415 284.279 69.2765C284.349 67.8675 284.234 66.3887 284.481 66.9083C284.496 66.9392 284.449 67.7171 284.504 67.7958C284.937 68.3947 285.387 68.4318 285.819 68.9615C285.879 69.0356 285.826 69.9011 285.86 69.954C286.221 70.5075 286.092 69.0482 286.289 67.4271C286.245 69.5845 286.354 70.9044 286.628 70.9171C286.792 70.9255 286.764 69.9833 286.87 69.3192C286.902 69.119 287.019 69.766 287.04 69.3229C287.109 67.8744 287 66.2529 287.282 66.8986C287.294 66.9292 287.255 67.7221 287.298 67.7701C287.574 68.0844 287.607 66.5693 287.906 66.3859C288.14 66.2419 288.557 67.1658 288.823 67.316C288.818 69.7415 289.07 69.1861 289.172 67.5138C289.345 67.5822 289.532 67.4877 289.699 67.7189C289.757 67.7977 289.719 68.4999 289.726 68.5758C289.837 69.7661 289.913 68.1391 289.95 68.0753C290.355 67.4553 290.685 68.6884 291.071 67.4833C291.085 67.4399 291.107 65.755 291.21 66.9852C291.217 67.07 291.089 67.8366 291.271 67.8959C291.453 67.9553 291.796 68.8585 292.048 68.0777C292.109 67.8898 292.264 66.5221 292.388 67.5907C292.404 67.7358 292.386 68.219 292.41 68.4879C292.487 69.3447 292.529 67.6418 292.62 69.0885C292.71 70.5352 292.899 71.6186 293.153 70.6205C293.161 70.5914 293.222 69.2417 293.302 69.263C293.429 69.2983 293.611 69.5795 293.744 69.5707C293.808 69.566 293.767 68.7278 293.778 68.7125C294.208 68.2429 294.514 68.99 294.974 69.3143C295.058 69.3754 295.3 68.2325 295.464 69.1361C295.643 70.1252 295.459 74.2399 295.871 73.2596C296.037 72.8675 296.248 67.6473 296.546 70.3519C297.126 69.6817 297.662 71.0659 298.242 70.109C298.269 70.0666 298.351 68.6097 298.413 68.6295C298.504 68.6618 298.554 69.3427 298.619 69.3876C298.892 69.5927 299.141 69.0101 299.405 69.1007C299.504 69.1336 299.469 69.8377 299.589 69.8771C299.708 69.9158 299.787 68.9886 299.948 69.4364C300.07 69.7777 300.192 71.6728 300.354 71.8937C300.36 70.0244 300.471 70.0629 300.668 69.5694C300.706 69.4737 300.666 68.8231 300.684 68.7442C300.757 68.4089 300.824 68.9481 300.894 68.5831C300.91 68.4954 300.911 67.8571 300.925 67.7494C301.042 66.8093 301.236 68.2452 301.269 68.4952C301.396 69.4447 301.455 68.6145 301.553 68.9884C301.65 69.3623 301.505 69.8296 301.619 70.0565C301.854 70.5258 302.157 70.4227 302.397 70.452C302.493 70.4598 302.427 69.6076 302.441 69.589C302.639 69.3728 302.839 70.2793 302.948 68.5819C303.085 72.9707 303.067 68.1562 303.35 69.0348C303.372 69.1058 303.4 71.1812 303.315 71.4859C303.23 71.7903 303.1 71.1416 302.981 71.6166C302.953 71.728 302.793 73.6728 302.771 73.7906C302.599 74.7113 302.574 71.6099 302.565 71.4396C302.462 69.6012 302.266 71.6964 302.214 71.8412C301.977 72.5045 301.776 72.0684 301.578 72.5418C301.449 72.8479 301.436 74.8794 301.334 74.8172C300.996 74.6117 300.878 71.7777 300.56 74.235C300.491 74.759 300.559 76.9795 300.315 75.2335C300.299 75.1234 300.118 73.5262 300.013 74.5365C299.999 74.6638 300 75.311 299.982 75.3653C299.866 75.717 299.788 75.2014 299.661 75.4483C299.534 75.6952 299.382 76.0633 299.237 75.8438C299.149 75.7126 299.037 74.5069 298.996 74.2118C298.877 73.3614 298.751 74.7556 298.678 73.7259C298.604 72.6911 298.748 71.1194 298.555 70.4508C298.548 72.132 298.531 73.8576 298.52 75.5484C298.096 75.4892 297.679 74.9456 297.253 75.0199C297.201 75.0308 297.255 75.9346 297.198 75.9696C296.96 76.1132 296.751 75.4688 296.504 75.7254C296.313 75.9275 296.103 76.8845 295.903 77.1256C295.78 75.2018 295.483 75.8548 295.268 75.679C295.192 75.6183 295.197 75.1045 295.143 74.9369C294.941 74.3169 295.036 76.017 294.98 76.2845C294.741 77.4263 294.721 73.5784 294.44 73.6734C294.425 73.6772 294.243 75.7283 294.218 75.856C294.058 76.689 294.191 75.1421 294.092 74.9906C293.91 74.7136 293.783 74.2238 293.569 74.8246C293.507 75.0025 293.358 76.281 293.237 75.2921C293.221 75.1626 293.229 74.4846 293.217 74.4449C292.985 73.7831 292.979 75.9134 292.846 76.6348C292.714 77.3562 292.509 75.8856 292.467 75.4618C292.358 74.3653 292.551 74.9932 292.557 74.8856C292.626 73.6051 292.477 73.8256 292.363 73.7174C292.346 71.6286 292.187 71.754 292.244 73.6136C292.251 73.8167 292.34 73.6219 292.363 73.7174C292.263 75.7668 292.087 76.0292 291.894 74.1141C291.803 73.2165 291.889 72.17 291.613 72.5528C291.488 72.7257 291.537 74.1639 291.426 74.556C291.174 75.4506 290.847 74.109 290.587 74.3204C290.493 74.3971 290.585 75.1844 290.521 75.264C290.35 75.4777 290.199 74.8869 290.027 75.1895C290.011 75.218 290.05 76.0421 289.996 76.0526C289.591 76.1483 289.239 75.6204 288.816 75.6058C288.612 75.5991 288.247 76.0536 288.035 75.9622C287.669 75.8087 287.218 74.6103 286.905 74.9015C286.7 75.0878 286.745 75.9121 286.658 76.4737C286.489 77.5624 286.19 75.6123 286.149 75.3104C286.148 75.3004 286.324 75.1061 286.23 74.6829C286.176 73.8013 286.151 75.3066 286.149 75.3104C286.123 75.1153 285.772 74.9282 285.702 75.0858C285.664 75.1719 285.685 75.9529 285.666 75.983C285.196 76.6819 284.726 76.8804 284.25 76.5152C284.241 76.4994 284.254 75.6259 284.234 75.5997C283.958 75.2113 283.782 76.2799 283.554 76.9144C283.327 77.5486 283.147 77.3362 283.012 75.8365C282.841 76.0253 282.595 75.3623 282.453 74.96C282.311 74.5578 282.292 76.2582 282.279 76.2918C281.89 77.3678 281.666 76.3945 281.263 76.243C281.071 76.1681 280.691 76.4147 280.483 76.6007C280.319 76.7505 280.22 76.352 280.069 76.6068C280.049 76.6408 280.069 77.3979 280.063 77.4271C279.894 78.3329 279.975 76.482 279.941 76.1515C279.814 74.9493 279.736 74.3091 279.52 74.8746C279.47 75.0041 279.325 77.6692 279.234 77.825C279.116 78.0228 279.161 77.0675 279.037 77.2989C279.027 77.3178 279.029 77.9072 278.953 77.8812C278.598 77.7683 278.212 77.4254 277.844 77.4845C277.794 77.4903 277.858 78.425 277.786 78.4488C277.445 78.5596 277.071 78.525 276.739 78.0875C276.657 77.9768 276.708 77.3223 276.691 77.128C276.582 75.9522 276.427 77.6606 276.402 77.6932C275.794 78.5142 275.328 76.9681 274.708 77.7042C274.675 77.7474 274.415 79.5789 274.299 78.0081C274.291 77.9036 274.177 76.2966 274.075 77.3953C274.069 77.4641 274.14 78.2914 274.016 78.2071C273.891 78.123 273.69 78.6755 273.519 77.7664C273.465 77.4801 273.337 75.877 273.175 77.1549C273.164 77.2441 272.914 80.1336 272.825 78.14C272.811 77.8118 272.826 75.7021 272.633 76.7838C272.596 76.9935 272.663 77.464 272.566 77.7579C272.417 78.2108 272.219 77.6457 272.036 78.5855C272.004 78.7519 271.869 80.1838 271.759 79.097C271.742 78.9268 271.775 78.2225 271.717 78.1436C271.443 77.7655 271.157 78.2367 270.879 77.7493C270.78 77.5781 270.831 76.4395 270.728 76.1344C270.625 75.8293 270.419 75.5359 270.311 76.0562C270.204 76.5768 270.321 78.3915 270.16 78.5367C269.46 79.1674 268.767 78.1028 268.069 77.9471C267.965 77.9238 268.051 78.5732 267.898 78.5855C267.335 78.6338 266.363 79.2427 265.874 77.8629C265.483 76.7577 265.976 75.9164 265.676 75.4666C265.532 75.2521 265.376 77.3619 265.341 77.4283C265.001 78.103 264.764 77.1684 264.458 77.4552C264.395 77.5147 264.457 78.3698 264.403 78.411C264.219 78.5593 264.026 78.1776 263.85 78.2474C263.771 78.2807 263.785 78.9338 263.713 78.8834C263.539 78.7703 263.386 78.4958 263.217 77.8836C263.201 77.8278 263.305 77.0154 263.177 76.9852C262.969 76.9386 262.711 76.3347 262.472 76.9583C262.401 77.1459 262.398 78.6386 262.245 77.6077C262.213 77.3924 262.254 75.6001 262.077 77.1488C262.047 77.4061 261.748 79.495 261.602 78.1485C261.563 77.7941 261.464 76.3274 261.379 76.5579C261.368 76.5947 261.414 77.3965 261.343 77.4747C261.094 77.7364 260.833 77.6508 260.577 77.9019C260.508 77.9706 260.61 78.8002 260.508 78.8761C260.228 79.0858 259.878 78.8745 259.604 78.6148C259.503 78.5175 259.573 77.8302 259.566 77.7554C259.448 76.539 259.378 78.1809 259.338 78.2767C259.094 78.85 258.909 78.0787 258.684 78.2828C258.622 78.337 258.666 79.12 258.653 79.1898C258.525 79.8719 258.621 78.4659 258.539 78.3109C258.312 77.872 258.059 77.9349 257.829 78.035C257.745 78.0729 257.84 78.9807 257.764 79.0042C257.316 79.1607 256.85 79.0738 256.412 78.5733C256.33 78.4774 256.381 77.7784 256.364 77.6187C256.246 76.5017 256.073 78.0253 256.033 78.1705C255.851 78.8332 255.781 78.215 255.62 78.3304C254.838 78.9049 253.871 78.4955 253.132 78.2425C252.169 77.917 251.422 77.252 250.504 77.4246C250.446 77.4347 250.504 78.3647 250.454 78.3853C249.805 78.6095 249.165 78.2461 248.514 78.5147C248.461 78.5351 248.538 79.4167 248.452 79.4791C248.276 79.6132 248.054 79.5653 247.876 79.2838C247.789 79.1481 247.905 78.3916 247.818 78.2706C247.615 77.987 247.397 77.9242 247.188 78.0655C247.1 78.1276 247.234 79.0292 247.118 79.0396C246.332 79.1291 245.559 79.2844 244.764 78.1168C244.71 78.0366 244.662 76.2041 244.546 76.5555C244.538 77.0641 244.538 77.6623 244.534 78.2059C243.389 78.4987 242.256 77.8634 241.108 77.7652C241.059 77.7613 241.143 78.7322 241.049 78.7296C240.507 78.7152 239.98 78.9842 239.425 78.0191C239.37 77.9247 239.398 76.2166 239.236 76.4749C239.208 76.5221 238.963 76.7499 238.9 77.1207C238.892 77.1766 238.936 77.9739 238.857 77.9971C238.4 78.1182 237.92 77.9362 237.464 77.4491C237.39 77.3689 237.468 76.5199 237.416 76.4554C237.043 76.0047 236.638 76.6501 236.282 75.8792C236.044 75.3602 236.132 73.8925 236.006 72.4478C235.988 72.244 235.84 72.2117 235.833 71.3712C235.813 69.2576 235.885 66.9432 235.855 64.6903C235.849 64.205 235.651 64.7277 235.768 63.5551C235.777 63.4766 235.92 63.0874 235.955 62.6896C235.98 62.4145 235.935 61.5597 235.985 61.2077C236.036 60.8559 236.091 61.5725 236.174 61.1588C236.257 60.7401 236.22 59.7676 236.386 59.6525ZM281.815 73.162C281.684 72.3453 281.665 75.3363 281.807 74.6207C281.813 74.5826 281.822 73.202 281.815 73.162ZM297.681 72.6895C297.51 71.3703 297.392 73.3101 297.513 74.3289C297.634 75.3467 297.733 73.0895 297.681 72.6895ZM299.459 71.7264C299.258 70.6863 299.227 74.9276 299.442 74.0702C299.454 74.0217 299.471 71.7868 299.459 71.7264ZM236.593 72.0365C236.591 71.9968 236.485 71.958 236.482 71.9974C236.426 72.9473 236.638 73.0241 236.593 72.0365ZM301.223 70.6778C301.16 70.1041 300.98 70.7664 301.058 71.4798C301.121 72.0538 301.301 71.3915 301.223 70.6778ZM274.975 69.9698C274.973 69.9253 274.897 69.8851 274.898 70.1371C274.903 70.9485 275.009 70.7195 274.975 69.9698ZM304.221 70.629C303.778 70.4694 303.51 66.9659 303.992 67.3612C304.079 67.4327 303.804 68.4784 303.915 68.7943C304.118 69.3697 304.253 67.17 304.461 68.3487C304.499 68.5645 304.246 70.6459 304.22 70.6339C304.221 70.6323 304.221 70.6306 304.221 70.629ZM281.74 69.5694C281.737 69.5299 281.632 69.4924 281.629 69.5316C281.572 70.4811 281.784 70.5572 281.74 69.5694ZM270.539 68.1205C270.533 68.0362 270.289 67.9574 270.281 68.035C270.153 69.5878 270.647 69.7517 270.539 68.1205ZM288.827 67.3807C288.942 66.4255 289.08 66.313 289.171 67.5126C289.057 67.4489 288.942 67.4395 288.827 67.3807Z" fill="white"/>
<path d="M265.621 111.379C259.148 110.904 250.626 110.611 244.105 110.376C242.061 110.303 243.04 110.928 241.624 110.896C238.853 110.829 236.32 110.294 233.573 110.222C232.662 110.2 233.687 111.165 232.733 111.123C227.501 110.88 222.616 110.014 217.333 109.43C191.294 106.546 165.746 101.636 139.122 97.6348C130.341 96.3099 119.543 95.4552 110.452 94.0049C109.39 93.8342 110.115 93.181 109.92 93.0958C106.842 91.7865 107.725 93.3923 105.622 93.3481C97.269 93.1733 88.0765 92.436 80.0661 91.7227C76.6525 91.4217 80.1548 90.1301 76.6611 90.7871C76.4192 90.8318 77.2562 91.6527 76.3137 91.6941C74.1759 91.7824 70.154 91.5145 68.5064 91.5454C65.3422 91.6057 64.8221 91.5929 61.8348 91.5916C59.5632 91.6101 57.642 91.6661 54.8329 92.0034C54.4324 92.0597 54.2863 92.0773 53.6756 92.203C53.3333 92.2787 52.9907 92.3599 52.5093 92.5588C52.2672 92.6618 51.9852 92.7938 51.6284 93.041C50.9095 93.1381 49.0225 96.7832 50.3549 98.4652C52.3947 101.053 51.7978 99.8385 52.3436 100.289C52.6836 100.457 53.0386 100.588 53.2567 100.663C53.5879 100.774 53.9193 100.871 54.2741 100.966C55.672 101.335 56.7741 101.558 57.8122 101.81C58.7527 102.033 57.3039 102.575 58.8649 103.007C60.3246 103.424 64.2217 103.998 65.6709 104.029C66.9596 104.038 66.5241 103.332 66.7704 103.224C68.8531 102.314 73.1043 104.643 73.7338 104.773C84.1217 106.976 93.3635 107.209 103.253 108.508C110.764 109.494 118.755 110.852 125.906 111.75C134.426 112.819 141.689 113.349 149.908 114.583C150.79 114.715 149.626 115.503 150.697 115.665C161.857 117.273 173.415 119.491 184.897 119.372C186 119.384 184.637 118.459 185.75 118.422C192.749 118.226 203.906 117.304 207.796 121.173C212.56 121.342 218.252 121.57 222.523 121.129C225.272 120.845 222.691 119.766 226.009 120.377C226.756 120.514 225.723 121.235 226.847 121.381C231.575 121.994 236.804 122.103 241.454 122.856C242.41 123.012 242.095 123.699 242.357 123.846C244.554 125.043 248.472 123.633 249.298 123.575C255.665 123.15 260.196 123.895 266.034 124.442C267.369 124.568 265.705 125.359 266.973 125.514C270.352 125.924 273.777 126.312 277.017 126.716C278.723 126.93 280.498 127.183 281.614 127.38C282.116 127.068 281.78 129.08 280.77 125.082C280.981 125.839 281.173 126.618 281.344 127.346C281.644 128.664 282.256 127.3 282.439 127.935C283.196 130.756 281.713 131.572 282.178 134.39C282.269 134.986 282.949 134.624 283.029 134.731C284.286 136.434 282.586 137.995 282.547 138.437C281.981 144.081 283.456 147.883 282.682 153.459C282.585 154.123 281.86 152.534 281.639 154.405C280.163 166.877 278.154 180.195 278.139 193.112C278.15 195.121 278.878 193.717 278.953 193.848C280.128 195.942 278.415 197.212 278.346 197.866C277.951 203.103 279.772 207.636 277.912 211.175C278.844 221.786 279.232 232.369 279.327 242.868C279.365 248.112 279.347 253.369 279.099 258.494C278.968 261.037 278.786 263.617 278.366 265.917C277.636 268.598 278.495 268.513 275.529 269.3C275.295 269.358 275.871 270.117 275.385 270.23C269.308 271.332 270.337 269.723 266.401 267.957C265.419 267.496 262.035 269.103 261.723 269.211C260.624 269.623 261.587 270.972 261.226 271.037C258.232 271.54 259.165 267.442 255.075 267.138C254.947 267.136 255.431 267.929 255.085 267.982C254.017 268.147 252.964 267.794 251.903 268.035C249.439 268.635 248.788 270.52 245.046 269.932C244.552 269.919 244.895 267.2 240.918 268.549C240.172 268.822 237.879 269.727 235.982 271.108C234.024 272.686 233.535 272.722 232.762 273.116C231.464 273.705 232.604 274.12 232.527 274.182C228.665 276.236 230.261 276.186 228.151 278.009C225.956 279.742 226.257 276.163 225.314 275.851C224.357 275.549 221.048 276.481 220.213 276.758C219.38 277.048 220.426 277.523 219.679 277.687C214.695 278.703 217.53 275.923 215.934 275.333C212.202 273.897 209.094 276.289 205.543 276.263C204.588 276.255 205.411 275.728 204.571 275.603C201.243 275.111 199.143 275.722 195.392 274.616C194.796 274.438 191.821 272.58 189.705 273.553C189.408 273.694 190.169 274.406 188.698 274.43C186.533 274.448 182.572 274.432 180.281 274.252C178.576 274.092 180.531 273.025 178.384 273.356C177.43 273.505 179.198 274.129 177.406 274.355C175.623 274.581 171.065 274.554 169.33 274.532C167.599 274.51 168.546 273.7 168.407 273.646C167.56 273.333 164.237 272.943 163.943 272.944C149.132 272.845 135.474 274.21 121.054 273.758C119.922 273.724 120.676 272.87 120.503 272.856C116.629 272.498 119.683 274.768 116.977 275.528C117.387 273.734 115.645 274.392 113.645 273.466C112.677 272.968 113.518 272.581 113.453 272.482C112.695 270.995 111.113 271.234 110.651 271.202C109.087 271.13 108.892 269.251 107.763 269.109C106.65 268.992 107.512 271.028 105.566 269.336C105.343 268.372 108.074 268.437 106.425 266.842C104.976 265.276 101.159 264.171 99.0014 264.268C96.5361 264.154 93.8731 264.13 91.2459 264.194C85.9902 264.302 80.8737 264.901 77.812 265.347C71.6991 266.26 69.7091 266.809 66.3448 268.15C60.3892 270.85 62.1744 268.899 58.2134 270.302C54.304 271.894 57.6165 273.439 57.4436 274.272C57.311 275.1 56.4441 274.875 56.0688 275.544C55.6999 276.211 57.152 275.754 55.9149 276.748C54.6942 277.694 50.5327 279.543 49.6761 279.388C47.8468 279.051 48.4735 276.648 45.4527 279.747C45.2786 279.927 46.3959 280.026 45.7015 280.686C40.2064 285.876 34.1394 290.709 28.3423 295.476C27.5447 296.131 28.7973 296.306 28.3342 296.697C23.4869 300.73 24.4911 298.252 20.7773 298.714C22.5503 300.114 21.7827 302.349 17.4406 304.665C14.8246 305.977 14.7985 304.923 12.9034 304.923C12.3088 304.954 10.5333 306.018 10.0913 305.541C9.23676 304.103 9.8132 302.416 9.86063 303.256C9.80914 303.114 9.08121 303.665 8.96524 303.114C8.62634 298.436 10.1671 297.801 10.4563 292.68C10.6856 288.649 10.0574 281.447 10.2093 276.839C7.77847 276.789 8.62497 272.454 10.4376 270.827C10.6036 267.847 10.9931 264.638 11.0648 261.747C11.0906 260.75 10.3239 261.326 10.2616 261.193C9.28244 259.145 11.0518 258.033 11.1903 257.401C12.6319 250.543 12.2585 244.709 14.6582 238.372C14.7455 238.146 16.4647 238.09 15.5977 236.115C15.5377 235.985 14.357 237.998 14.9088 234.911C15.4546 231.836 15.8696 225.838 17.7582 221.832C18.2096 220.858 20.2251 218.686 19.8151 216.349C19.758 216.034 19.2052 216.194 19.0669 215.722C18.636 214.194 20.4727 214.02 19.5807 212.084C18.6894 210.161 18.7112 206.618 21.2861 202.829C21.3674 202.704 22.9974 202.248 23.5142 200.961C24.3397 198.903 25.381 195.927 26.1439 193.74C26.5179 192.698 27.07 193.649 27.1487 193.472C30.0312 186.452 30.3654 180.977 31.2678 173.047C31.4322 171.596 33.1354 167.562 32.5739 164.633C31.9615 161.421 27.5044 164.128 29.3004 157.138C30.0287 154.302 35.604 151.32 33.6554 145.822C35.7654 136.011 36.3213 126.282 41.6723 117.408C41.9122 117.008 43.8435 116.417 44.3408 115.49C45.0907 114.062 44.8625 112.963 45.3027 111.916C47.1159 107.533 48.8974 103.554 50.5711 99.3474C51.2307 97.7705 50.3134 98.0079 51.2428 96.1342C52.2518 94.2707 53.6743 93.6206 55.3863 91.452C56.6619 89.8676 57.8306 86.9555 60.8523 85.8706C61.4739 87.651 63.3968 86.9762 66.8638 87.2481C67.5218 87.3041 66.8767 87.9947 67.1746 88.0559C68.4303 88.3163 69.5969 87.6904 70.8228 87.9676C71.128 88.0333 71.2062 88.6677 71.4386 88.7587C73.5296 89.5473 76.7825 87.8733 77.3263 87.5862C79.4532 86.4871 80.5733 87.2465 82.2082 86.7701C83.8759 86.2935 81.3104 85.9812 83.2853 85.6345C87.3534 84.9183 92.6221 84.7766 96.7928 84.6538C98.4561 84.609 97.339 85.4863 97.5773 85.4997C101.005 85.6407 104.502 84.75 106.361 86.4874C108.844 82.165 108.418 86.9056 113.313 86.3313C113.694 86.2879 114.356 84.2502 112.871 83.8448C111.354 83.4397 109.087 83.9862 107.003 83.4656C106.522 83.3381 103.704 81.3594 103.314 81.2447C100.259 80.3202 99.8686 83.444 99.7122 83.6132C97.9382 85.4688 94.4738 83.4678 93.5619 83.3573C89.4028 82.8363 85.9028 83.4598 82.4274 83.1964C80.1685 83.0294 79.8073 81.0188 78.0291 81.2009C72.0716 81.8317 70.6372 84.7306 64.4871 82.7831C63.0825 82.5074 63.9879 79.766 59.1136 82.9041C58.7542 83.0906 55.6604 85.95 53.1885 86.6721C52.8678 86.7547 52.4765 86.2369 52.1076 86.4629C49.6646 88.0307 48.8105 89.8875 47.1268 92.1191C45.4402 94.3878 43.9174 97.1066 43.1929 99.6492C42.7491 101.195 43.2287 103.413 43.2577 104.175C43.3557 106.363 41.2902 107.752 41.7569 109.229C42.1981 110.758 44.6658 109.203 43.8705 112.451C42.313 111.809 40.657 111.265 39.0768 110.644C35.5967 116.781 33.0059 125.285 31.3098 132.639C31.0853 133.576 30.4207 132.414 30.1604 133.419C29.0814 137.667 29.1022 141.482 28.2309 145.801C27.555 149.145 26.165 152.706 25.5237 156.145C27.187 158.486 25.9631 163.512 25.6617 167.17C25.5551 168.454 26.075 168.435 26.1174 169.363C26.2518 172.862 24.791 171.015 24.3911 171.904C22.6489 175.662 26.4187 176.641 25.3682 181.267C25.3182 181.524 22.6429 184.001 22.4142 184.345C20.9616 186.64 23.0051 184.941 22.7278 186.552C22.1869 189.5 22.0602 191.548 20.2186 194.537C19.6989 195.383 17.4426 197.236 17.5226 199.67C17.5333 199.986 18.2189 200.101 18.1688 200.329C17.2275 204.458 15.2256 203.833 13.7292 205.854C12.2321 207.892 12.4993 211.889 12.6934 212.716C13.1682 214.901 13.5805 211.434 13.7228 211.361C15.3212 210.572 14.2917 213.033 13.8201 215.012C15.7326 215.892 14.8421 218.539 13.3332 217.053C13.1691 216.884 13.7929 215.432 13.8201 215.012C11.3494 216.122 10.2174 219.134 11.2378 222.934C11.7262 224.711 13.0699 223.485 11.6025 228.112C10.9503 230.221 9.73154 229.074 8.93643 230.905C7.12195 235.096 7.40295 241.054 6.50204 245.539C6.17386 247.171 5.64056 245.45 5.39093 246.564C4.72958 249.526 4.95648 252.246 4.28751 255.216C4.2261 255.485 3.48895 254.718 3.3649 255.654C2.41891 262.76 2.3858 269.015 1.92816 276.441C1.69962 280.035 0.951172 286.444 0.943329 290.167C0.924927 293.401 1.19794 297.033 1.4628 300.497C1.53101 301.425 1.5849 301.979 1.65982 303.226C1.74249 304.329 2.0535 307.37 4.789 309.483C10.0318 312.656 12.1978 310.626 13.9608 310.449C18.3423 309.121 17.5706 310.119 19.4583 309.873C23.0737 309.317 26.7102 304.651 27.1155 304.011C27.1343 303.995 24.3274 305.563 25.5529 304.277C25.8934 303.011 27.0818 304.028 27.1155 304.011C27.455 303.585 32.4982 299.874 33.5824 299.255C34.1782 298.929 34.3318 299.783 34.6339 299.6C41.8017 295.246 48.4423 290.145 54.5738 284.74C54.6808 284.634 53.9613 284.091 54.2189 283.851C57.6401 280.595 60.3633 280.085 63.6469 279.029C66.9059 278.021 69.1523 277.008 70.6714 274.986C73.1752 274.408 76.7578 273.091 78.9822 272.461C81.2009 271.822 81.6608 273.527 81.8549 273.541C88.0856 274.237 91.824 273.436 98.7553 273.533C101.186 273.621 100.148 273.437 101.241 274.169C102.161 274.897 103.959 277.135 106.021 278.865C109.019 281.667 114.594 282.504 117.05 282.508C117.405 282.542 117.046 283.299 117.155 283.328C120.082 284.234 118.675 282.383 119.279 282.053C121.47 280.851 122.824 280.21 126.572 280.776C127.437 280.905 129.955 283.57 131.532 283.726C133.581 283.924 132.807 282.969 134.953 283.2C135.136 283.219 135.098 283.808 136.422 283.782C142.569 283.67 149.271 283.327 155.658 283.386C156.531 283.392 155.412 284.326 156.673 284.35C162.588 284.461 169.072 284.426 174.835 283.989C176.254 283.878 175.365 283.224 175.672 283.029C177.563 281.853 180.244 283.562 180.686 283.594C189.909 284.403 198.504 284.38 209.462 285.765C210.042 285.854 214.7 287.937 216.893 286.396C217.052 286.296 219.171 284.733 221.067 285.803C221.191 285.867 219.833 286.725 222.217 286.592C224.577 286.448 228.589 286.805 232.14 285.185C233.322 284.571 235.239 283.026 240.34 281.571C240.464 281.602 242.763 280.771 243.387 280.968C244.212 281.032 244.446 281.192 244.527 280.079C244.537 279.753 243.572 277.701 246.053 278.223C246.52 278.346 245.849 278.941 247.003 279.039C248.745 279.2 251.482 278.587 254.279 279.726C254.765 279.921 256.763 281.52 258.724 280.627C259.032 280.486 258.546 279.73 259.539 279.75C264.275 279.819 269.722 281.009 275.918 279.794C278.221 279.296 276.942 278.368 279.082 277.597C279.739 277.317 279.605 277.502 281.928 276.455C283.901 275.383 285.125 273.331 285.746 272.023C286.868 269.539 287.115 268.193 287.653 267.052C288.581 265.017 289.978 267.631 290.635 264.411C292.952 250.71 291.227 238.858 290.687 226.525C290.592 224.699 291.303 226.175 291.203 223.51C290.93 213.41 289.974 197.338 289.639 189.505C289.111 182.897 287.531 191.051 287.549 185.979C287.57 183.532 289.973 181.101 290.106 180.527C291.447 174.833 291.064 170.653 291.998 165.366C292.191 164.272 292.909 165.456 293.064 164.522C293.599 161.331 293.607 157.89 293.981 154.766C294.15 153.371 294.776 153.683 294.843 152.379C295.005 149.253 294.93 146.434 294.448 143.306C294.404 143.022 293.516 144.893 293.579 142.539C293.672 138.724 293.085 133.984 293.249 129.323C293.283 127.915 294.799 127.561 293.279 124.676C293.119 124.385 292.632 124.517 292.299 124.26C292.132 124.132 292.003 123.906 291.966 123.49C291.948 123.282 291.952 123.026 291.985 122.713C292.031 122.959 291.972 120.989 291.257 119.639C290.466 118.249 289.632 117.795 289.107 117.363C285.066 114.995 280.234 112.588 277.42 113.502C276.64 113.754 274.749 114.994 273.233 114.589C273.024 114.528 273.972 113.829 272.675 113.603C268.368 112.856 263.731 112.509 259.294 111.872C258.112 111.701 259.959 111.027 258.184 110.799C253.289 110.169 247.197 109.909 242.398 109.816C240.628 109.784 241.797 110.559 241.662 110.624C239.534 111.688 238.432 109.963 237.754 109.818C233.555 108.943 230.272 109.489 226.383 109.02C225.307 108.893 226.126 108.164 225.915 108.079C223.734 107.248 225.298 108.763 223.88 108.823C219.926 108.996 215.489 108.641 211.551 108.283C210.074 108.149 211.794 107.351 210.47 107.241C202.715 106.577 194.611 106.147 187.044 106.127C185.647 106.126 186.475 106.884 186.175 107.024C184.029 107.995 181.158 106.257 180.501 106.06C177.471 105.161 176.208 105.688 173.937 105.327C161.288 102.591 143.824 100.636 131.193 99.2196C114.532 97.3419 101.63 96.3843 85.8653 94.0768C84.8822 93.9329 85.9983 93.1462 85.1563 93.0108C79.5413 92.1312 74.1325 91.413 68.6386 90.5967C65.9205 90.1902 63.244 89.7741 60.6459 89.2708C59.4634 89.0425 58.0313 88.7211 57.5417 88.5487C57.5575 88.6143 57.2067 88.1399 59.2422 89.4823C59.547 89.758 59.6053 89.55 60.9249 91.1466C62.086 92.4388 63.4918 96.4957 62.0992 99.6754C58.6021 105.774 58.3187 103.652 57.7152 104.36C56.6483 104.834 56.3403 104.835 56.1784 104.88C55.8438 104.941 56.5672 104.863 56.9846 104.863C57.6973 104.848 56.6166 105.778 57.9049 105.787C60.4742 105.83 64.6844 105.83 67.6087 105.606C69.0756 105.501 67.1183 104.702 68.5995 104.614C72.0506 104.409 75.7078 104.488 79.2115 104.819C80.7018 104.964 78.402 105.739 80.3389 105.858C93.6023 106.709 106.631 108.322 120.268 109.097C121.203 109.15 122.279 107.453 124.198 108.093C124.272 108.619 124.175 109.209 124.16 109.756C143.53 112.943 162.885 115.992 182.594 119.383C183.425 119.526 181.82 120.228 183.429 120.51C192.74 122.138 201.795 123.951 211.572 124.442C212.542 124.491 212.302 122.733 215.077 123.399C215.566 123.52 219.777 124.346 220.828 124.86C220.97 124.936 220.085 125.621 221.455 125.83C229.416 127.027 237.86 127.808 245.948 128.005C247.253 128.035 245.942 127.073 246.871 127.086C253.448 127.184 260.572 128.243 266.888 127.655C271.114 127.25 269.589 125.738 271.83 124.333C272.146 124.137 274.729 124.13 274.867 123.288C275.217 121.177 273.998 118.855 274.519 116.605C274.628 116.124 277.999 116.652 276.005 115.476C275.865 115.4 273.429 114.996 272.836 114.588C272.424 114.308 273.183 113.463 272.341 113.099C271.5 112.736 270.56 113.437 269.161 112.99C267.767 112.535 268.409 111.587 265.621 111.379ZM89.4119 270.205C91.6524 269.407 91.9244 272.404 89.5496 271.664C89.4345 271.625 89.2969 270.244 89.4119 270.205ZM35.5909 125.756C35.9275 129.071 33.5596 130.596 33.1476 128.21C32.7699 125.779 35.5052 124.725 35.5909 125.756ZM48.5523 97.4134C48.0879 101.119 43.9096 100.182 46.28 96.7533C46.4223 96.5514 48.5873 97.1901 48.5523 97.4134ZM261.581 123.61C261.614 123.573 263.468 123.613 263.51 123.653C264.46 124.643 260.745 124.563 261.581 123.61ZM76.3806 85.4645C75.3165 86.1138 72.179 85.6792 73.4567 84.8706C74.5096 84.2172 77.7041 84.6558 76.3806 85.4645ZM205.331 277.711C205.37 277.67 206.692 277.733 206.646 277.982C206.495 278.785 204.674 278.41 205.331 277.711ZM128.581 87.8298C120.762 84.8606 116.017 88.4748 123.786 89.5463C125.208 89.8317 120.993 87.7369 122.894 87.8513C126.434 88.1587 128.005 90.7299 130.114 92.0299C130.954 92.5111 129.319 87.9211 128.57 87.8187C128.573 87.8224 128.577 87.8261 128.581 87.8298ZM90.7414 266.625C90.7874 266.584 92.6139 266.579 92.6571 266.621C93.6214 267.59 89.957 267.598 90.7414 266.625ZM278.826 268.719C278.837 268.824 279.876 265.025 279.906 264.9C282.03 263.096 279.673 271.311 278.826 268.719ZM10.1493 276.763C11.2265 274.849 11.5085 272.508 10.4381 270.836C10.3463 272.807 10.2153 274.787 10.1493 276.763Z" fill="white"/>
<path d="M226.181 167.743C225.336 167.482 224.228 167.761 223.385 168.143C223.121 168.262 223.255 168.792 223.073 168.897C222.716 169.103 222.384 168.844 222.032 169.089C221.915 169.173 222.061 170.013 221.938 170.081C221.268 170.453 220.633 170.239 219.954 170.417C216.607 171.298 213.318 171.613 209.93 171.996C208.813 172.121 207.455 172.883 206.302 172.55C206.167 172.51 206.247 171.773 206.222 171.712C205.82 170.782 205.953 172.27 205.691 172.468C204.65 173.248 203.491 173.316 202.489 173.032C202.063 172.909 202.49 171.445 202.061 172.267C202.031 172.322 202.139 173.105 202.022 173.188C201.757 173.376 201.254 173.236 201.048 173.298C200.652 173.421 200.587 173.414 200.212 173.423C199.7 173.442 199.091 173.831 198.541 173.653C198.424 173.613 198.579 172.811 198.392 172.674C198.205 172.538 197.71 172.606 197.543 172.795C197.376 172.984 197.447 173.615 197.417 173.759C197.174 174.979 196.601 173.29 196.527 173.248C195.183 172.536 194.03 173.498 192.769 173.496C191.811 173.492 190.787 173.174 189.875 173.217C188.79 173.272 187.869 173.707 186.814 173.632C186.703 173.626 186.834 172.682 186.698 172.672C185.253 172.562 183.819 172.665 182.38 173.302C182.236 173.366 182.422 174.195 182.278 174.309C181.395 174.989 179.999 176.624 179.475 173.018C178.878 173.159 178.152 173.305 177.617 174.032C177.273 174.499 177.607 175.402 177.184 175.017C177.088 174.931 177.213 174.141 177.069 174.072C176.466 173.783 175.807 174.04 175.211 173.631C175.089 173.546 175.123 172.838 175.088 172.711C174.799 171.678 174.318 173.385 174.213 173.509C173.415 174.434 172.832 174.07 172.088 174.093C171.915 174.098 172.119 173.147 171.953 173.119C171.092 172.982 170.199 173.064 169.356 173.486C169.168 173.582 169.34 174.392 169.251 174.48C168.855 174.855 168.768 173.325 168.389 173.656C168.309 173.723 168.354 174.417 168.339 174.493C168.111 175.689 167.913 173.995 167.854 173.957C167.111 173.446 166.637 175.215 165.919 174.964C165.833 174.933 166.027 174.055 165.786 174.019C164.179 173.777 162.479 174.018 160.888 174.72C160.641 174.828 160.817 175.487 160.802 175.568C160.548 176.838 160.384 175.137 160.303 175.073C159.667 174.612 159.073 176.038 158.641 174.012C155.946 174.715 153.264 173.577 150.592 175.393C150.558 175.414 150.619 176.252 150.551 176.29C149.735 176.76 149.891 175.458 149.351 173.866C149.215 173.466 148.801 175.388 148.765 175.529C148.631 176.049 148.77 177.295 148.725 177.396C148.355 178.186 148.416 174.063 147.917 174.062C147.901 174.069 147.967 174.828 147.925 174.903C147.795 175.14 147.666 174.839 147.539 175.1C147.248 175.704 147.144 177.707 146.699 176.541C146.643 176.39 146.729 174.052 146.284 174.162C146.106 174.208 145.32 174.168 145.1 174.32C144.88 174.471 145.031 175.225 145.016 175.257C144.423 176.254 144.648 176.667 144.351 178.142C144.054 179.611 144.136 176.106 144.015 175.715C143.894 175.325 143.46 176.147 143.353 176.433C143.246 176.719 143.379 177.197 143.284 177.359C142.655 178.416 143.008 175.619 142.801 175.063C142.312 173.746 141.931 176.345 141.484 176.6C141.363 176.669 141.462 176.077 141.354 176.021C140.927 175.81 140.67 176.621 140.184 175.877C140.105 175.756 139.712 174.193 139.458 175.34C139.422 175.506 139.524 176.153 139.342 176.298C139.07 176.516 138.58 176.658 138.288 176.441C138.072 176.281 138.32 175.214 138.048 175.545C137.928 175.693 138.151 176.318 137.924 176.544C137.699 176.77 137.122 176.742 136.903 176.721C136.684 176.699 136.804 175.889 136.786 175.835C136.679 175.522 136.259 175.132 136.221 175.133C134.348 175.034 132.62 176.399 130.795 175.947C130.652 175.913 130.748 175.059 130.726 175.045C130.236 174.687 130.622 176.957 130.28 177.717C130.329 175.984 130.127 176.298 129.782 176.108C129.615 176.015 129.706 175.344 129.691 175.276C129.444 174.257 129.272 175.573 129.228 175.842C129.065 176.832 128.887 175.662 128.776 176.324C128.665 176.981 128.92 177.955 128.589 177.943C128.496 177.323 128.742 175.702 128.491 175.439C127.542 174.446 125.772 175.717 125.009 175.849C124.248 175.981 124.002 175.867 123.559 176.091C122.758 176.496 123.051 175.294 122.554 174.743C122.055 174.193 122.297 177.152 122.226 177.788C122.155 178.423 122.078 177.769 121.991 178.119C121.904 178.468 122.092 178.9 121.887 179.032C121.682 179.163 121.12 178.032 121.047 177.367C120.894 175.958 121.147 174.479 120.603 174.998C120.572 175.029 120.673 175.807 120.554 175.886C119.603 176.485 118.615 176.522 117.666 177.052C117.535 177.126 117.652 177.991 117.576 178.044C116.785 178.598 117.068 177.138 116.634 175.517C116.731 177.675 116.491 178.994 115.891 179.007C115.53 179.016 115.592 178.073 115.358 177.409C115.288 177.209 115.033 177.856 114.987 177.413C114.834 175.964 115.075 174.343 114.455 174.989C114.428 175.019 114.515 175.812 114.421 175.86C113.814 176.175 113.741 174.659 113.086 174.476C112.571 174.332 111.657 175.256 111.072 175.406C111.084 177.832 110.531 177.276 110.307 175.604C109.927 175.672 109.516 175.578 109.149 175.809C109.023 175.888 109.106 176.59 109.09 176.666C108.845 177.856 108.68 176.229 108.598 176.165C107.721 175.545 106.991 176.766 106.195 175.537C106.166 175.493 106.171 173.808 105.915 175.03C105.898 175.114 106.147 175.89 105.755 175.936C105.366 175.982 104.579 176.853 104.072 176.044C103.948 175.849 103.696 174.466 103.367 175.517C103.323 175.659 103.333 176.144 103.265 176.409C103.045 177.254 103.061 175.549 102.772 176.98C102.483 178.412 101.985 179.465 101.495 178.428C101.479 178.397 101.447 177.042 101.271 177.05C100.989 177.064 100.57 177.312 100.279 177.279C100.139 177.263 100.299 176.435 100.276 176.418C99.3823 175.871 98.6527 176.554 97.6159 176.778C97.4249 176.821 97.0122 175.631 96.5647 176.493C96.0722 177.437 96.0522 181.572 95.2446 180.502C94.917 180.073 95.015 174.834 94.0726 177.452C92.8795 176.648 91.5612 177.895 90.3979 176.807C90.3456 176.759 90.3205 175.291 90.1839 175.296C89.9809 175.307 89.7997 175.973 89.6528 176.002C89.0358 176.143 88.5501 175.507 87.965 175.54C87.7431 175.551 87.7501 176.259 87.4864 176.273C87.2233 176.286 87.1382 175.346 86.7429 175.759C86.4438 176.074 86.0054 177.936 85.6381 178.125C85.7908 176.262 85.5461 176.279 85.1564 175.75C85.0814 175.648 85.2254 175.007 85.1926 174.925C85.0599 174.577 84.8666 175.102 84.7437 174.726C84.7137 174.636 84.7635 173.999 84.7416 173.89C84.5563 172.931 84.014 174.33 83.9233 174.574C83.5723 175.5 83.5029 174.662 83.2613 175.02C83.0213 175.378 83.3077 175.867 83.0435 176.076C82.4971 176.508 81.8471 176.365 81.3246 176.366C81.1166 176.363 81.3029 175.52 81.2741 175.499C80.85 175.261 80.376 176.147 80.2037 174.441C79.7276 178.815 79.9575 174.004 79.299 174.862C79.247 174.931 79.1246 177.004 79.2981 177.314C79.4708 177.624 79.7723 176.986 80.0085 177.47C80.0659 177.584 80.3238 179.542 80.3629 179.662C80.6783 180.598 80.8812 177.503 80.9099 177.334C81.2254 175.509 81.5428 177.624 81.6427 177.775C82.1109 178.466 82.5673 178.059 82.9585 178.561C83.2142 178.886 83.0937 180.914 83.3112 180.868C84.0318 180.716 84.5232 177.912 84.9926 180.419C85.093 180.954 84.7539 183.152 85.4241 181.459C85.4654 181.352 85.9977 179.797 86.1283 180.824C86.1445 180.953 86.0833 181.597 86.1151 181.655C86.3289 182.028 86.5426 181.531 86.7888 181.803C87.0348 182.075 87.3222 182.473 87.6532 182.286C87.8522 182.174 88.2151 180.999 88.3355 180.715C88.6771 179.895 88.8052 181.311 89.0704 180.303C89.3385 179.291 89.1897 177.695 89.6811 177.074C89.5195 178.748 89.3732 180.468 89.2195 182.152C90.1373 182.19 91.1003 181.748 92.0204 181.924C92.1343 181.947 91.9182 182.833 92.0378 182.881C92.543 183.081 93.0697 182.49 93.5863 182.804C93.986 183.051 94.3481 184.052 94.7688 184.339C95.2424 182.455 95.8338 183.173 96.3345 183.047C96.5096 183.003 96.5497 182.491 96.6863 182.336C97.2003 181.764 96.8207 183.435 96.9193 183.714C97.346 184.903 97.7621 181.077 98.379 181.23C98.411 181.237 98.6338 183.317 98.6803 183.449C98.9678 184.311 98.8038 182.744 99.0425 182.613C99.4785 182.373 99.8031 181.909 100.239 182.547C100.365 182.736 100.608 184.038 100.96 183.072C101.006 182.946 101.037 182.268 101.069 182.231C101.643 181.61 101.503 183.735 101.762 184.476C102.022 185.217 102.594 183.78 102.714 183.363C103.032 182.284 102.551 182.883 102.544 182.775C102.467 181.487 102.793 181.729 103.059 181.636C103.22 179.553 103.569 179.699 103.334 181.548C103.308 181.75 103.117 181.544 103.059 181.636C103.165 183.695 103.569 183.981 104.109 182.09C104.36 181.203 104.214 180.15 104.819 180.56C105.095 180.745 104.926 182.177 105.165 182.579C105.718 183.496 106.542 182.177 107.137 182.398C107.356 182.479 107.132 183.262 107.282 183.344C107.682 183.564 108.033 182.976 108.424 183.28C108.46 183.308 108.372 184.132 108.495 184.143C109.389 184.238 110.159 183.711 111.087 183.696C111.535 183.689 112.337 184.144 112.801 184.052C113.606 183.899 114.596 182.7 115.284 182.992C115.732 183.178 115.634 184.002 115.826 184.564C116.197 185.652 116.853 183.702 116.941 183.401C116.944 183.391 116.558 183.196 116.764 182.773C116.884 181.891 116.937 183.397 116.941 183.401C116.999 183.205 117.77 183.018 117.923 183.176C118.006 183.262 117.96 184.043 118.003 184.073C119.034 184.772 120.067 184.97 121.112 184.605C121.13 184.59 121.103 183.716 121.146 183.69C121.751 183.301 122.139 184.37 122.638 185.005C123.137 185.639 123.533 185.426 123.828 183.927C124.205 184.115 124.745 183.452 125.056 183.05C125.367 182.648 125.41 184.348 125.437 184.382C126.291 185.458 126.784 184.485 127.669 184.333C128.09 184.258 128.924 184.505 129.38 184.691C129.74 184.841 129.957 184.442 130.289 184.697C130.334 184.731 130.288 185.488 130.302 185.517C130.672 186.423 130.494 184.572 130.571 184.242C130.848 183.039 131.019 182.399 131.494 182.965C131.603 183.094 131.922 185.759 132.121 185.915C132.38 186.113 132.282 185.158 132.554 185.389C132.577 185.408 132.572 185.997 132.74 185.971C133.517 185.858 134.365 185.516 135.173 185.575C135.284 185.58 135.142 186.515 135.302 186.539C136.05 186.65 136.87 186.615 137.599 186.178C137.779 186.067 137.666 185.412 137.705 185.218C137.944 184.042 138.284 185.751 138.339 185.783C139.674 186.604 140.696 185.058 142.057 185.794C142.131 185.838 142.701 187.669 142.955 186.098C142.972 185.994 143.224 184.387 143.447 185.485C143.46 185.554 143.304 186.382 143.577 186.297C143.851 186.213 144.291 186.766 144.667 185.857C144.786 185.57 145.068 183.967 145.423 185.245C145.446 185.334 145.995 188.224 146.19 186.23C146.222 185.902 146.189 183.792 146.613 184.874C146.694 185.084 146.547 185.554 146.76 185.848C147.087 186.301 147.52 185.736 147.922 186.676C147.992 186.842 148.291 188.274 148.53 187.187C148.568 187.017 148.496 186.313 148.623 186.234C149.224 185.856 149.853 186.327 150.463 185.839C150.68 185.668 150.569 184.53 150.794 184.224C151.02 183.919 151.474 183.626 151.71 184.146C151.945 184.667 151.688 186.482 152.041 186.627C153.577 187.257 155.099 186.193 156.632 186.037C156.86 186.014 156.671 186.663 157.007 186.676C158.242 186.724 160.376 187.333 161.449 185.953C162.308 184.848 161.227 184.006 161.883 183.557C162.2 183.342 162.543 185.452 162.62 185.518C163.367 186.193 163.886 185.259 164.559 185.545C164.698 185.605 164.561 186.46 164.68 186.501C165.083 186.649 165.508 186.268 165.893 186.338C166.067 186.371 166.035 187.024 166.194 186.973C166.575 186.86 166.912 186.586 167.283 185.974C167.317 185.918 167.089 185.106 167.371 185.075C167.827 185.029 168.394 184.425 168.919 185.048C169.074 185.236 169.081 186.729 169.415 185.698C169.486 185.483 169.396 183.69 169.786 185.239C169.852 185.496 170.507 187.585 170.828 186.239C170.913 185.884 171.13 184.418 171.317 184.648C171.342 184.685 171.241 185.487 171.396 185.565C171.943 185.826 172.516 185.741 173.078 185.992C173.228 186.061 173.005 186.89 173.229 186.966C173.844 187.176 174.612 186.965 175.213 186.705C175.435 186.608 175.282 185.92 175.298 185.846C175.557 184.629 175.711 186.271 175.797 186.367C176.332 186.94 176.74 186.169 177.234 186.373C177.37 186.427 177.274 187.21 177.301 187.28C177.582 187.962 177.372 186.556 177.551 186.401C178.049 185.962 178.605 186.025 179.11 186.125C179.295 186.163 179.087 187.071 179.253 187.094C180.237 187.251 181.26 187.164 182.221 186.663C182.402 186.568 182.288 185.869 182.326 185.709C182.585 184.592 182.966 186.115 183.054 186.261C183.452 186.923 183.607 186.305 183.958 186.421C185.677 186.995 187.799 186.586 189.421 186.333C191.534 186.007 193.175 185.342 195.19 185.515C195.318 185.525 195.189 186.455 195.3 186.475C196.725 186.7 198.129 186.336 199.558 186.605C199.675 186.625 199.506 187.507 199.694 187.569C200.08 187.703 200.569 187.655 200.959 187.374C201.15 187.238 200.894 186.482 201.086 186.361C201.532 186.077 202.01 186.014 202.468 186.156C202.663 186.218 202.369 187.119 202.623 187.13C204.349 187.219 206.045 187.374 207.79 186.207C207.909 186.127 208.014 184.294 208.268 184.646C208.288 185.154 208.287 185.752 208.295 186.296C210.808 186.589 213.296 185.954 215.817 185.855C215.923 185.851 215.739 186.822 215.945 186.82C217.136 186.805 218.292 187.074 219.51 186.109C219.631 186.015 219.569 184.307 219.925 184.565C219.988 184.612 220.524 184.84 220.663 185.211C220.682 185.267 220.584 186.064 220.757 186.087C221.761 186.208 222.814 186.026 223.816 185.539C223.978 185.459 223.806 184.61 223.921 184.546C224.739 184.095 225.628 184.74 226.409 183.969C226.932 183.45 226.739 181.983 227.017 180.538C227.056 180.334 227.38 180.302 227.397 179.461C227.44 177.348 227.283 175.033 227.347 172.78C227.361 172.295 227.794 172.818 227.538 171.645C227.52 171.567 227.205 171.177 227.128 170.78C227.074 170.505 227.171 169.65 227.061 169.298C226.951 168.946 226.83 169.663 226.648 169.249C226.465 168.83 226.546 167.858 226.181 167.743ZM126.456 181.252C126.743 180.435 126.786 183.426 126.475 182.711C126.459 182.673 126.441 181.292 126.456 181.252ZM91.3421 179.505C91.8586 178.235 91.9035 180.191 91.5292 181.175C91.1554 182.158 91.1851 179.89 91.3421 179.505ZM87.5869 178.141C88.1251 177.15 87.7665 181.376 87.3926 180.477C87.3707 180.426 87.5556 178.199 87.5869 178.141ZM225.728 180.127C225.732 180.087 225.965 180.048 225.97 180.088C226.094 181.037 225.629 181.114 225.728 180.127ZM83.8591 176.758C84.0389 176.196 84.3787 176.887 84.154 177.585C83.9745 178.146 83.6369 177.457 83.8591 176.758ZM141.472 178.06C141.476 178.015 141.643 177.975 141.64 178.227C141.628 179.039 141.396 178.81 141.472 178.06ZM77.3631 176.419C78.3118 176.268 79.0023 172.78 77.9036 173.157C77.7069 173.225 78.3082 174.28 78.0549 174.592C77.5997 175.161 77.3133 172.958 76.8441 174.137C76.7632 174.352 77.3116 176.435 77.3648 176.424C77.3642 176.422 77.3637 176.421 77.3631 176.419ZM126.621 177.66C126.627 177.62 126.858 177.583 126.864 177.622C126.989 178.571 126.523 178.647 126.621 177.66ZM151.21 176.211C151.223 176.126 151.759 176.047 151.776 176.125C152.056 177.678 150.972 177.842 151.21 176.211ZM111.062 175.471C110.81 174.516 110.509 174.403 110.308 175.603C110.558 175.539 110.81 175.53 111.062 175.471Z" fill="white"/>
<path d="M212.214 229.898C211.279 229.637 210.053 229.916 209.121 230.298C208.829 230.417 208.977 230.947 208.775 231.052C208.381 231.258 208.014 230.999 207.624 231.244C207.495 231.328 207.656 232.168 207.521 232.236C206.779 232.608 206.077 232.394 205.325 232.572C201.624 233.453 197.985 233.768 194.238 234.151C193.002 234.276 191.5 235.038 190.224 234.705C190.075 234.665 190.164 233.928 190.136 233.867C189.691 232.937 189.839 234.425 189.549 234.623C188.397 235.403 187.116 235.471 186.007 235.187C185.535 235.064 186.008 233.6 185.533 234.422C185.5 234.477 185.62 235.26 185.491 235.343C185.197 235.531 184.641 235.391 184.413 235.453C183.975 235.576 183.903 235.569 183.488 235.578C182.922 235.597 182.248 235.986 181.64 235.808C181.51 235.768 181.682 234.966 181.475 234.829C181.268 234.693 180.72 234.761 180.536 234.95C180.351 235.139 180.429 235.77 180.397 235.914C180.128 237.134 179.494 235.445 179.412 235.403C177.926 234.691 176.651 235.653 175.255 235.651C174.196 235.647 173.063 235.329 172.055 235.372C170.853 235.427 169.836 235.862 168.669 235.787C168.546 235.781 168.69 234.837 168.54 234.827C166.942 234.717 165.355 234.82 163.764 235.457C163.604 235.521 163.81 236.35 163.651 236.464C162.675 237.144 161.13 238.779 160.551 235.173C159.89 235.314 159.087 235.46 158.495 236.187C158.114 236.654 158.485 237.557 158.016 237.172C157.91 237.086 158.048 236.296 157.889 236.227C157.222 235.938 156.494 236.195 155.834 235.786C155.699 235.701 155.736 234.993 155.698 234.866C155.378 233.833 154.846 235.54 154.73 235.664C153.847 236.589 153.202 236.225 152.379 236.248C152.188 236.253 152.414 235.302 152.23 235.274C151.277 235.137 150.29 235.219 149.357 235.641C149.149 235.737 149.34 236.547 149.241 236.635C148.804 237.01 148.707 235.48 148.287 235.811C148.199 235.878 148.249 236.572 148.232 236.648C147.98 237.844 147.761 236.15 147.696 236.112C146.874 235.601 146.349 237.37 145.556 237.119C145.461 237.088 145.675 236.21 145.408 236.174C143.631 235.932 141.75 236.173 139.991 236.875C139.717 236.983 139.913 237.642 139.895 237.723C139.615 238.993 139.433 237.292 139.344 237.228C138.64 236.767 137.983 238.193 137.505 236.167C134.524 236.87 131.557 235.732 128.602 237.548C128.564 237.569 128.631 238.407 128.556 238.445C127.654 238.915 127.827 237.613 127.23 236.021C127.079 235.621 126.621 237.543 126.581 237.684C126.433 238.204 126.586 239.45 126.537 239.551C126.128 240.341 126.195 236.218 125.643 236.217C125.626 236.224 125.698 236.983 125.652 237.058C125.508 237.295 125.365 236.994 125.225 237.255C124.903 237.859 124.788 239.862 124.296 238.696C124.234 238.545 124.329 236.207 123.836 236.317C123.64 236.363 122.771 236.323 122.527 236.475C122.284 236.626 122.451 237.38 122.434 237.412C121.778 238.409 122.027 238.822 121.698 240.297C121.37 241.766 121.461 238.261 121.327 237.87C121.193 237.48 120.712 238.302 120.594 238.588C120.476 238.874 120.623 239.352 120.518 239.514C119.823 240.571 120.213 237.774 119.984 237.218C119.443 235.901 119.022 238.5 118.527 238.755C118.393 238.824 118.502 238.232 118.383 238.176C117.911 237.965 117.627 238.776 117.089 238.032C117.002 237.911 116.567 236.348 116.286 237.495C116.246 237.661 116.359 238.308 116.158 238.453C115.857 238.671 115.315 238.813 114.992 238.596C114.754 238.436 115.027 237.369 114.727 237.7C114.593 237.848 114.841 238.473 114.59 238.699C114.34 238.925 113.703 238.897 113.46 238.876C113.218 238.854 113.35 238.044 113.331 237.99C113.212 237.677 112.747 237.287 112.706 237.288C110.633 237.189 108.722 238.554 106.704 238.102C106.546 238.068 106.651 237.214 106.627 237.2C106.085 236.842 106.512 239.112 106.134 239.872C106.188 238.139 105.965 238.453 105.583 238.263C105.399 238.17 105.499 237.499 105.482 237.431C105.209 236.412 105.019 237.728 104.971 237.997C104.79 238.987 104.593 237.817 104.47 238.479C104.347 239.136 104.63 240.11 104.264 240.098C104.161 239.478 104.433 237.857 104.155 237.594C103.106 236.601 101.147 237.872 100.304 238.004C99.4619 238.136 99.19 238.022 98.6994 238.246C97.8133 238.651 98.138 237.449 97.5878 236.898C97.0359 236.348 97.3042 239.307 97.2249 239.943C97.147 240.578 97.062 239.924 96.9651 240.274C96.8686 240.623 97.0776 241.055 96.8505 241.187C96.6233 241.318 96.0022 240.187 95.9216 239.522C95.7514 238.113 96.0313 236.634 95.4301 237.153C95.3955 237.184 95.5078 237.962 95.3754 238.041C94.3238 238.64 93.2315 238.677 92.1812 239.207C92.0368 239.281 92.1659 240.146 92.0819 240.199C91.2065 240.753 91.5195 239.293 91.0397 237.672C91.1474 239.83 90.8821 241.149 90.2178 241.162C89.8184 241.171 89.8872 240.228 89.6288 239.564C89.5513 239.364 89.2688 240.011 89.2175 239.568C89.0487 238.119 89.3149 236.498 88.6299 237.144C88.5999 237.174 88.6955 237.967 88.5917 238.015C87.9205 238.33 87.8402 236.814 87.1147 236.631C86.546 236.487 85.5345 237.411 84.887 237.561C84.9006 239.987 84.2889 239.431 84.0408 237.759C83.6206 237.827 83.1667 237.733 82.7605 237.964C82.6207 238.043 82.7126 238.745 82.6949 238.821C82.4246 240.011 82.2419 238.384 82.1512 238.32C81.1681 237.7 80.3671 238.934 79.4288 237.728C79.3956 237.685 79.3416 236 79.0908 237.23C79.0746 237.315 79.3844 238.082 78.9431 238.141C78.5016 238.2 77.6695 239.104 77.0566 238.323C76.9083 238.135 76.5332 236.767 76.2322 237.836C76.1921 237.981 76.2359 238.464 76.178 238.733C75.9908 239.59 75.8887 237.887 75.6687 239.334C75.4487 240.78 74.9912 241.864 74.3731 240.866C74.3534 240.837 74.2071 239.487 74.0128 239.508C73.7025 239.543 73.262 239.825 72.9381 239.816C72.7829 239.811 72.8822 238.973 72.8553 238.958C71.8123 238.488 71.0701 239.235 69.9527 239.559C69.7479 239.621 69.1593 238.478 68.7628 239.381C68.3274 240.37 68.7748 244.485 67.7741 243.505C67.3705 243.113 66.8594 237.892 66.134 240.597C64.7272 239.927 63.4262 241.311 62.0155 240.354C61.9521 240.312 61.7514 238.855 61.6023 238.875C61.3808 238.907 61.2593 239.588 61.1012 239.633C60.4387 239.838 59.8325 239.255 59.1938 239.346C58.9513 239.379 59.036 240.083 58.7468 240.122C58.4577 240.161 58.2651 239.234 57.8733 239.682C57.5775 240.023 57.2817 241.918 56.889 242.139C56.8741 240.269 56.6044 240.308 56.125 239.815C56.0329 239.719 56.1317 239.068 56.0881 238.989C55.9108 238.654 55.7466 239.193 55.5782 238.828C55.5371 238.741 55.5352 238.102 55.5018 237.994C55.2169 237.054 54.7477 238.49 54.6671 238.74C54.3582 239.69 54.2138 238.86 53.9769 239.234C53.7404 239.607 54.0941 240.075 53.8178 240.302C53.2451 240.771 52.5092 240.668 51.9275 240.697C51.6954 240.705 51.8538 239.853 51.8206 239.834C51.3407 239.618 50.8554 240.524 50.5892 238.827C50.2565 243.216 50.2999 238.401 49.6139 239.28C49.5598 239.351 49.4911 241.426 49.6986 241.731C49.906 242.035 50.2206 241.387 50.5084 241.862C50.5766 241.973 50.967 243.918 51.0203 244.036C51.4376 244.956 51.4967 241.855 51.5188 241.685C51.7691 239.846 52.2463 241.942 52.3719 242.086C52.9467 242.75 53.4351 242.313 53.9158 242.787C54.2303 243.093 54.261 245.125 54.5079 245.062C55.3287 244.857 55.6152 242.023 56.3886 244.48C56.5545 245.004 56.3896 247.225 56.9839 245.479C57.0212 245.369 57.4625 243.771 57.7173 244.782C57.7494 244.909 57.7483 245.556 57.7906 245.61C58.0735 245.962 58.2622 245.447 58.5705 245.693C58.8787 245.94 59.2493 246.308 59.6012 246.089C59.8133 245.958 60.0854 244.752 60.187 244.457C60.4736 243.607 60.781 245.001 60.9586 243.971C61.1377 242.936 60.7876 241.365 61.2572 240.696C61.2746 242.377 61.3145 244.103 61.3425 245.794C62.3717 245.734 63.3843 245.191 64.4169 245.265C64.545 245.276 64.4141 246.18 64.5513 246.215C65.1303 246.358 65.6361 245.714 66.2365 245.971C66.7014 246.173 67.211 247.13 67.697 247.371C67.9939 245.447 68.7151 246.1 69.239 245.924C69.4225 245.863 69.4103 245.35 69.5408 245.182C70.0332 244.562 69.8025 246.262 69.9375 246.53C70.5166 247.671 70.5662 243.823 71.249 243.919C71.2851 243.922 71.7274 245.973 71.7882 246.101C72.1752 246.934 71.8523 245.387 72.0945 245.236C72.5367 244.959 72.8439 244.469 73.3627 245.07C73.514 245.248 73.8769 246.526 74.1706 245.537C74.2093 245.408 74.1879 244.73 74.219 244.69C74.7821 244.028 74.7969 246.158 75.1186 246.88C75.4404 247.601 75.9375 246.131 76.0386 245.707C76.3032 244.61 75.8358 245.238 75.8215 245.131C75.6532 243.85 76.0156 244.071 76.2926 243.962C76.3327 241.874 76.7201 241.999 76.5798 243.859C76.5638 244.062 76.3483 243.867 76.2926 243.962C76.5358 246.012 76.9615 246.274 77.4316 244.359C77.6517 243.462 77.4437 242.415 78.1122 242.798C78.4156 242.971 78.2984 244.409 78.5662 244.801C79.1779 245.696 79.9728 244.354 80.6035 244.566C80.8324 244.642 80.6094 245.43 80.7658 245.509C81.181 245.723 81.5471 245.132 81.9641 245.435C82.0018 245.463 81.9095 246.287 82.0392 246.298C83.0221 246.393 83.8779 245.866 84.9042 245.851C85.4 245.844 86.2865 246.299 86.8001 246.207C87.6904 246.054 88.7856 244.855 89.5461 245.147C90.0421 245.333 89.9333 246.157 90.1458 246.719C90.5559 247.807 91.2819 245.857 91.3797 245.556C91.3826 245.546 90.9558 245.351 91.1836 244.928C91.316 244.046 91.3748 245.552 91.3797 245.556C91.4438 245.36 92.2965 245.173 92.4658 245.331C92.5578 245.417 92.5064 246.198 92.5543 246.228C93.6945 246.927 94.8366 247.125 95.9929 246.76C96.0133 246.745 95.9826 245.871 96.0305 245.845C96.7 245.456 97.1286 246.525 97.6807 247.16C98.2328 247.794 98.6706 247.581 98.9973 246.082C99.4139 246.27 100.011 245.607 100.355 245.205C100.699 244.803 100.747 246.503 100.777 246.537C101.721 247.613 102.267 246.64 103.246 246.488C103.711 246.413 104.635 246.66 105.139 246.846C105.537 246.996 105.777 246.597 106.144 246.852C106.194 246.886 106.143 247.643 106.159 247.672C106.568 248.578 106.371 246.727 106.456 246.397C106.762 245.194 106.952 244.554 107.476 245.12C107.597 245.249 107.95 247.914 108.17 248.07C108.457 248.268 108.349 247.313 108.649 247.544C108.675 247.563 108.67 248.152 108.855 248.126C109.715 248.013 110.653 247.671 111.547 247.73C111.669 247.735 111.512 248.67 111.689 248.694C112.516 248.805 113.424 248.77 114.23 248.333C114.429 248.222 114.304 247.567 114.347 247.373C114.612 246.197 114.987 247.906 115.049 247.938C116.525 248.759 117.656 247.213 119.16 247.949C119.242 247.993 119.873 249.824 120.154 248.253C120.174 248.149 120.452 246.542 120.698 247.64C120.713 247.709 120.54 248.537 120.843 248.452C121.145 248.368 121.632 248.921 122.048 248.012C122.18 247.725 122.491 246.122 122.884 247.4C122.91 247.489 123.517 250.379 123.733 248.385C123.768 248.057 123.731 245.947 124.2 247.029C124.29 247.239 124.127 247.709 124.363 248.003C124.725 248.456 125.204 247.891 125.649 248.831C125.726 248.997 126.056 250.429 126.321 249.342C126.363 249.172 126.284 248.468 126.424 248.389C127.088 248.011 127.785 248.482 128.46 247.994C128.699 247.823 128.576 246.685 128.826 246.379C129.075 246.074 129.577 245.781 129.838 246.301C130.099 246.822 129.814 248.637 130.205 248.782C131.904 249.412 133.587 248.348 135.283 248.192C135.535 248.169 135.326 248.818 135.697 248.831C137.064 248.879 139.425 249.488 140.611 248.108C141.561 247.003 140.365 246.161 141.092 245.712C141.442 245.497 141.821 247.607 141.906 247.673C142.733 248.348 143.307 247.414 144.051 247.7C144.204 247.76 144.054 248.615 144.185 248.656C144.631 248.804 145.101 248.423 145.527 248.493C145.719 248.526 145.683 249.179 145.86 249.128C146.281 249.015 146.654 248.741 147.065 248.129C147.102 248.073 146.85 247.261 147.162 247.23C147.666 247.184 148.293 246.58 148.874 247.203C149.046 247.391 149.053 248.884 149.423 247.853C149.501 247.638 149.402 245.845 149.833 247.394C149.906 247.651 150.63 249.74 150.986 248.394C151.08 248.039 151.319 246.573 151.527 246.803C151.555 246.84 151.442 247.642 151.614 247.72C152.219 247.981 152.853 247.896 153.475 248.147C153.641 248.216 153.394 249.045 153.641 249.121C154.321 249.331 155.171 249.12 155.836 248.86C156.081 248.763 155.912 248.075 155.93 248.001C156.217 246.784 156.386 248.426 156.482 248.522C157.074 249.095 157.525 248.324 158.071 248.528C158.222 248.582 158.115 249.365 158.145 249.435C158.456 250.117 158.225 248.711 158.422 248.556C158.973 248.117 159.588 248.18 160.146 248.28C160.351 248.318 160.121 249.226 160.305 249.249C161.393 249.406 162.525 249.319 163.588 248.818C163.788 248.723 163.662 248.024 163.703 247.864C163.991 246.747 164.412 248.27 164.509 248.416C164.949 249.078 165.121 248.46 165.51 248.576C167.41 249.15 169.757 248.741 171.552 248.488C173.89 248.162 175.704 247.497 177.933 247.67C178.075 247.68 177.932 248.61 178.054 248.63C179.632 248.855 181.184 248.491 182.764 248.76C182.894 248.78 182.707 249.662 182.915 249.724C183.342 249.858 183.883 249.81 184.315 249.529C184.525 249.393 184.243 248.637 184.455 248.516C184.948 248.232 185.477 248.169 185.984 248.311C186.2 248.373 185.874 249.274 186.155 249.285C188.065 249.374 189.94 249.529 191.87 248.362C192.002 248.282 192.118 246.449 192.4 246.801C192.421 247.309 192.42 247.907 192.429 248.451C195.209 248.744 197.961 248.109 200.749 248.01C200.867 248.006 200.663 248.977 200.891 248.975C202.208 248.96 203.487 249.229 204.834 248.264C204.968 248.17 204.9 246.462 205.293 246.72C205.363 246.767 205.956 246.995 206.11 247.366C206.131 247.422 206.022 248.219 206.213 248.242C207.325 248.363 208.489 248.181 209.598 247.694C209.777 247.614 209.586 246.765 209.714 246.701C210.618 246.25 211.602 246.895 212.466 246.124C213.045 245.605 212.83 244.138 213.138 242.693C213.181 242.489 213.539 242.457 213.558 241.616C213.606 239.503 213.432 237.188 213.503 234.935C213.518 234.45 213.998 234.973 213.714 233.8C213.694 233.722 213.346 233.332 213.261 232.935C213.201 232.66 213.309 231.805 213.187 231.453C213.065 231.101 212.931 231.818 212.73 231.404C212.528 230.985 212.617 230.013 212.214 229.898ZM101.904 243.407C102.222 242.59 102.269 245.581 101.925 244.866C101.908 244.828 101.887 243.447 101.904 243.407ZM63.3786 242.935C63.7948 241.615 64.0797 243.555 63.786 244.574C63.4924 245.592 63.2517 243.335 63.3786 242.935ZM59.062 241.972C59.5485 240.931 59.6251 245.173 59.104 244.315C59.0737 244.267 59.0335 242.032 59.062 241.972ZM211.712 242.282C211.717 242.242 211.974 242.203 211.98 242.243C212.117 243.192 211.603 243.269 211.712 242.282ZM54.7785 240.923C54.9303 240.349 55.3677 241.012 55.179 241.725C55.0271 242.299 54.5893 241.637 54.7785 240.923ZM118.514 240.215C118.519 240.17 118.703 240.13 118.7 240.382C118.687 241.194 118.43 240.965 118.514 240.215ZM47.4982 240.874C48.5739 240.714 49.2261 237.211 48.0547 237.606C47.8426 237.678 48.5119 238.724 48.2419 239.039C47.7478 239.615 47.4198 237.415 46.9157 238.594C46.8244 238.81 47.4369 240.891 47.5002 240.879C47.4995 240.877 47.4989 240.876 47.4982 240.874ZM102.087 239.815C102.093 239.775 102.349 239.738 102.355 239.777C102.493 240.726 101.979 240.802 102.087 239.815ZM129.285 238.366C129.299 238.281 129.892 238.202 129.912 238.28C130.221 239.833 129.022 239.997 129.285 238.366ZM84.8768 237.626C84.5979 236.671 84.2644 236.558 84.0421 237.758C84.3192 237.694 84.5981 237.685 84.8768 237.626Z" fill="white"/>
</svg>
