<svg width="181" height="313" viewBox="0 0 181 313" fill="none" xmlns="http://www.w3.org/2000/svg">
<path d="M97.2737 35.5084C94.4618 35.965 90.9042 35.4012 88.2844 34.6822C87.4623 34.4592 87.8829 33.4803 87.3159 33.283C86.2064 32.899 85.1865 33.3818 84.1106 32.9364C83.7532 32.7841 84.1838 31.2269 83.8076 31.103C81.744 30.4363 79.837 30.8741 77.8151 30.6302C72.8283 30.029 68.0494 29.948 63.4218 30.4295C58.7408 30.9953 54.3442 31.6511 52.1813 33.0342C50.3387 34.068 46.8058 35.7783 45.3972 38.7381C45.2348 39.0802 46.4637 39.7121 46.5126 39.835C47.2667 41.7188 45.2517 39.8116 44.5273 40.2044C41.638 41.8116 39.8501 44.5724 38.7333 47.7196C38.2725 49.0243 41.3037 49.1368 39.3126 49.6C39.177 49.6335 38.0746 48.6337 37.76 48.8851C37.0483 49.4567 36.5113 50.9828 36.103 51.5002C35.3118 52.4887 35.2255 52.6814 34.6661 53.7088C33.8916 55.1068 32.3914 56.4661 31.9537 58.1281C31.8651 58.483 33.4061 58.703 33.3895 59.3215C33.3709 59.9393 32.6348 61.225 32.1136 61.5358C31.5902 61.8464 30.6119 61.178 30.3313 61.1502C27.9605 60.9153 30.1491 63.7596 30.1457 63.9785C29.8581 68.1352 27.115 70.7488 26.1656 74.3479C25.4008 77.2377 25.5056 79.8933 25.203 82.3871C24.84 85.3249 24.0486 87.9319 24.4387 90.9199C24.4792 91.2328 26.1848 90.7149 26.238 91.086C26.8119 95.0248 27.4298 98.9095 27.5547 103.198C27.5674 103.631 25.9429 103.582 25.8718 104.051C25.4188 106.862 24.3759 112.229 31.0858 110.763C31.5759 112.428 32.2981 114.385 31.919 116.418C31.6805 117.732 29.7357 117.718 31.003 118.458C31.2875 118.623 32.3485 117.552 32.6764 117.848C34.0475 119.08 34.7458 120.981 36.3371 121.882C36.6664 122.067 37.6603 121.207 37.9054 121.142C39.8837 120.615 38.2583 123.666 38.2937 124.072C37.8657 126.274 39.5928 126.849 41.1882 127.99C41.5709 128.263 42.1036 126.499 42.4953 126.698C44.5075 127.745 46.7799 129.156 48.8339 131.184C49.2726 131.63 48.0655 132.675 48.2385 132.955C49.0125 134.174 50.6148 131.824 51.3795 132.935C51.5427 133.166 50.8065 134.226 50.7802 134.372C50.3695 136.665 52.4131 134.204 52.6073 134.229C55.1176 134.497 54.9353 138.09 57.1787 138.695C57.4465 138.762 57.6284 137.04 58.3326 137.316C63.0919 139.181 67.281 141.488 71.7859 144.398C72.4616 144.848 71.5262 145.811 71.5226 145.969C71.5095 148.455 73.0468 145.656 73.3256 145.627C75.5098 145.48 76.4927 148.584 78.935 145.429C86.6753 149.259 94.9054 149.142 102.69 153.109C102.792 153.156 102.484 154.687 102.69 154.773C105.189 155.817 104.884 153.372 106.554 150.478C106.956 149.75 108.152 153.316 108.28 153.574C108.695 154.533 108.276 156.841 108.417 157.026C109.632 158.476 109.338 150.86 110.746 150.804C110.792 150.815 110.663 152.225 110.792 152.359C111.195 152.781 111.543 152.205 111.949 152.664C112.876 153.725 113.568 157.397 114.77 155.11C114.914 154.811 114.228 150.55 115.556 150.587C116.104 150.614 118.285 150.156 118.908 150.291C119.548 150.435 119.43 151.89 119.482 151.94C121.543 153.35 121.086 154.24 122.704 156.636C124.392 158.989 122.36 152.82 122.494 152.027C122.627 151.239 124.326 152.288 124.821 152.671C125.309 153.06 125.207 154.035 125.592 154.217C128.176 155.358 125.296 150.897 125.501 149.719C125.892 146.948 128.782 150.924 130.29 150.71C130.685 150.656 129.923 149.812 130.171 149.572C131.14 148.641 132.583 149.565 133.164 147.618C133.275 147.293 132.707 144.249 134.49 145.61C134.75 145.804 135.148 146.98 135.765 146.89C136.69 146.761 138.102 146.074 138.583 145.199C138.935 144.555 137.127 143.457 138.154 143.436C138.613 143.423 138.783 144.76 139.597 144.65C140.413 144.544 141.78 143.326 142.264 142.833C142.752 142.342 141.466 141.482 141.441 141.369C141.303 140.72 141.737 139.327 141.814 139.251C145.693 135.285 151.03 132.591 153.335 127.269C153.514 126.857 152.011 126.286 152.024 126.215C152.227 124.599 155.214 127.784 156.986 127.546C154.139 126.064 154.968 125.809 155.185 124.695C155.286 124.157 154.062 123.807 153.973 123.704C152.68 122.145 155.062 122.842 155.571 122.945C157.432 123.34 155.76 121.854 157.008 122.095C158.253 122.32 159.499 123.868 159.957 122.888C159.056 122.118 156.027 121.488 155.93 120.578C155.566 117.217 159.665 113.129 160.581 110.876C161.507 108.689 161.477 107.893 162.212 106.651C163.51 104.387 161.132 104.78 160.429 103.12C159.704 101.474 164.954 103.154 166.153 103.141C167.352 103.12 166.202 102.663 166.887 102.487C167.572 102.307 168.259 103.062 168.61 102.42C168.967 101.764 167.146 99.6148 165.945 99.2528C163.411 98.4717 160.615 98.9278 161.736 97.4444C161.802 97.3567 163.206 97.7889 163.386 97.4411C164.788 94.6567 164.837 91.4454 165.817 88.362C165.954 87.9384 167.555 88.3171 167.653 88.0707C168.677 85.5034 165.977 86.4211 162.978 85.014C166.969 85.33 169.411 84.5519 169.435 82.6035C169.45 81.4322 167.707 81.6339 166.478 80.8763C166.108 80.649 167.305 79.8202 166.485 79.6701C163.805 79.1749 160.806 79.9555 162 77.9466C162.057 77.8585 163.524 78.1391 163.613 77.8346C164.194 75.8661 161.391 75.6305 161.052 73.5027C160.776 71.7283 162.553 69.2438 162.548 67.5746C167.008 67.0038 165.684 65.3116 162.511 65.3385C162.398 64.2097 161.913 63.0498 162.01 61.8352C162.041 61.4165 163.361 61.305 163.482 61.2184C165.38 59.8517 162.337 60.1951 162.15 59.9859C160.227 57.6101 161.654 54.7656 158.728 52.562C158.626 52.4929 155.56 53.0988 157.576 51.8269C157.715 51.7405 159.318 52.2375 159.092 50.9806C158.874 49.7471 159.801 46.9501 157.863 45.7763C157.394 45.4788 154.686 45.4155 156.231 43.9496C156.44 43.7493 157.317 43.5339 157.719 43.1995C158.989 42.1072 155.978 43.0653 158.188 41.4354C160.4 39.8162 161.582 37.5264 159.01 36.7186C158.93 36.6865 156.548 37.5424 156.297 37.0547C155.895 36.2599 155.603 34.9027 155.001 34.1569C154.713 33.8023 153.674 34.9911 153.604 34.9476C151.152 33.2935 150.719 30.9766 148.279 28.733C147.826 28.3082 145.331 29.3869 145.079 27.3697C144.792 25.1594 149.484 19.0074 145.969 19.2458C144.535 19.3307 138.917 27.3109 139.191 21.8887C134.935 21.2185 132.409 17.2971 127.838 17.4498C127.631 17.455 126.136 19.7721 125.748 19.5913C125.171 19.3161 125.263 18.0119 124.853 17.7799C123.142 16.7789 121.124 17.2679 119.395 16.6058C118.734 16.3582 119.318 15.1666 118.51 14.8758C117.695 14.5886 116.746 16.1164 115.821 15.0555C115.129 14.2519 114.964 10.632 113.813 10.0068C113.149 13.4027 112.355 13.1757 110.833 13.8782C110.542 14.0157 110.667 15.2491 110.523 15.3761C109.944 15.9207 109.597 14.8706 109.037 15.486C108.901 15.6337 108.766 16.8071 108.647 16.9942C107.517 18.6185 106.452 15.7621 106.297 15.2711C105.678 13.3987 105.006 14.8479 104.439 14.0618C103.855 13.2737 105.019 12.5754 104.269 12.0376C102.733 10.9268 100.527 10.8179 98.7944 10.5965C98.101 10.5154 98.428 12.1306 98.3256 12.1555C96.9128 12.421 95.5048 10.6731 94.6768 13.7997C93.8152 5.67646 93.8302 14.5314 91.9348 13.0324C91.7845 12.9141 91.1855 9.10728 91.8481 8.49123C92.536 7.87632 93.5966 9.04546 94.5318 8.18222C94.7346 7.97431 96.1677 4.42405 96.3766 4.22012C97.9246 2.59924 97.6739 8.34958 97.7134 8.66623C98.1962 12.1124 99.9761 8.40229 100.413 8.18505C102.322 7.17071 103.696 8.18671 105.247 7.53532C106.256 7.11613 106.916 3.41614 107.624 3.64184C109.904 4.39494 109.555 9.5478 112.891 5.45907C113.585 4.59099 113.768 0.439279 115.233 3.98564C115.338 4.21011 116.189 7.38442 117.4 5.74069C117.554 5.53336 117.81 4.36366 117.971 4.29659C119.053 3.87257 119.453 4.94838 120.566 4.76083C121.678 4.57393 123.076 4.25262 124.087 4.97767C124.703 5.41338 124.891 7.80952 125.031 8.42821C125.42 10.2027 127.166 8.07045 127.083 10.0577C126.98 12.0494 125.028 14.4448 125.942 16.0786C127.033 13.1655 128.223 10.2005 129.365 7.28708C132.486 8.52374 135.084 10.6751 138.09 11.8608C138.465 12.0057 138.769 10.3107 139.192 10.4287C140.977 10.9378 141.906 12.6877 143.79 13.0699C145.25 13.3601 147.455 12.4787 149.001 12.7639C148.204 16.3492 150.73 16.2926 151.966 17.3141C152.407 17.6741 151.885 18.4716 152.165 18.9733C153.222 20.8707 154.031 17.7316 154.783 17.5962C158.335 17.3243 154.47 23.3058 156.543 24.8009C156.629 24.8511 160.536 23.2818 160.916 23.3395C163.206 23.4553 160.187 24.4687 160.686 25.3921C161.573 27.0967 161.608 28.5557 163.697 29.5789C164.298 29.8542 167.129 29.8453 166.145 31.7913C166.015 32.043 164.891 32.6048 164.886 32.7432C164.854 35.1571 168.319 33.3447 170.092 33.9134C171.868 34.503 170.123 37.3554 169.519 37.9639C167.994 39.6015 168.444 37.625 168.235 37.6522C165.822 38.035 166.7 39.0395 166.851 39.9841C163.305 41.5196 163.945 42.5707 167.014 40.9543C167.349 40.7734 166.755 40.2228 166.851 39.9841C170.68 39.3633 171.708 40.7464 168.816 43.3179C167.454 44.5131 165.423 44.4626 166.705 46.2538C167.279 47.069 169.73 45.972 170.666 46.6109C172.831 48.2102 170.886 50.5742 171.823 52.2233C172.153 52.7992 173.353 51.7609 173.626 52.1384C174.357 53.1447 173.65 54.5137 174.567 55.5866C174.652 55.6843 176.023 54.9563 176.162 55.342C177.24 58.292 177.163 61.4028 177.736 65.448C178.066 67.3706 178.952 71.3824 178.768 72.5803C178.484 75.1912 176.267 78.4031 176.806 80.6336C177.15 82.0883 178.675 81.7691 179.714 82.3925C181.728 83.5953 178.121 85.7244 177.562 86.0111C177.544 86.0199 177.184 84.7681 176.401 85.436C174.77 85.8244 177.555 85.997 177.562 86.0111C177.201 86.1994 176.855 88.7001 177.147 89.1966C177.306 89.4664 178.751 89.3155 178.806 89.4561C180.121 92.5706 180.426 96.9393 179.214 101.073C179.176 101.142 177.586 100.839 177.517 101C176.511 103.211 178.225 104.906 179.004 107.047C179.779 109.177 179.02 110.647 176.057 111.042C176.049 112.509 174.304 114.137 173.251 114.995C172.2 115.854 175.132 116.987 175.159 117.108C176.008 120.824 173.624 122.015 172.04 124.94C171.283 126.338 170.322 129.368 169.798 131.06C169.393 132.404 168.347 132.761 168.119 134.089C168.087 134.269 169.383 134.826 169.403 134.899C170.113 136.995 167.521 134.646 166.848 134.581C164.399 134.332 163.095 134.206 163.016 136.237C163.005 136.693 166.417 140.455 166.19 141.279C165.9 142.326 164.685 140.988 164.412 142.094C164.387 142.187 165.281 142.815 164.848 143.319C162.844 145.672 160.225 147.838 158.106 150.246C157.812 150.573 159.461 151.347 159.048 151.847C157.101 154.195 154.563 156.476 151.727 157.76C151.027 158.069 150.619 156.838 150.269 156.659C148.169 155.568 149.054 158.875 148.893 159.071C145.35 163.615 140.214 163.414 135.634 166.991C135.418 167.186 134.396 171.303 132.308 168.973C132.156 168.825 130.168 166.397 129.952 168.616C129.935 168.756 131.076 169.988 129.9 170.218C128.755 170.438 127.097 172.004 124.986 170.788C124.304 170.41 122.526 167.791 121.465 170.397C121.429 170.582 119.833 176.274 118.586 172.707C118.386 172.118 118.033 168.245 116.676 170.41C116.417 170.827 117.048 171.638 116.326 172.258C115.216 173.213 113.391 172.309 111.758 174.117C111.479 174.438 110.304 177.132 109.293 175.133C109.138 174.82 109.405 173.514 108.9 173.373C106.515 172.697 104.004 173.485 101.697 172.415C100.886 172.037 101.469 169.97 100.676 169.337C99.8796 168.706 98.2846 167.995 97.3048 168.842C96.3158 169.689 96.8636 173.145 95.4778 173.234C89.4055 173.592 84.1858 170.402 78.9844 168.661C78.2089 168.4 78.5377 169.742 77.3684 169.433C73.0507 168.321 65.5826 166.984 63.0658 163.353C61.058 160.456 65.0167 160.231 63.1893 158.684C62.2786 157.928 59.615 161.072 59.3089 161.081C56.2353 161.192 55.1812 158.831 52.7805 158.305C52.2825 158.194 52.0578 159.835 51.6385 159.723C50.1972 159.352 49.1415 158.054 47.867 157.563C47.2933 157.345 46.852 158.475 46.3908 158.138C45.2837 157.345 44.4669 156.351 43.8594 154.753C43.8051 154.608 45.1958 153.641 44.3677 153.142C43.023 152.337 41.8716 150.448 39.772 150.613C39.1462 150.665 37.7851 153.069 37.7316 150.861C37.7229 150.401 39.5749 147.636 37.0892 149.535C36.7007 149.865 32.8033 152.126 32.9471 149.323C32.9914 148.59 33.6645 145.839 32.8213 145.822C32.6991 145.827 32.2746 147.308 31.6655 147.103C29.5199 146.342 27.5006 144.818 24.9537 143.281C24.2612 142.857 24.192 144.824 23.1567 144.111C21.8393 143.245 19.6857 141.029 18.7975 139.688C18.0932 138.637 17.4324 137.415 16.8798 136.25C16.4772 135.389 17.8831 135.161 17.954 135.023C19.1551 132.843 16.3292 134.093 15.9777 133.895C13.8824 132.716 14.2068 130.567 12.8854 129.095C12.5229 128.682 11.4732 129.751 11.3068 129.724C9.64174 129.383 12.3117 128.793 12.205 128.04C11.9196 125.926 10.8 124.073 9.76003 122.367C9.3767 121.74 8.22729 123.218 7.89806 122.637C5.91958 119.204 4.50763 115.257 4.1943 111.299C4.13901 110.553 5.51124 110.592 5.74636 110.359C7.40394 108.771 4.29038 108.169 3.93402 107.89C2.32109 106.68 3.26933 105.77 2.73219 104.448C0.0362206 97.9441 -0.0737438 88.8831 0.892308 82.1006C2.1342 72.9029 5.20092 67.2375 7.36309 59.9951C7.50938 59.5344 5.72488 59.4102 5.83323 58.9995C7.31667 53.7046 10.1471 49.1616 12.0108 44.4242C12.1671 44.0359 10.44 43.8299 10.6448 43.1778C11.0556 41.8341 11.9394 40.3509 13.0359 39.413C13.5675 38.955 14.3835 40.391 14.8924 39.9191C16.0774 38.8278 16.955 37.471 17.462 36.0148C17.6748 35.3933 15.7432 35.4382 16.1335 34.6939C18.892 29.3149 22.4028 23.0512 29.069 18.8081C29.536 18.5108 32.3249 20.4738 32.5952 19.2515C31.9739 18.5401 31.1745 17.7748 30.477 17.0494C32.3581 14.9101 34.5991 12.8289 37.4088 10.9203C39.8472 9.12803 45.2377 6.79781 46.9169 6.48593C51.7065 5.13391 56.6798 4.29241 61.4008 3.60346C61.803 3.54454 60.8125 1.88638 61.599 1.76322C66.1351 1.05913 70.4877 0.153398 74.9755 1.70293C75.4193 1.85525 75.3607 5.01894 76.588 4.48523C76.8057 4.3863 78.6664 3.89519 79.1312 3.19769C79.1945 3.09241 78.8069 1.62765 79.4142 1.56758C82.946 1.24591 86.5584 1.58223 89.8779 2.50862C90.4137 2.66101 89.8302 4.22727 90.2107 4.34951C92.9069 5.20499 95.7973 4.05041 98.2752 5.49647C99.9355 6.46941 99.2967 9.17964 100.175 11.8571C100.3 12.235 101.337 12.2981 101.388 13.853C101.521 17.7634 100.999 22.0439 101.201 26.2122C101.243 27.1105 102.69 26.1444 101.832 28.3134C101.771 28.4588 100.721 29.1767 100.46 29.9113C100.279 30.4194 100.597 32.0021 100.226 32.6519C99.8533 33.301 99.4561 31.9733 98.845 32.7343C98.2338 33.5046 98.4827 35.3061 97.2737 35.5084ZM168.455 118.674C166.685 119.071 171.776 121.244 170.952 119.7C170.906 119.623 168.543 118.652 168.455 118.674ZM133.425 14.5421C133.644 17.28 135.859 14.3335 135.769 12.2417C135.659 10.1455 133.347 13.7079 133.425 14.5421ZM120.321 11.8211C121.22 14.0721 123.679 6.61644 121.607 7.67826C121.487 7.73778 120.265 11.6899 120.321 11.8211ZM96.0171 12.5846C96.0291 12.6582 96.7809 12.7375 96.7996 12.6648C97.2171 10.9115 95.7159 10.7544 96.0171 12.5846ZM107.235 11.3298C107.503 12.4464 108.912 11.4074 108.56 10.0254C108.318 8.9209 106.894 9.94211 107.235 11.3298ZM131.521 153.114C131.471 153.047 130.947 153.22 131.158 153.635C131.843 154.973 132.366 154.244 131.521 153.114ZM84.6185 13.3813C88.9893 9.28354 90.7944 17.3158 89.6511 16.682C89.3649 16.6873 89.225 14.5834 88.5761 14.2504C87.8298 14.016 87.8425 15.023 88.2822 15.4916C88.6967 16.0319 89.2439 15.7586 88.1259 16.0513C87.6475 16.5093 84.1391 14.0286 84.6156 13.3686C84.6166 13.3728 84.6175 13.3771 84.6185 13.3813ZM162.052 116.81C161.977 116.801 161.638 117.471 161.698 117.515C163.175 118.553 163.874 117.171 162.052 116.81ZM100.642 154.444C100.617 154.288 98.9654 153.954 98.8936 154.086C97.6407 156.832 101.099 157.533 100.642 154.444ZM162.663 67.5318C160.813 67.0857 160.468 66.3969 162.51 65.3423C162.551 66.0902 162.668 66.8137 162.663 67.5318Z" fill="white"/>
<path d="M90.315 156.582C90.7827 157.562 90.2282 158.826 89.4783 159.74C89.2456 160.027 88.2729 159.832 88.0679 160.025C87.6681 160.402 88.1287 160.797 87.6525 161.162C87.4899 161.281 85.9486 161.031 85.8137 161.156C85.0853 161.841 85.4328 162.553 85.0463 163.258C83.1393 166.719 82.1294 170.042 80.857 173.385C80.4383 174.491 78.805 175.602 79.1851 176.87C79.2308 177.019 80.5846 177.2 80.6898 177.248C82.2978 177.987 79.6236 177.321 79.2128 177.511C77.5887 178.272 77.2263 179.374 77.5183 180.478C77.6463 180.948 80.3834 181.121 78.8041 181.213C78.6973 181.22 77.3094 180.793 77.1327 180.874C76.7351 181.057 76.8733 181.609 76.7143 181.784C76.4009 182.12 76.4 182.187 76.2963 182.549C76.1419 183.041 75.2978 183.46 75.4819 184.072C75.5253 184.204 77.0027 184.416 77.2013 184.661C77.3995 184.906 77.1529 185.362 76.7718 185.437C76.3907 185.513 75.2795 185.15 75.0133 185.111C72.7688 184.776 75.6474 186.118 75.7021 186.213C76.6265 187.861 74.5966 188.507 74.2513 189.712C73.9919 190.631 74.2595 191.781 73.9124 192.628C73.4929 193.636 72.448 194.261 72.2517 195.299C72.2293 195.408 73.9274 195.831 73.9029 195.967C73.6416 197.405 72.9892 198.716 71.3982 199.667C71.2373 199.762 69.8565 199.072 69.6098 199.135C68.1291 199.538 64.8327 199.734 70.8951 202.564C70.4421 203.031 69.933 203.61 68.4879 203.619C67.558 203.624 66.1207 202.713 66.6349 203.357C66.7489 203.501 68.1554 203.918 68.2229 204.096C68.5057 204.844 67.8244 205.275 68.3062 206.103C68.4073 206.272 69.635 206.73 69.8411 206.85C71.5054 207.832 68.397 207.094 68.1459 207.102C66.2625 207.191 66.6706 207.965 66.3448 208.634C66.2687 208.788 67.9693 209.283 67.9537 209.457C67.8508 210.353 67.3549 211.125 66.3071 211.575C66.0702 211.673 64.7666 210.913 64.5834 210.928C63.7936 211.001 66.3469 212.226 65.6372 212.319C65.491 212.34 64.3368 211.778 64.2023 211.734C62.0921 211.036 64.8763 212.488 64.916 212.569C65.4742 213.64 62.3386 212.625 62.6287 213.186C62.668 213.251 64.2253 213.717 64.2484 213.848C64.3718 214.83 63.67 215.901 62.1517 217.052C61.9178 217.23 60.7428 216.87 60.5924 216.857C58.2385 216.683 61.3157 217.363 61.4211 217.452C62.1691 218.151 59.4765 218.285 63.1153 219.275C61.505 221.389 62.7522 225.752 58.7695 226.933C58.7227 226.952 57.2614 226.432 57.1743 226.472C56.1103 226.954 58.4534 227.534 61.106 228.917C61.7717 229.266 58.2605 228.57 58.0015 228.524C57.0471 228.355 54.8893 227.531 54.6991 227.516C53.2001 227.408 60.485 229.665 60.3408 230.125C60.3241 230.135 59.0061 229.648 58.8609 229.644C58.4055 229.63 58.899 229.918 58.4015 229.887C57.251 229.813 53.6934 228.773 55.616 229.838C55.8658 229.975 60.0087 231.223 59.6816 231.571C59.548 231.708 59.3832 232.454 59.0502 232.57C58.7179 232.685 57.4385 232.113 57.3764 232.108C55.4471 232.077 54.7885 231.633 52.1081 231.048C49.4382 230.463 55.6203 232.421 56.2709 232.759C56.9195 233.097 55.3441 233.015 54.8103 232.945C54.2761 232.875 53.476 232.474 53.1634 232.465C51.1189 232.414 56.1327 233.735 57.0452 234.252C59.2048 235.477 54.529 234.292 53.9458 234.544C53.7879 234.612 54.8553 234.876 54.9188 235.007C55.1563 235.523 53.6573 235.268 54.8053 236.159C54.9926 236.303 57.5988 237.613 55.5138 237.147C55.2134 237.079 54.1144 236.592 53.8033 236.668C53.3369 236.782 52.9338 237.139 53.2176 237.537C53.4276 237.832 55.3677 238.269 54.7021 238.31C54.4053 238.328 53.3889 237.738 52.9222 237.802C52.4547 237.868 52.3229 238.392 52.2946 238.599C52.2667 238.805 53.718 239.191 53.8079 239.24C54.3215 239.523 54.8852 240.113 54.8736 240.142C54.5385 241.726 51.6651 242.552 52.0258 244.415C52.0523 244.559 53.6002 244.886 53.62 244.912C54.1421 245.518 50.1795 244.082 48.7377 244.033C51.8466 244.814 51.2368 244.847 51.4946 245.249C51.6215 245.443 52.8434 245.676 52.9627 245.722C54.7284 246.42 52.3331 245.957 51.8403 245.873C50.0284 245.561 52.0828 246.264 50.8709 246.059C49.6674 245.858 47.9825 245.175 47.9264 245.486C49.0162 245.856 51.9781 246.376 52.3908 246.723C53.9539 248.027 51.2746 249.066 50.865 249.716C50.4567 250.359 50.607 250.637 50.1041 250.949C49.1946 251.513 51.4223 251.768 52.2979 252.474C53.1725 253.182 47.9123 251.65 46.7533 251.436C45.5951 251.22 46.7534 251.58 46.1057 251.507C45.4582 251.432 44.7242 251.067 44.4421 251.198C44.1604 251.328 46.0637 252.346 47.2405 252.712C49.7341 253.485 52.4479 253.91 51.3873 254.188C51.3247 254.203 49.9524 253.758 49.7833 253.835C48.4859 254.453 48.1822 255.358 46.9994 255.986C46.8347 256.071 45.3172 255.548 45.204 255.593C44.0203 256.048 46.697 256.491 49.4755 257.698C45.6533 256.544 43.2399 256.115 43.0664 256.642C42.9599 256.96 44.6518 257.383 45.7706 257.937C46.1077 258.105 44.8905 258.004 45.6649 258.276C48.1948 259.171 51.1408 259.79 49.8183 260.047C49.7562 260.057 48.3752 259.555 48.2636 259.618C47.535 260.022 50.1958 260.907 50.3178 261.651C50.4131 262.237 48.4971 262.594 48.0419 263.056C43.8029 261.586 44.6057 262.405 47.4409 263.663C47.1928 263.981 47.2135 264.431 46.6823 264.626C46.5008 264.693 45.3159 264.154 45.1789 264.119C43.0369 263.557 45.7899 264.783 45.869 264.905C46.6104 266.161 44.2265 265.957 45.9195 267.645C45.9811 267.704 48.8002 269.037 46.6316 268.311C46.4833 268.258 45.3067 267.416 45.0436 267.734C44.7792 268.058 42.9533 268.003 44.0581 269.068C44.3219 269.328 46.5097 270.634 44.6078 270.049C44.3493 269.97 43.5461 269.575 43.072 269.418C41.5585 268.923 44.4138 270.257 41.8848 269.363C39.3554 268.47 37.3391 268.088 38.8372 269.301C38.8798 269.338 41.1425 270.402 41.0443 270.539C40.8846 270.759 40.261 270.918 40.1746 271.184C40.1341 271.311 41.6094 271.796 41.6274 271.828C42.1189 272.96 40.6097 273.048 39.7201 273.749C39.5531 273.879 41.3812 275.05 39.6923 274.818C37.8412 274.572 30.7726 271.715 32.1933 273.168C32.7575 273.764 41.7851 277.217 36.8379 276.25C37.6412 277.787 34.8602 278.109 36.204 279.795C36.2632 279.87 38.7973 280.805 38.7263 280.915C38.6157 281.078 37.3779 280.822 37.26 280.929C36.7354 281.369 37.6268 282.168 37.3163 282.648C37.201 282.831 35.9675 282.406 35.8297 282.626C35.6931 282.847 37.3001 283.469 36.412 283.57C35.736 283.644 32.288 282.959 31.8027 283.184C35.1344 284.111 35.004 284.316 35.7768 284.954C35.9271 285.077 37.111 285.31 37.242 285.384C37.8012 285.692 36.8016 285.568 37.4163 285.882C37.5638 285.958 38.7039 286.266 38.8889 286.345C40.5058 287.03 37.8371 286.727 37.3723 286.676C35.607 286.479 37.0595 286.994 36.3391 287.013C35.6186 287.033 34.86 286.519 34.3935 286.642C33.4283 286.898 33.4519 287.564 33.2739 288.036C33.21 288.227 34.7706 288.488 34.7969 288.524C35.0816 289.022 33.3527 289.014 36.3392 290.01C28.4008 288.283 37.0404 290.447 35.3211 290.615C35.1823 290.627 31.4455 289.743 30.9434 289.43C30.4414 289.118 31.6715 289.15 30.8819 288.691C30.6968 288.582 27.2947 287.363 27.0954 287.263C25.5363 286.486 31.1067 287.862 31.4166 287.923C34.764 288.561 31.1137 287.195 30.8824 287.02C29.8202 286.227 30.7092 286.017 29.969 285.388C29.4917 284.978 25.8656 283.989 26.0333 283.806C26.5892 283.195 31.7153 284.322 27.5079 282.469C26.6112 282.072 22.6094 281.132 25.8662 281.469C26.0717 281.489 29.0248 281.895 27.2844 281.177C27.065 281.086 25.9112 280.767 25.8245 280.703C25.2661 280.283 26.2307 280.375 25.8663 279.983C25.5019 279.591 24.9391 279.079 25.4178 278.882C25.7046 278.763 27.9164 279.142 28.4663 279.206C30.0487 279.396 27.6496 278.41 29.523 278.791C31.4051 279.177 34.1089 280.288 35.4109 280.245C32.4315 279.352 29.3793 278.416 26.3863 277.507C26.7585 276.632 27.9903 276.036 28.1432 275.088C28.1594 274.97 26.5276 274.585 26.5043 274.443C26.4137 273.846 27.6927 273.76 27.4156 273.079C27.1949 272.551 25.6673 271.533 25.3958 270.944C28.8584 271.813 27.934 270.783 28.4083 270.416C28.5725 270.289 29.4647 270.617 29.7983 270.604C31.0347 270.55 27.9997 269.698 27.5776 269.409C25.782 268.16 32.4896 270.544 32.5428 269.894C32.5466 269.864 29.1414 268.137 28.9429 267.994C27.6363 267.094 30.2001 268.404 30.545 268.286C31.1755 268.071 32.1245 268.13 31.2747 267.258C31.0216 267.003 28.9625 265.782 30.7668 266.203C31.003 266.258 32.1564 266.751 32.2357 266.751C33.5738 266.715 29.9389 265.195 28.8366 264.372C27.7363 263.545 30.4543 264.114 31.2118 264.339C33.1783 264.904 31.9222 264.879 32.0989 264.972C34.2047 266.071 33.974 265.576 34.2681 265.405C37.8165 266.934 37.7491 266.515 34.5582 265.223C34.2091 265.084 34.4516 265.426 34.2681 265.405C30.8995 263.646 30.653 263.007 34.0561 264.087C35.6484 264.6 37.3281 265.577 36.9342 264.749C36.7482 264.391 34.2987 263.349 33.7251 262.86C32.4121 261.752 34.8895 262.277 34.6967 261.723C34.6247 261.526 33.225 261.099 33.1277 260.949C32.8621 260.557 33.967 260.739 33.5548 260.257C33.5153 260.214 32.073 259.716 32.0869 259.627C32.1619 258.947 33.2831 258.728 33.5497 258.039C33.6785 257.706 33.081 256.837 33.3546 256.534C33.8201 256.013 36.1836 255.854 35.8311 255.133C35.6063 254.669 34.1166 254.33 33.1613 253.892C31.3069 253.051 34.9289 253.487 35.4892 253.555C35.5078 253.558 35.7655 253.976 36.5677 254.011C38.1683 254.342 35.4952 253.56 35.4892 253.555C35.8506 253.604 36.3612 253.041 36.114 252.835C35.9789 252.723 34.572 252.392 34.5278 252.341C33.5083 251.142 33.3748 250.178 34.26 249.418C34.2923 249.409 35.8545 249.824 35.9111 249.797C36.7423 249.432 34.9086 248.609 33.8788 247.88C32.8495 247.15 33.3194 246.882 36.0812 247.267C35.8263 246.837 37.1404 246.625 37.9345 246.511C38.7284 246.397 35.6829 245.608 35.6288 245.567C33.8931 244.288 35.7585 244.242 36.2454 243.454C36.482 243.08 36.2486 242.149 36.0347 241.607C35.8603 241.178 36.6304 241.149 36.2639 240.694C36.2151 240.633 34.8496 240.317 34.8012 240.289C33.2836 239.478 36.5423 240.546 37.1535 240.628C39.3763 240.927 40.5625 241.077 39.6843 240.327C39.4827 240.157 34.8244 238.507 34.6073 238.215C34.3325 237.843 36.0029 238.43 35.6725 238.029C35.6458 237.995 34.5963 237.699 34.6937 237.535C35.1342 236.763 36.0041 236.073 36.1939 235.118C36.2238 234.989 34.5253 234.623 34.5428 234.424C34.6292 233.482 35.0066 232.57 36.0307 232.109C36.2878 231.997 37.3869 232.52 37.7388 232.604C39.8621 233.126 36.9865 231.778 36.9457 231.713C35.8994 230.116 38.9055 230.174 38.0076 228.579C37.9538 228.489 34.9038 226.929 37.7317 227.635C37.9198 227.682 40.8123 228.407 38.9473 227.573C38.8305 227.522 37.3337 227.172 37.5593 226.988C37.7849 226.803 36.9382 226.108 38.6421 226.309C39.1788 226.373 42.0779 227.05 39.931 226.008C39.7813 225.935 34.8506 223.812 38.4138 224.78C39.0002 224.94 42.7045 226.17 40.92 225.184C40.5735 224.994 39.7037 224.855 39.2462 224.502C38.5403 223.961 39.6571 223.902 38.1131 223.022C37.8396 222.867 35.3982 221.803 37.3807 222.204C37.6912 222.266 38.9131 222.724 39.0873 222.657C39.9219 222.34 39.2662 221.522 40.2965 221.251C40.6591 221.154 42.6378 221.884 43.2394 221.852C43.8407 221.821 44.4858 221.578 43.6335 221.078C42.7807 220.579 39.504 219.809 39.347 219.411C38.3921 218.541 40.3601 218.724 40.8657 217.511C40.9371 217.347 39.7284 217.292 39.7485 217.032C39.8113 216.118 39.0348 213.702 41.8033 212.795C44.0104 212.125 45.2923 213.718 46.2574 213.101C46.7162 212.818 42.9839 211.598 42.8874 211.463C41.884 210.193 43.7476 209.837 43.5257 208.681C43.4819 208.435 41.9002 208.21 41.8827 207.997C41.8173 207.246 42.7012 206.798 42.8575 205.989C42.928 205.617 41.7753 205.25 41.9927 204.944C42.4899 204.231 43.2889 203.701 44.4122 203.964C44.519 203.978 45.8049 204.784 45.961 204.572C46.2091 204.229 47.4387 204.213 46.5722 203.316C46.3104 203.048 43.7858 201.93 45.6482 202.43C46.037 202.535 49.0432 203.937 46.555 202.474C46.1434 202.226 42.8199 200.175 45.2137 200.911C45.8439 201.105 48.4113 202.001 48.0829 201.684C48.0288 201.637 46.6303 201.136 46.549 200.957C46.2858 200.337 46.6218 199.945 46.38 199.314C46.3125 199.145 44.8202 198.737 44.7642 198.505C44.6079 197.868 45.2186 197.404 45.8576 197.1C46.096 196.989 47.2271 197.585 47.3607 197.623C49.5347 198.248 46.7633 196.997 46.6259 196.863C45.8114 196.04 47.2674 196.237 47.0711 195.7C47.0203 195.553 45.6398 195.107 45.5279 195.038C44.4385 194.357 46.7987 195.465 47.1218 195.425C48.0352 195.314 48.0998 194.819 48.0809 194.345C48.0719 194.17 46.437 193.746 46.4466 193.597C46.4738 192.703 46.9239 191.944 48.0742 191.478C48.2936 191.392 49.4783 191.919 49.7674 191.988C51.7899 192.47 49.2454 191.211 49.0168 191.052C47.9748 190.321 49.0974 190.575 48.9958 190.217C48.4775 188.475 49.7604 187.004 50.6221 185.813C51.7355 184.268 53.317 183.249 53.4708 181.49C53.4819 181.379 51.7937 181.03 51.7817 180.929C51.7006 179.656 52.6498 178.677 52.4534 177.389C52.4401 177.285 50.8224 177.034 50.7473 176.855C50.5821 176.486 50.7618 176.116 51.3426 175.92C51.6229 175.824 52.9369 176.35 53.1916 176.245C53.788 175.999 53.9919 175.629 53.8209 175.196C53.7445 175.011 52.0631 174.887 52.0901 174.678C52.2403 173.24 52.2313 171.848 54.6168 170.817C54.7804 170.747 58.1318 171.267 57.5306 170.937C56.6075 170.755 55.518 170.56 54.5294 170.375C54.3625 168.238 55.8253 166.406 56.2461 164.369C56.2633 164.284 54.462 164.224 54.4859 164.061C54.622 163.11 54.2166 162.165 56.0764 161.341C56.2583 161.259 59.4041 161.567 58.9511 161.233C58.8685 161.174 58.4819 160.699 57.8054 160.538C57.7033 160.515 56.2265 160.488 56.1935 160.347C56.027 159.528 56.4095 158.721 57.3422 157.955C57.4956 157.832 59.0596 158.033 59.1824 157.944C60.0424 157.298 58.8676 156.546 60.3018 155.925C61.2672 155.504 63.9802 155.692 66.6547 155.466C67.0321 155.434 67.0931 155.144 68.648 155.132C72.5583 155.1 76.8395 155.266 81.0075 155.214C81.9055 155.203 80.9389 154.742 83.1081 155.017C83.2534 155.035 83.9725 155.375 84.7078 155.464C85.2163 155.526 86.7983 155.427 87.4489 155.554C88.0989 155.681 86.7723 155.806 87.5354 156.017C88.3077 156.229 90.1082 156.16 90.315 156.582ZM41.4876 245.99C43.021 246.083 37.6604 244.711 38.8722 245.325C38.9372 245.356 41.4122 245.986 41.4876 245.99ZM31.9818 277.265C34.4228 277.63 31.0708 276.324 29.1916 276.021C27.3129 275.723 31.2409 277.158 31.9818 277.265ZM32.6119 281.432C34.5789 281.549 27.0531 279.328 28.4505 280.213C28.5293 280.264 32.4976 281.425 32.6119 281.432ZM67.4 156.634C67.4736 156.632 67.5492 156.423 67.4764 156.416C65.7214 156.275 65.5716 156.684 67.4 156.634ZM33.4949 285.545C34.5541 285.692 33.4685 285.009 32.1512 284.826C31.091 284.68 32.1767 285.364 33.4949 285.545ZM51.3851 233.685C51.4646 233.707 51.5858 233.581 51.1434 233.434C49.7186 232.962 50.0492 233.305 51.3851 233.685ZM32.0164 291.661C32.5288 290.831 38.9501 291.874 37.9966 292.667C37.8241 292.811 36.0873 291.784 35.4642 291.866C34.3287 292.017 38.2071 293.282 35.9874 293.169C35.5811 293.149 31.973 291.705 32.0081 291.657C32.0108 291.658 32.0136 291.659 32.0164 291.661ZM47.9775 247.432C48.0498 247.444 48.1701 247.247 48.101 247.225C46.4249 246.685 46.1811 247.083 47.9775 247.432ZM57.5029 225.916C57.6553 225.951 57.9474 225.506 57.8152 225.447C55.153 224.336 54.5555 225.229 57.5029 225.916ZM47.9258 263.026C49.5135 263.843 49.6011 264.22 47.4434 263.663C47.6395 263.465 47.7402 263.23 47.9258 263.026Z" fill="white"/>
<path d="M127.258 26.6915C127.771 26.2198 128.422 26.7636 128.867 27.5017C129.007 27.7307 128.864 28.7041 128.953 28.9062C129.126 29.3002 129.348 28.835 129.506 29.3042C129.557 29.4644 129.346 31.0055 129.4 31.1378C129.689 31.8519 130.058 31.4915 130.373 31.8607C131.898 33.6799 133.327 34.561 134.69 35.6668C135.144 36.0316 135.315 37.5565 135.995 37.1336C136.076 37.0833 136.473 35.7784 136.52 35.6755C137.25 34.1057 136.313 36.6946 136.306 37.0787C136.286 38.5978 136.682 38.8784 137.284 38.5501C137.541 38.4068 138.366 35.8205 137.984 37.305C137.958 37.4052 137.376 38.7314 137.365 38.8936C137.341 39.2582 137.638 39.1003 137.675 39.2404C137.743 39.5165 137.774 39.5136 137.913 39.5916C138.1 39.7106 138.038 40.4706 138.381 40.267C138.457 40.2201 139.016 38.8435 139.196 38.6485C139.377 38.454 139.524 38.6619 139.439 39.0091C139.354 39.3566 138.824 40.3959 138.72 40.6426C137.832 42.7197 139.4 40.0064 139.468 39.9538C140.573 39.0304 140.203 40.8477 140.652 41.0909C141.001 41.2755 141.666 40.9821 141.952 41.2492C142.29 41.5727 142.178 42.4532 142.608 42.57C142.653 42.5841 143.566 41.0959 143.625 41.1116C144.25 41.2797 144.66 41.7977 144.437 43.0955C144.414 43.2265 143.447 44.4178 143.367 44.6212C142.912 45.849 141.417 48.5143 145.701 43.3966C145.732 43.7524 145.798 44.1505 145.107 45.3229C144.661 46.0767 143.503 47.2851 144.076 46.8347C144.205 46.7349 145.1 45.5783 145.224 45.5154C145.746 45.2535 145.635 45.7814 146.304 45.3612C146.443 45.2734 147.289 44.2738 147.454 44.1045C148.797 42.7401 146.873 45.2527 146.749 45.4494C145.852 46.9394 146.458 46.5792 146.642 46.8049C146.683 46.8575 147.817 45.5094 147.901 45.5152C148.326 45.5636 148.488 45.9258 148.181 46.7163C148.11 46.8949 147.017 47.9224 146.928 48.0619C146.547 48.6606 148.554 46.6643 148.231 47.2042C148.164 47.3151 147.249 48.214 147.154 48.318C145.655 49.9466 147.917 47.7763 147.983 47.7447C148.857 47.2827 146.648 49.703 147.157 49.5637C147.222 49.5458 148.341 48.3676 148.452 48.3879C149.198 48.5173 149.323 49.3143 148.729 50.6065C148.638 50.8059 147.678 51.5605 147.568 51.664C145.858 53.2758 148.266 51.2493 148.376 51.1949C149.175 50.8142 147.296 52.6788 150.264 50.3842C149.9 51.9701 152.197 51.494 150.056 54.2562C150.032 54.2887 148.767 55.1857 148.724 55.246C148.181 55.9799 150.096 54.5175 152.609 52.9666C153.243 52.5801 150.43 54.7634 150.223 54.9222C149.465 55.5143 147.554 56.8065 147.411 56.926C146.284 57.8629 152.51 53.4588 152.62 53.6119C152.613 53.6238 151.447 54.4068 151.341 54.4989C151.008 54.7872 151.493 54.5069 151.121 54.8193C150.262 55.5423 147.224 57.6638 149.086 56.5674C149.328 56.4256 152.885 53.9623 152.809 54.2141C152.775 54.3158 152.998 54.5147 152.808 54.7368C152.619 54.9583 151.426 55.6818 151.379 55.7201C149.955 56.9082 149.274 57.2633 147.043 58.8377C144.816 60.4004 150.233 56.8354 150.863 56.476C151.491 56.1183 150.296 57.0713 149.87 57.386C149.444 57.7018 148.675 58.1441 148.44 58.3316C146.901 59.5544 151.199 56.6725 152.106 56.1801C154.258 55.0227 150.265 57.7065 149.94 58.0764C149.853 58.1777 150.766 57.5714 150.873 57.5485C151.283 57.4676 150.048 58.3241 151.308 57.7489C151.513 57.6533 154.061 56.2795 152.289 57.4499C152.033 57.6179 150.987 58.2051 150.789 58.3954C150.49 58.6808 150.347 58.9524 150.742 58.8347C151.035 58.7478 152.696 57.6766 152.214 58.0689C151.999 58.2432 150.963 58.7593 150.64 59.036C150.317 59.3116 150.456 59.4511 150.527 59.495C150.599 59.538 151.882 58.7646 151.973 58.7198C152.494 58.4663 153.198 58.2437 153.203 58.2567C153.704 58.7722 151.747 60.466 152.763 60.6176C152.841 60.6312 154.236 59.8901 154.262 59.8849C154.928 59.7341 151.121 61.5121 149.915 62.2414C152.771 60.7862 152.282 61.1057 152.647 61.0489C152.825 61.0204 153.922 60.4389 154.038 60.3864C155.779 59.6527 153.641 60.8265 153.195 61.0496C151.567 61.8961 153.569 61.0696 152.472 61.6214C151.376 62.1522 149.693 62.7983 149.75 62.8804C150.821 62.4671 153.534 61.1736 154.035 61.1146C155.97 60.9704 154.026 62.8004 153.817 63.0419C153.644 63.402 153.865 63.4447 153.488 63.6867C152.802 64.1115 154.975 63.6288 156.013 63.665C157.051 63.7092 151.626 64.4463 150.467 64.6508C149.307 64.85 150.508 64.6907 149.872 64.8134C149.237 64.9341 148.437 64.9996 148.206 65.0916C147.974 65.1781 150.069 65.0517 151.291 64.9126C153.881 64.6152 156.581 64.1633 155.655 64.492C155.6 64.5106 154.168 64.6587 154.029 64.7196C152.973 65.1953 152.94 65.5253 151.995 65.9358C151.863 65.9919 150.266 66.1092 150.171 66.1428C149.174 66.4808 151.853 66.1362 154.854 66.0131C150.876 66.3396 148.451 66.6329 148.442 66.8134C148.436 66.9241 150.172 66.7594 151.402 66.7329C151.773 66.7252 150.586 66.901 151.405 66.8506C154.08 66.6882 157.064 66.3732 155.89 66.6774C155.834 66.6908 154.369 66.7736 154.283 66.8117C153.718 67.0564 156.515 66.8757 156.87 67.0745C157.148 67.2309 155.463 67.6534 155.197 67.8588C150.719 68.1378 151.755 68.2451 154.847 68.1305C154.729 68.2617 154.911 68.3848 154.491 68.5272C154.348 68.5763 153.049 68.6254 152.91 68.6387C150.716 68.8443 153.724 68.722 153.843 68.7417C155.005 68.9612 152.74 69.319 154.981 69.4636C155.061 69.4687 158.174 69.3116 155.906 69.5094C155.75 69.5227 154.329 69.5126 154.226 69.6448C154.123 69.777 152.468 70.1069 153.92 70.1999C154.27 70.2228 156.802 70.1854 154.833 70.382C154.565 70.4085 153.672 70.4468 153.177 70.4914C151.597 70.6348 154.744 70.4839 152.076 70.6995C149.407 70.9148 147.414 71.1657 149.268 71.2351C149.322 71.2378 151.817 71.1309 151.781 71.1884C151.721 71.2808 151.209 71.4383 151.231 71.5298C151.243 71.5735 152.789 71.4483 152.817 71.4541C153.703 71.6909 152.337 71.9878 151.761 72.3468C151.653 72.4138 153.773 72.4207 152.115 72.659C150.3 72.9241 142.7 73.3833 144.534 73.5585C145.268 73.6374 154.902 72.9494 149.937 73.6015C151.208 73.8849 148.703 74.5519 150.514 74.7662C150.594 74.7764 153.275 74.4904 153.243 74.5324C153.192 74.5973 151.948 74.7971 151.871 74.8521C151.522 75.0961 152.613 75.1068 152.474 75.2978C152.425 75.3735 151.136 75.5636 151.079 75.6618C151.024 75.7623 152.721 75.5122 151.926 75.7674C151.32 75.9591 147.896 76.7234 147.529 76.9636C150.916 76.267 150.864 76.3698 151.785 76.3032C151.963 76.2891 153.131 75.996 153.276 75.9746C153.89 75.8772 152.927 76.1417 153.594 76.0245C153.754 75.9963 154.901 75.7179 155.097 75.6771C156.797 75.3098 154.242 76.0402 153.804 76.1891C152.128 76.723 153.618 76.3442 152.969 76.5903C152.325 76.8502 151.467 76.9979 151.09 77.2041C150.316 77.6436 150.586 77.8435 150.622 78.0744C150.643 78.1636 152.075 77.5003 152.112 77.4987C152.519 77.4412 151.108 78.3694 153.91 76.951C146.809 80.8866 154.625 76.6228 153.262 77.4992C153.151 77.5686 150.012 79.7842 149.455 79.9631C148.889 80.1256 149.824 79.3516 148.973 79.6233C148.782 79.7067 145.435 81.064 145.208 81.0927C143.49 81.4456 148.727 79.0894 149.012 78.9565C152.086 77.501 148.442 78.8237 148.156 78.8237C146.896 78.9616 147.584 78.4694 146.677 78.4935C146.09 78.5073 142.473 79.526 142.542 79.3451C142.769 78.7302 147.853 77.4401 143.339 78.0836C142.375 78.2155 138.373 79.1469 141.469 78.1713C141.663 78.1031 144.52 77.3253 142.664 77.5695C142.43 77.5991 141.254 77.8221 141.151 77.8205C140.486 77.8038 141.408 77.5433 140.933 77.479C140.458 77.4136 139.757 77.3437 140.133 77.125C140.358 76.9905 142.546 76.541 143.08 76.4221C144.62 76.0815 142.05 76.3256 143.927 75.9926C145.814 75.6673 148.71 75.3806 149.916 75.072C146.833 75.4823 143.667 75.8934 140.565 76.2965C140.618 75.8617 141.572 75.3565 141.397 74.9992C141.372 74.9543 139.714 75.1748 139.644 75.1296C139.357 74.9341 140.526 74.6392 140.034 74.4699C139.647 74.3401 137.867 74.3047 137.408 74.1691C140.947 73.7728 139.723 73.6298 140.034 73.4273C140.142 73.3572 141.09 73.2911 141.396 73.2254C142.528 72.9834 139.397 73.2854 138.9 73.2763C136.779 73.2324 143.879 72.7182 143.69 72.5206C143.682 72.5109 139.886 72.6226 139.649 72.6174C138.104 72.5947 140.966 72.5108 141.241 72.4169C141.743 72.2457 142.642 72.0958 141.523 72.0048C141.191 71.9791 138.823 72.0084 140.644 71.8091C140.883 71.7831 142.135 71.7148 142.208 71.701C143.42 71.4596 139.486 71.6875 138.147 71.6666C136.809 71.6454 139.517 71.3391 140.298 71.2649C142.319 71.071 141.167 71.2758 141.366 71.2688C143.734 71.1833 143.32 71.0993 143.516 71.0067C147.373 70.7759 147.135 70.6775 143.703 70.9118C143.328 70.9377 143.691 70.9803 143.516 71.0067C139.726 71.1501 139.234 71.0497 142.764 70.7159C144.419 70.5598 146.355 70.5119 145.637 70.3592C145.313 70.29 142.658 70.4709 141.93 70.4344C140.268 70.3506 142.733 69.9883 142.333 69.8343C142.188 69.7786 140.737 69.9221 140.588 69.8871C140.187 69.7949 141.272 69.6313 140.706 69.5497C140.653 69.5425 139.133 69.6548 139.111 69.6209C138.919 69.3672 139.881 69.083 139.891 68.8181C139.896 68.6904 139.042 68.5223 139.202 68.3874C139.471 68.1562 141.662 67.7243 141.111 67.5901C140.758 67.5042 139.24 67.6558 138.201 67.6969C136.187 67.7819 139.768 67.3219 140.321 67.2459C140.34 67.243 140.706 67.303 141.481 67.1826C143.103 67.0048 140.329 67.2458 140.321 67.2459C140.68 67.1992 141.007 66.9863 140.713 66.98C140.553 66.9769 139.116 67.132 139.06 67.1283C137.752 67.0392 137.368 66.923 138.019 66.6961C138.048 66.6897 139.649 66.4759 139.697 66.4627C140.395 66.2652 138.429 66.4907 137.265 66.646C136.101 66.7983 136.493 66.7557 139.218 66.2329C138.871 66.2787 140.072 66.0326 140.797 65.8618C141.521 65.6882 138.454 66.3904 138.394 66.4074C136.469 66.9175 138.291 66.8043 138.701 67.1095C138.902 67.2674 138.645 67.8019 138.417 68.0976C138.257 68.3889 138.828 67.8871 138.379 68.0439C138.318 68.062 137.072 68.7021 137.022 68.7232C135.484 69.3956 138.561 67.8932 139.098 67.6001C141.051 66.5344 142.084 65.9528 141.095 66.3181C140.867 66.3998 136.444 68.5806 136.168 68.6764C135.817 68.7943 137.397 68.0012 136.988 68.1451C136.955 68.1568 135.987 68.6598 136.014 68.607C136.123 68.3688 136.604 67.9265 136.437 67.852C136.418 67.8402 134.912 68.691 134.861 68.6896C134.622 68.6827 134.623 68.5555 135.264 68.0485C135.427 67.9207 136.484 67.3298 136.791 67.1438C138.65 66.0132 135.886 67.5484 135.831 67.5727C134.406 68.1469 136.739 66.4776 135.439 66.9674C135.361 66.9941 132.446 68.7235 134.871 67.1219C135.033 67.0165 137.508 65.3676 135.773 66.4291C135.665 66.4959 134.394 67.3493 134.498 67.2217C134.6 67.0926 133.701 67.5863 135.067 66.6024C135.498 66.2941 137.937 64.6041 135.928 65.853C135.785 65.9358 131.294 68.8364 134.332 66.7451C134.832 66.4007 138.067 64.2171 136.361 65.2676C136.031 65.4724 135.328 65.9862 134.856 66.2585C134.13 66.6808 134.942 66.0171 133.473 66.9501C133.212 67.114 131.015 68.595 132.637 67.406C132.89 67.2193 133.963 66.4797 134.069 66.3765C134.575 65.8803 133.799 66.2935 134.461 65.6713C134.693 65.4514 136.407 64.2272 136.834 63.8549C137.261 63.4831 137.636 63.0772 136.834 63.6111C136.032 64.1469 133.371 66.1939 133.118 66.3046C132.028 66.7955 133.432 65.393 133.475 64.9884C133.482 64.9295 132.571 65.7133 132.518 65.6837C132.309 65.5693 131.248 66.0612 133.038 64.2325C134.461 62.7566 135.763 61.878 136.294 61.2228C136.541 60.9043 133.596 63.4659 133.497 63.5401C132.484 64.2811 133.696 63.045 133.223 63.3165C133.126 63.3739 131.989 64.4742 131.921 64.5123C131.677 64.6534 132.141 64.1173 132.004 64.1607C131.94 64.183 131.074 65.0259 131.125 64.9438C131.235 64.7567 131.563 64.3665 132.325 63.5264C132.394 63.4494 133.493 62.4226 133.496 62.3467C133.501 62.2285 134.209 61.357 133.331 62.1124C133.067 62.3396 131.14 64.3174 132.43 62.9117C132.7 62.6183 135.015 60.2449 132.974 62.2567C132.63 62.5867 129.894 65.3167 131.572 63.4752C132.013 62.9903 133.843 60.9864 133.525 61.273C133.476 61.3197 132.476 62.4152 132.358 62.5031C131.961 62.795 131.999 62.6154 131.622 62.9004C131.519 62.9793 130.517 64.1417 130.4 64.225C130.077 64.457 130.262 64.0992 130.512 63.68C130.606 63.5233 131.451 62.5734 131.54 62.4672C132.974 60.7326 130.978 63.0227 130.856 63.1509C130.112 63.9105 130.987 62.7826 130.69 63.0269C130.611 63.0921 129.701 64.2185 129.616 64.3158C128.788 65.2685 130.46 63.2761 130.623 63.0386C131.082 62.3657 130.941 62.4015 130.77 62.5022C130.706 62.541 129.687 63.8761 129.644 63.8972C129.369 64.0489 129.381 63.8565 129.833 63.0396C129.92 62.8832 130.697 61.8495 130.868 61.6085C132.058 59.918 130.349 62.1609 130.186 62.3741C129.428 63.339 130.08 62.3994 129.918 62.5468C129.132 63.2927 129.376 62.5469 129.452 62.045C129.563 61.4069 129.966 60.2219 129.591 60.3874C129.568 60.3968 128.795 61.9339 128.768 61.9627C128.457 62.2696 128.626 61.6054 128.304 62.0062C128.279 62.0367 127.632 63.5336 127.574 63.6343C127.452 63.8516 127.464 63.7605 127.642 63.2704C127.727 63.0339 128.286 61.7504 128.356 61.5373C128.521 61.0375 128.517 60.9103 128.381 61.1378C128.323 61.2383 127.733 62.7989 127.71 62.8103C127.53 62.9185 127.398 63.1752 127.906 61.071C127.942 60.9269 128.92 57.6811 128.699 58.2935C128.426 59.1938 128.108 60.2538 127.818 61.2167C127.484 61.6819 127.602 60.5011 127.406 60.2801C127.399 60.2715 127.092 62.0413 127.081 62.0343C127.009 61.9948 126.905 62.4817 127.04 60.6992C127.052 60.5248 127.441 57.3887 127.34 57.8581C127.322 57.9437 127.211 58.3553 127.126 59.0362C127.114 59.1389 126.966 60.6065 126.948 60.6479C126.847 60.8626 126.811 60.5216 126.768 59.6163C126.761 59.4674 126.867 57.9002 126.861 57.7803C126.797 56.9418 126.65 58.131 126.575 56.7033C126.517 55.742 126.583 53.0275 126.548 50.3544C126.542 49.9772 126.465 49.917 126.465 48.362C126.462 44.4518 126.536 40.1704 126.529 36.0025C126.527 35.1047 126.321 36.0714 126.445 33.9021C126.453 33.7568 126.609 33.0374 126.655 32.3018C126.687 31.7933 126.647 30.2115 126.712 29.5606C126.78 28.9105 126.831 30.2367 126.941 29.4729C127.054 28.6999 127.038 26.9 127.258 26.6915ZM144.029 65.0717C145.484 64.6656 140.174 66.2216 141.428 65.7911C141.495 65.7687 143.957 65.0905 144.029 65.0717ZM145.722 74.8982C148.132 74.4936 144.555 74.7867 142.692 75.0919C140.832 75.405 144.992 75.0252 145.722 74.8982ZM147.688 76.1264C149.561 75.6585 141.806 76.8526 143.407 76.816C143.498 76.8151 147.579 76.1549 147.688 76.1264ZM126.873 49.5993C126.874 49.5258 126.818 49.4527 126.815 49.5255C126.743 51.2816 126.843 51.4263 126.873 49.5993ZM149.897 77.2087C150.909 76.8875 149.686 77.0472 148.423 77.4374C147.41 77.762 148.64 77.6224 149.897 77.2087ZM147.649 59.5065C147.718 59.4618 147.754 59.3783 147.359 59.626C146.087 60.4237 146.483 60.2583 147.649 59.5065ZM151.729 80.0981C151.038 79.1439 156.479 75.3137 155.474 75.366C155.339 75.4223 154.137 76.9462 153.692 77.3293C153.087 78.2052 155.318 74.7939 154.018 76.5655C153.918 76.9658 151.852 80.2208 151.723 80.1047C151.725 80.1025 151.727 80.1003 151.729 80.0981ZM150.423 63.2581C150.493 63.2365 150.54 63.146 150.47 63.1653C148.78 63.6434 148.672 63.7802 150.423 63.2581ZM148.71 54.9799C148.833 54.884 148.842 54.6505 148.723 54.7316C146.367 56.3768 146.327 56.8326 148.71 54.9799ZM155.078 67.8693C156.847 67.8404 157.061 67.9297 154.85 68.13C154.962 68.0413 154.975 67.9582 155.078 67.8693Z" fill="white"/>
<path d="M79.9061 154.389C80.3798 155.431 79.841 156.804 79.1066 157.823C78.8788 158.143 77.9028 157.952 77.7012 158.17C77.308 158.596 77.7761 159.017 77.3075 159.431C77.1474 159.567 75.601 159.338 75.4687 159.481C74.7543 160.269 75.1182 161.053 74.7496 161.855C72.9303 165.816 72.0359 169.689 70.8735 173.631C70.4916 174.934 68.8918 176.347 69.3131 177.787C69.3637 177.955 70.7272 178.049 70.8342 178.095C72.4708 178.812 69.7674 178.27 69.3614 178.526C67.757 179.543 67.426 180.859 67.7515 182.113C67.8937 182.647 70.6481 182.594 69.0645 182.846C68.9574 182.864 67.5508 182.498 67.3756 182.608C66.9815 182.858 67.136 183.485 66.9809 183.703C66.6752 184.123 66.6761 184.201 66.5817 184.631C66.4399 185.217 65.6017 185.786 65.8023 186.479C65.8493 186.628 67.3414 186.729 67.5475 186.994C67.7532 187.26 67.5165 187.812 67.1347 187.937C66.7528 188.062 65.6253 187.75 65.3563 187.732C63.0883 187.566 66.0187 188.839 66.0762 188.943C67.046 190.761 65.0136 191.716 64.6886 193.151C64.4449 194.243 64.7362 195.547 64.4 196.564C63.9933 197.775 62.9461 198.612 62.7632 199.833C62.7422 199.961 64.4674 200.265 64.4448 200.424C64.202 202.114 63.5608 203.693 61.96 204.968C61.798 205.095 60.3882 204.458 60.1387 204.558C58.6419 205.192 55.2927 205.814 61.4889 208.356C61.036 208.942 60.5251 209.672 59.0575 209.851C58.1124 209.966 56.6388 209.093 57.17 209.771C57.2878 209.924 58.7237 210.233 58.7947 210.429C59.0919 211.256 58.4056 211.831 58.9081 212.72C59.0135 212.902 60.2695 213.276 60.481 213.387C62.1897 214.306 59.0147 213.847 58.7595 213.886C56.8453 214.217 57.2661 215.073 56.949 215.869C56.8746 216.053 58.614 216.405 58.6018 216.605C58.5157 217.631 58.033 218.554 56.9765 219.199C56.7373 219.341 55.391 218.653 55.2046 218.695C54.4006 218.884 57.0291 219.939 56.3135 220.125C56.1658 220.166 54.974 219.689 54.8359 219.657C52.6673 219.153 55.547 220.411 55.5909 220.494C56.2108 221.579 52.9532 220.984 53.1324 221.885C53.1573 221.993 54.7606 222.323 54.7369 222.594C54.5882 224.402 53.5663 226.048 51.7741 227.325C51.4975 227.524 50.4022 226.953 50.2541 226.922C47.9353 226.452 50.8645 227.617 50.9487 227.74C51.5346 228.684 48.8195 228.489 52.2262 230.126C50.0431 232.585 51.0764 236.167 46.9018 237.953C46.8523 237.976 45.4107 237.403 45.3185 237.452C44.1927 238.039 46.5268 238.661 49.0993 240.227C49.7444 240.622 46.2324 239.883 45.9731 239.834C45.0169 239.655 42.897 238.734 42.7047 238.719C41.1891 238.619 48.3944 241.119 48.2009 241.665C48.1829 241.677 46.8877 241.131 46.7401 241.129C46.2773 241.121 46.7517 241.45 46.2476 241.422C45.0819 241.357 41.5621 240.194 43.4136 241.409C43.6541 241.566 47.7495 242.964 47.3785 243.378C47.2277 243.542 46.9776 244.423 46.6244 244.563C46.2721 244.703 45.0306 244.045 44.9676 244.041C43.0027 244.023 42.3802 243.51 39.7126 242.845C37.0563 242.179 43.1409 244.422 43.766 244.812C44.389 245.203 42.7903 245.118 42.2539 245.037C41.7171 244.957 40.9474 244.494 40.6296 244.484C38.551 244.427 43.5101 245.954 44.3793 246.555C46.4342 247.985 41.8035 246.611 41.1772 246.899C41.0073 246.979 42.0639 247.288 42.112 247.441C42.2875 248.045 40.7904 247.739 41.8435 248.785C42.0161 248.953 44.499 250.506 42.4307 249.946C42.133 249.864 41.0774 249.285 40.7486 249.37C40.2557 249.498 39.7936 249.905 40.0255 250.372C40.1969 250.717 42.1184 251.254 41.4301 251.294C41.1231 251.311 40.1713 250.608 39.6837 250.675C39.1974 250.741 38.9744 251.36 38.9063 251.604C38.8397 251.848 40.2583 252.347 40.3417 252.408C40.8163 252.76 41.2659 253.509 41.2456 253.548C40.493 255.612 37.2579 256.379 37.1048 258.478C37.0919 258.644 38.5439 259.273 38.5565 259.305C38.9213 260.055 35.3582 257.79 33.9333 257.5C36.8231 258.887 36.2065 258.823 36.3632 259.308C36.442 259.541 37.6005 259.996 37.7078 260.066C39.2983 261.109 37.0282 260.215 36.5562 260.048C34.824 259.426 36.7034 260.518 35.5424 260.111C34.3877 259.712 32.8719 258.696 32.7366 259.045C33.7365 259.617 36.5722 260.627 36.9013 261.075C38.1531 262.747 35.2379 263.561 34.6768 264.259C34.1203 264.943 34.208 265.281 33.6317 265.579C32.5898 266.117 34.7679 266.678 35.4845 267.596C36.1991 268.518 31.2708 266.12 30.1564 265.733C29.0434 265.345 30.1235 265.899 29.4902 265.735C28.8574 265.571 28.2043 265.063 27.8913 265.178C27.579 265.293 29.2546 266.693 30.3507 267.257C32.6741 268.452 35.3007 269.272 34.1685 269.466C34.1018 269.476 32.8287 268.795 32.6405 268.862C31.191 269.416 30.6643 270.424 29.3162 270.986C29.1291 271.062 27.7372 270.259 27.6125 270.295C26.3095 270.65 28.8853 271.519 31.3573 273.294C27.8207 271.44 25.5099 270.614 25.2006 271.175C25.0114 271.514 26.5944 272.246 27.5649 273.044C27.8568 273.286 26.663 272.987 27.3642 273.414C29.6515 274.82 32.4403 275.97 31.025 276.08C30.9593 276.082 29.719 275.292 29.5873 275.349C28.7314 275.703 31.14 277.141 31.0112 278.04C30.9083 278.749 28.8348 278.853 28.1998 279.298C24.4683 276.807 24.992 277.868 27.3531 279.886C26.9765 280.201 26.8045 280.728 26.1824 280.833C25.9693 280.87 25.008 279.99 24.8849 279.919C22.9742 278.789 25.2151 280.804 25.2374 280.964C25.3998 282.578 23.1368 281.685 23.9242 284.031C23.9556 284.112 26.0598 286.415 24.2621 284.983C24.1435 284.879 23.4326 283.602 22.9819 283.873C22.5094 284.163 20.7672 283.463 21.0523 285.053C21.1338 285.428 22.1569 287.814 20.7481 286.38C20.5606 286.183 20.1122 285.406 19.7854 285.027C18.7565 283.809 20.3421 286.538 18.7277 284.393C17.1252 282.24 15.7531 280.736 16.1757 282.606C16.1918 282.658 17.2712 284.914 17.0566 284.98C16.7285 285.074 16.1201 284.786 15.7993 284.912C15.6565 284.969 16.2282 286.412 16.2084 286.449C15.9529 286.75 15.5274 286.991 14.7892 286.901C13.878 286.968 12.7186 285.174 13.0543 284.652C13.4117 283.512 14.141 283.443 14.6556 282.999C14.8401 282.871 13.302 281.267 14.969 281.737C16.7708 282.291 23.0519 286.601 21.9388 284.966C21.4827 284.331 13.7444 278.52 18.3004 280.724C18.081 278.852 20.9403 279.288 20.3453 277.064C20.3259 276.956 18.2171 275.268 18.3301 275.168C18.4984 275.029 19.6212 275.614 19.7736 275.532C20.2414 274.528 20.6739 276.461 20.1516 276.72C19.9538 276.883 18.962 276.034 18.7271 276.23C18.4862 276.438 19.7632 277.599 18.865 277.43C18.1775 277.306 15.1384 275.53 14.5627 275.64C17.3886 277.634 17.1653 277.827 17.6441 278.742C17.7371 278.919 18.7857 279.519 18.881 279.637C19.2918 280.135 18.375 279.709 18.8394 280.227C18.9507 280.352 19.9267 281.016 20.0732 281.155C21.3565 282.361 18.8998 281.256 18.4676 281.071C16.8324 280.358 18.0349 281.325 17.3263 281.144C16.6163 280.966 16.0893 280.192 15.5832 280.2C14.5344 280.218 14.2805 280.973 13.9189 281.459C13.7796 281.658 15.2107 282.34 15.222 282.388C15.3115 283.007 13.6076 282.594 16.192 284.398C8.99044 280.634 16.7285 285.036 14.9914 284.821C14.8524 284.801 11.4396 283.039 11.0577 282.563C10.6794 282.082 11.8931 282.372 11.2906 281.659C11.1476 281.493 8.26533 279.295 8.11352 279.124C6.90581 277.822 11.852 280.734 12.133 280.878C15.1776 282.415 12.1326 279.969 11.9824 279.705C11.2729 278.524 12.2402 278.512 11.7885 277.601C11.5005 277.007 8.38189 274.91 8.63105 274.742C9.46739 274.171 13.9615 276.886 10.6965 273.613C10.0017 272.914 6.53122 270.707 9.55977 272.013C9.75392 272.09 12.4435 273.403 11.0903 272.082C10.9195 271.915 9.94439 271.221 9.89076 271.123C9.5477 270.484 10.4557 270.855 10.2905 270.306C10.1459 269.73 9.845 268.99 10.4737 268.834C10.831 268.765 12.8661 269.784 13.4219 269.968C13.8065 270.119 14.0347 270.049 14.2579 269.817C14.2942 269.781 14.4441 269.606 14.6415 269.4C14.7462 269.291 14.8742 269.16 15.0807 268.975C15.1848 268.883 15.3092 268.776 15.4751 268.648C15.4946 268.654 15.7924 268.295 17.1329 267.693C17.8264 267.42 18.8483 266.959 20.8572 267.058C22.817 267.069 25.9767 268.681 27.1948 270.806C29.5059 275.014 28.1731 276.683 28.3139 276.839C28.2759 277.037 28.2376 277.202 28.2012 277.346C28.1283 277.633 28.0633 277.841 28.0072 278.012C27.8949 278.352 27.8155 278.554 27.7523 278.72C27.6253 279.049 27.5649 279.207 27.5549 279.281C27.3944 279.994 27.4768 280.148 26.5857 279.779C24.8385 278.954 22.6353 277.011 21.3262 276.751C23.907 278.487 26.5382 280.296 29.1202 282.062C28.177 283.263 26.7845 283.433 26.3194 284.329C26.266 284.438 27.6991 285.309 27.6779 285.45C27.5823 286.043 26.3454 285.73 26.4476 286.421C26.533 286.958 27.7819 288.276 27.9929 288.774C24.8885 287.02 25.6433 288.097 25.2851 288.077C25.157 288.076 24.3257 287.615 24.0327 287.505C22.9559 287.089 25.7904 288.456 26.2389 288.665C28.278 289.178 21.7065 287.04 22.1739 285.4C22.1681 285.288 23.2756 285.171 24.0899 283.5C25.1013 282.134 24.1663 277.978 23.4836 277.261C19.4104 272.33 18.7023 273.823 18.6268 274.136C18.5321 274.722 18.4169 275.357 16.551 275.143C11.4977 275.385 13.3243 276.86 12.3221 275.843C12.1322 275.565 10.9325 273.527 11.897 275.092C12.0246 275.296 12.6158 276.402 12.6651 276.459C13.5264 277.39 11.6703 273.909 11.1544 272.664C10.6364 271.418 12.2102 273.629 12.6807 274.256C13.8805 275.891 13.0676 275.043 13.1645 275.217C14.3371 277.282 14.3123 276.809 14.5468 276.887C16.6974 280.099 16.8136 279.73 14.7807 276.955C14.5617 276.65 14.6716 277.015 14.5468 276.887C12.5847 273.63 12.2265 273.285 14.544 275.969C15.6486 277.21 16.7622 278.807 16.6705 277.959C16.6295 277.573 14.8245 275.616 14.4522 274.977C13.5709 273.547 15.5988 275.033 15.6056 274.449C15.5977 274.248 14.4323 273.364 14.3836 273.199C14.2407 272.769 15.2096 273.319 14.943 272.762C14.9163 272.712 13.7064 271.783 13.7361 271.716C13.9325 271.196 15.0291 271.356 15.4464 270.781C15.6468 270.505 15.2648 269.532 15.5988 269.299C16.165 268.906 18.5396 269.187 18.3612 268.359C18.2474 267.829 16.8474 267.215 15.9986 266.592C14.3457 265.4 17.8421 266.462 18.3865 266.619C18.4046 266.624 18.5652 267.116 19.356 267.28C20.8743 267.887 18.3914 266.625 18.3865 266.619C18.7351 266.729 19.3734 266.193 19.1734 265.93C19.0639 265.788 17.7348 265.219 17.7022 265.158C16.9529 263.703 17.0277 262.627 18.0842 261.884C18.1187 261.878 19.5909 262.545 19.6535 262.522C20.5685 262.215 18.9156 261.05 18.048 260.09C17.1811 259.13 17.7149 258.876 20.4001 259.65C20.2435 259.124 21.6153 259.03 22.4407 258.991C23.2656 258.954 20.3939 257.669 20.3493 257.615C18.917 255.904 20.8084 256.064 21.5132 255.171C21.8528 254.748 21.8722 253.607 21.8427 252.868C21.8098 252.291 22.6086 252.333 22.3929 251.705C22.3646 251.621 21.0841 251.05 21.0445 251.008C19.7846 249.778 22.7263 251.553 23.3187 251.736C25.4687 252.411 26.6175 252.762 25.9666 251.751C25.8274 251.502 21.6128 248.924 21.45 248.612C21.2452 248.213 22.7669 249.118 22.5105 248.68C22.4899 248.644 21.5208 248.145 21.6371 248.023C22.166 247.447 23.061 247.067 23.2945 246.325C23.3303 246.226 21.7119 245.602 21.737 245.447C21.8575 244.718 22.2405 244.041 23.2683 243.726C23.5264 243.651 24.5871 244.244 24.9309 244.356C27.0149 245.025 24.2626 243.433 24.2283 243.361C23.3592 241.562 26.3881 241.736 25.6427 239.944C25.598 239.841 22.6601 238.063 25.4559 238.894C25.6416 238.95 28.5035 239.797 26.6935 238.843C26.5801 238.784 25.0969 238.375 25.3428 238.174C25.5889 237.971 24.7945 237.191 26.5027 237.431C27.0404 237.508 29.9191 238.282 27.8367 237.103C27.6922 237.018 22.8796 234.626 26.4067 235.722C26.9871 235.903 30.6361 237.289 28.9126 236.179C28.5777 235.965 27.7079 235.808 27.2741 235.413C26.6042 234.806 27.7416 234.738 26.2479 233.754C25.9834 233.58 23.5936 232.397 25.5706 232.839C25.8803 232.908 27.0825 233.416 27.2644 233.34C28.1355 232.979 27.534 232.063 28.5987 231.745C28.9736 231.631 30.9248 232.434 31.5378 232.389C32.1505 232.344 32.8246 232.054 31.9969 231.5C31.1687 230.946 27.9026 230.121 27.771 229.676C27.1985 227.742 29.5901 226.798 30.3998 225.272C30.5201 225.045 29.3139 224.866 29.4093 224.506C29.7551 223.178 29.4428 220.531 32.2542 220.168C34.5047 219.882 35.5907 221.546 36.6169 221.098C37.1074 220.882 33.5306 219.271 33.4423 219.148C32.5325 217.935 34.3636 217.916 34.1129 217.005C34.0608 216.817 32.5119 216.457 32.4843 216.302C32.3766 215.767 33.2079 215.519 33.2364 215.04C33.2458 214.824 32.0916 214.465 32.2424 214.314C32.5901 213.949 33.203 213.733 34.4166 213.695C34.5271 213.692 35.8557 214.445 36.0182 214.15C36.2756 213.677 37.5574 213.407 36.6612 212.486C36.3917 212.207 33.7926 211.275 35.7113 211.57C36.112 211.631 39.2049 212.832 36.6459 211.473C36.2219 211.244 32.8099 209.298 35.273 209.798C35.9213 209.93 38.559 210.606 38.2223 210.275C38.1669 210.227 36.731 209.841 36.6485 209.637C36.3818 208.927 36.7261 208.41 36.4757 207.701C36.4058 207.511 34.8778 207.238 34.8194 206.973C34.6561 206.245 35.2795 205.611 35.9345 205.157C36.1785 204.992 37.336 205.542 37.4727 205.569C39.6969 206.009 36.8608 204.909 36.7203 204.768C35.8859 203.906 37.3761 203.935 37.1747 203.324C37.1226 203.157 35.7119 202.814 35.5975 202.747C34.4842 202.085 36.8962 203.083 37.2261 202.992C38.1581 202.74 38.2239 202.142 38.2037 201.582C38.1942 201.376 36.5255 201.087 36.5351 200.909C36.5608 199.846 37.0197 198.881 38.1894 198.183C38.4126 198.053 39.6203 198.53 39.9148 198.575C41.9752 198.893 39.3804 197.72 39.1472 197.56C38.084 196.823 39.2269 196.985 39.1219 196.574C38.5875 194.57 39.8801 192.67 40.7408 191.161C41.8535 189.2 43.4384 187.819 43.5651 185.715C43.5745 185.582 41.8646 185.351 41.8508 185.233C41.749 183.727 42.6884 182.457 42.465 180.938C42.4495 180.815 40.8149 180.685 40.7357 180.478C40.5621 180.053 40.7358 179.589 41.3165 179.293C41.5968 179.148 42.9306 179.644 43.1848 179.491C43.78 179.135 43.9767 178.672 43.795 178.169C43.7141 177.955 42.0199 177.976 42.0424 177.721C42.1618 175.975 42.1214 174.278 44.49 172.803C44.6525 172.702 48.0292 173.024 47.4172 172.68C46.4862 172.543 45.388 172.406 44.3913 172.273C44.1704 169.683 45.5901 167.294 45.9635 164.732C45.9788 164.624 44.1737 164.677 44.194 164.47C44.3089 163.269 43.8839 162.086 45.7296 160.934C45.9102 160.82 49.0635 161.04 48.604 160.645C48.5201 160.576 48.1245 160.001 47.4451 159.828C47.3425 159.805 45.8646 159.842 45.8292 159.663C45.649 158.624 46.0203 157.568 46.9451 156.55C47.0971 156.387 48.6635 156.6 48.7854 156.483C49.6382 155.649 48.4578 154.697 49.8896 153.892C50.8535 153.347 53.5672 153.567 56.2411 153.275C56.6184 153.233 56.679 152.878 58.2339 152.861C62.1442 152.817 66.4255 153.004 70.5935 152.936C71.4913 152.922 70.5246 152.406 72.6939 152.712C72.8392 152.733 73.5586 153.11 74.2942 153.206C74.8028 153.273 76.3846 153.159 77.0355 153.295C77.6858 153.432 76.3596 153.573 77.1235 153.799C77.8969 154.025 79.6968 153.939 79.9061 154.389ZM26.1407 258.806C27.6599 259.101 22.609 256.841 23.6744 257.711C23.7319 257.755 26.0657 258.793 26.1407 258.806ZM23.4097 280.988C21.1861 279.9 23.9327 282.228 25.6366 283.086C27.3371 283.946 24.086 281.314 23.4097 280.988ZM16.1695 273.934C18.0277 274.661 11.8236 269.856 12.718 271.309C12.7673 271.393 16.0602 273.894 16.1695 273.934ZM56.9916 154.687C57.0652 154.684 57.1395 154.431 57.0667 154.424C55.3108 154.272 55.1635 154.774 56.9916 154.687ZM15.1704 278.737C16.14 279.196 15.3749 278.139 14.1703 277.565C13.2004 277.104 13.9611 278.171 15.1704 278.737ZM38.671 245.892C38.7493 245.918 38.8884 245.773 38.4552 245.601C37.0597 245.048 37.3553 245.445 38.671 245.892ZM11.3642 285.534C12.1748 284.4 18.165 286.989 17.1131 287.474C16.917 287.581 15.4118 286.236 14.7813 286.202C13.5984 286.218 17.2547 288.012 15.1106 287.549C14.6873 287.543 11.2863 285.631 11.3568 285.528C11.3593 285.53 11.3617 285.532 11.3642 285.534ZM32.3111 261.283C32.3808 261.306 32.5481 261.096 32.4842 261.062C30.9318 260.227 30.5913 260.655 32.3111 261.283ZM45.7012 236.795C45.8534 236.832 46.1886 236.305 46.059 236.24C43.4435 235.011 42.7611 236.064 45.7012 236.795ZM28.0938 279.241C29.389 280.485 29.3147 280.96 27.3558 279.886C27.6334 279.697 27.8277 279.444 28.0938 279.241Z" fill="white"/>
<path d="M91.4845 162.81C91.9664 164.042 91.4511 165.657 90.7437 166.884C90.5244 167.269 89.5437 167.074 89.3481 167.34C88.9668 167.859 89.4478 168.343 88.9936 168.856C88.8382 169.026 87.2849 168.814 87.1576 168.993C86.4711 169.97 86.8667 170.895 86.5365 171.885C84.9074 176.761 84.3243 181.554 83.6166 186.49C83.3845 188.118 81.9748 190.096 82.5913 191.777C82.6647 191.974 84.0281 191.857 84.1405 191.894C85.8608 192.48 83.1083 192.285 82.7426 192.667C81.2986 194.185 81.1731 195.872 81.6993 197.333C81.9271 197.954 84.6353 197.331 83.1152 197.957C83.0125 198 81.5646 197.843 81.4102 198.013C81.0629 198.399 81.3217 199.133 81.207 199.432C80.9785 200.009 80.9931 200.105 80.9766 200.651C80.9415 201.397 80.2217 202.285 80.5498 203.085C80.6241 203.256 82.1084 203.03 82.3609 203.303C82.6131 203.575 82.4873 204.297 82.1374 204.541C81.7873 204.784 80.6207 204.68 80.3533 204.723C78.0964 205.078 81.2222 205.913 81.2995 206.02C82.6167 207.979 80.836 209.658 80.8411 211.497C80.8487 212.892 81.4366 214.385 81.356 215.713C81.2542 217.295 80.4499 218.636 80.5882 220.173C80.6011 220.335 82.3462 220.145 82.3655 220.343C82.5685 222.448 82.3783 224.538 81.2002 226.634C81.0805 226.844 79.5483 226.573 79.3371 226.783C78.0779 228.069 75.053 230.103 81.7241 230.867C81.4636 231.738 81.1945 232.795 79.8497 233.574C78.9842 234.077 77.315 233.589 78.0273 234.206C78.186 234.345 79.6478 234.164 79.7752 234.373C80.3103 235.251 79.8352 236.211 80.5904 237.081C80.7475 237.258 82.0573 237.209 82.2932 237.259C84.2034 237.68 81.0457 238.381 80.8163 238.534C79.1053 239.698 79.7786 240.548 79.7368 241.631C79.7264 241.883 81.4858 241.586 81.5389 241.828C81.7861 243.084 81.6628 244.356 80.8215 245.899C80.6308 246.219 79.1452 245.861 78.9775 246.006C78.2557 246.613 81.0741 246.909 80.4226 247.508C80.2888 247.632 79.0137 247.471 78.8715 247.485C76.6406 247.693 79.7408 248.24 79.8016 248.345C80.642 249.652 77.3057 250.071 77.6248 251.232C77.6655 251.375 79.3158 251.275 79.3305 251.67C79.4365 254.3 78.4752 256.979 76.585 259.132C76.293 259.467 75.1826 258.888 75.0306 258.875C72.6592 258.665 75.6367 259.709 75.7158 259.87C76.2659 261.097 73.4738 261.2 76.8136 263.042C73.589 267.886 75.9188 268.558 70.8398 273.693C70.7775 273.742 69.3878 273.047 69.2748 273.134C67.8969 274.098 70.2047 274.81 72.224 277.24C72.7122 277.878 69.2768 276.67 69.0349 276.561C68.106 276.23 66.2838 274.799 66.0891 274.758C64.575 274.409 70.9861 278.543 70.5183 279.235C70.4938 279.249 69.3944 278.37 69.2416 278.346C68.7644 278.267 69.1103 278.748 68.6036 278.63C67.4369 278.35 64.3082 276.355 65.7183 278.108C65.9064 278.329 69.5203 280.704 69.0394 281.05C68.8329 281.198 68.4281 281.968 68.0932 281.997C67.7456 282.039 66.6061 281.225 66.5472 281.206C64.6192 280.88 64.0711 280.292 61.4318 279.466C58.756 278.759 64.7143 281.336 65.3375 281.712C65.9685 282.056 64.3475 282.036 63.7879 282.017C63.2363 281.976 62.4821 281.472 62.1521 281.494C59.9955 281.634 64.9942 283.061 65.8306 283.742C67.7997 285.375 63.1272 284.08 62.4376 284.492C62.2498 284.606 63.314 284.904 63.3443 285.093C63.4493 285.836 61.9231 285.579 62.891 286.79C63.0488 286.988 65.4537 288.695 63.365 288.168C63.0642 288.092 62.0306 287.467 61.6774 287.6C61.148 287.797 60.619 288.34 60.8151 288.888C60.9606 289.292 62.9103 289.765 62.1927 289.872C61.8725 289.92 60.9443 289.161 60.4302 289.291C59.9162 289.42 59.6329 290.203 59.5476 290.507C59.4626 290.812 60.9095 291.237 60.9924 291.3C61.4649 291.665 61.912 292.471 61.8906 292.519C60.7382 295.774 57.1479 296.568 56.6336 299.26C56.591 299.467 58.0377 300.115 58.0455 300.155C58.2989 301.065 54.8803 298.567 53.4086 298.329C56.2583 299.798 55.6089 299.774 55.6967 300.36C55.7416 300.643 56.8992 301.109 57.0018 301.187C58.5222 302.346 56.2615 301.422 55.788 301.254C54.0518 300.627 55.8845 301.806 54.7198 301.402C53.5572 301.015 52.0939 299.897 51.9037 300.35C52.8874 300.954 55.7348 301.945 56.0408 302.437C56.9437 304.519 55.5878 303.784 53.4615 307.317C51.2692 309.544 50.7418 309.333 49.5928 309.328C47.789 308.925 48.7389 310.99 47.6113 312.082C46.4301 313.113 47.1031 307.627 46.9852 306.453C46.9197 305.275 46.7805 306.482 46.6887 305.83C46.611 305.178 46.8803 304.392 46.6542 304.136C46.4521 303.886 45.5216 305.883 45.2013 307.076C44.5823 309.617 44.562 312.393 43.7625 311.279C43.7198 311.214 44.1448 309.828 43.9741 309.649C42.5977 308.266 41.1846 307.778 40.1499 306.388C40.0096 306.195 40.6968 304.738 40.6249 304.61C39.8894 303.262 39.3918 305.949 37.6757 308.506C39.2499 304.834 39.7851 302.431 39.0512 302.103C38.6 301.898 38.0017 303.536 37.1975 304.528C36.9519 304.825 37.0945 303.58 36.6998 304.301C35.3962 306.652 34.5008 309.545 34.0949 308.041C34.08 307.972 34.8227 306.7 34.7275 306.557C34.1246 305.63 32.8084 308.108 31.6942 307.92C30.8213 307.774 30.3451 305.564 29.7048 304.859C31.9899 300.999 30.796 301.483 28.8622 303.922C28.4256 303.503 27.7797 303.294 27.5409 302.618C27.4586 302.387 28.293 301.382 28.3509 301.252C29.2867 299.227 27.3824 301.568 27.2043 301.588C25.385 301.711 25.9105 299.244 23.4356 300.06C23.3495 300.091 21.2384 302.389 22.448 300.421C22.5371 300.29 23.8189 299.532 23.4017 299.014C22.9683 298.479 23.3209 296.503 21.6575 296.801C21.2604 296.882 18.8967 298.015 20.1384 296.392C20.3086 296.174 21.0561 295.679 21.3937 295.303C22.4875 294.126 19.8471 295.855 21.8449 294.043C23.8441 292.225 25.361 290.914 23.4814 291.26C23.4318 291.28 21.0694 292.13 20.9926 291.829C20.8835 291.379 21.2328 290.696 21.1691 290.281C21.1369 290.079 19.6021 290.303 19.5697 290.266C18.6484 288.696 20.06 287.872 20.638 286.364C20.7484 286.091 18.6263 285.338 20.2934 284.797C22.1187 284.212 29.734 284.729 27.9124 283.451C27.1844 282.945 17.5237 282.279 22.53 281.333C21.2969 279.474 23.8846 277.841 22.1931 275.947C22.1182 275.863 19.4373 275.477 19.4837 275.277C19.5577 274.982 20.8244 274.886 20.9186 274.683C21.3456 273.834 20.3256 272.96 20.5654 272.122C20.654 271.805 21.9413 272.032 22.0485 271.663C22.1551 271.296 20.4738 270.866 21.3543 270.438C22.026 270.112 25.5507 270.159 26.0179 269.745C22.5925 269.272 22.7058 268.941 21.8969 268.183C21.7402 268.036 20.5305 267.985 20.3951 267.905C19.8186 267.57 20.8388 267.507 20.2098 267.173C20.059 267.091 18.8946 266.894 18.7059 266.814C17.0578 266.121 19.7962 265.925 20.2699 265.915C22.0739 265.839 20.6076 265.347 21.3519 265.175C22.0947 265.013 22.8409 265.65 23.3271 265.391C24.3323 264.858 24.3702 263.935 24.631 263.25C24.7276 262.976 23.1615 262.712 23.1404 262.662C22.9444 261.925 24.7259 261.9 21.8983 260.49C29.6703 262.887 21.2875 259.841 23.175 259.533C23.3277 259.511 26.8816 260.963 27.3118 261.394C27.7436 261.819 26.4965 261.707 27.2048 262.326C27.3652 262.485 30.6239 264.061 30.819 264.167C32.313 265.066 26.8327 263.377 26.522 263.313C23.1837 262.586 26.7276 264.282 26.9554 264.468C27.9659 265.42 27.0559 265.76 27.7934 266.49C28.2707 266.962 31.9471 267.747 31.7854 267.969C31.2586 268.685 26.0199 268.229 30.3881 269.764C31.3216 270.088 35.4142 270.463 32.1295 270.66C31.9229 270.666 28.9276 270.798 30.7515 271.305C30.9815 271.367 32.1711 271.501 32.2659 271.559C32.878 271.938 31.908 272.042 32.329 272.429C32.7503 272.816 33.3931 273.278 32.9576 273.639C32.697 273.854 30.45 274.005 29.8969 274.09C28.3038 274.325 30.8558 274.852 28.9421 274.953C27.0183 275.065 24.1397 274.455 22.8717 274.993C25.9765 275.18 29.1619 275.396 32.284 275.59C32.113 276.778 31.0699 277.962 31.186 279.234C31.2036 279.391 32.8781 279.259 32.9401 279.426C33.1951 280.129 31.998 280.743 32.4706 281.492C32.8429 282.071 34.6146 282.704 35.0638 283.315C31.5065 283.706 32.7216 284.622 32.4031 285.312C32.293 285.552 31.3423 285.545 31.0339 285.718C29.8934 286.377 33.0354 286.043 33.5321 286.216C35.6518 286.958 28.5346 287.1 28.7177 288.018C28.7251 288.067 32.5236 288.652 32.7602 288.735C34.3035 289.266 31.44 288.828 31.1608 289.162C30.633 289.889 29.8108 289.834 30.8683 289.142C31.2051 289.008 33.2942 287.597 31.4276 287.871C31.188 287.917 30.036 288.415 29.9585 288.418C28.7055 288.597 32.2855 286.978 33.3423 286.13C34.3926 285.293 32.1408 286.826 31.5605 287.359C30.0052 288.665 30.8202 287.817 30.6623 287.937C28.6974 289.262 29.1243 289.161 29.0837 289.431C26.0631 291.843 26.4941 292.002 29.0561 289.702C29.3375 289.453 28.9671 289.569 29.0837 289.431C32.1602 287.206 32.5144 286.881 30.1705 289.563C29.0867 290.831 27.5514 292.04 28.5389 292.023C28.9794 292.005 30.7391 290.006 31.3989 289.631C32.8779 288.75 31.8039 291.093 32.5562 291.184C32.8213 291.21 33.5428 289.926 33.7494 289.9C34.2941 289.821 33.9309 290.911 34.5947 290.695C34.6549 290.673 35.4643 289.378 35.575 289.433C36.4278 289.816 36.6073 291.094 37.5069 291.656C37.94 291.928 39.1399 291.633 39.5195 292.021C40.1705 292.687 40.2706 295.191 41.2284 295.019C41.8445 294.91 42.3338 293.459 42.923 292.58C44.0351 290.864 43.328 294.457 43.2391 295.019C43.2376 295.039 42.7115 295.223 42.6466 296.036C42.1963 297.61 43.234 295.025 43.2391 295.019C43.1665 295.38 43.8484 295.99 44.0877 295.76C44.2196 295.636 44.6272 294.249 44.6847 294.209C46.0454 293.296 46.8755 293.109 47.1577 293.828C47.1607 293.858 46.9246 295.457 46.9394 295.508C47.1397 296.264 47.4791 294.271 47.0276 293.108C46.6298 291.932 45.3959 292.525 45.5349 295.426C44.6334 295.269 42.5252 297.953 42.1727 300.185C41.9861 302.011 39.198 301.001 39.0484 301.168C38.3201 301.901 38.0353 302.883 37.9804 302.338C37.9519 301.716 38.156 300.9 38.4548 300.201C39.0581 298.801 39.8362 298.202 40.3799 297.205C40.8956 296.27 41.2248 294.519 41.3125 293.605C41.3789 292.87 42.2126 292.875 42.0721 292.146C42.0539 292.047 40.7861 291.447 40.7502 291.4C39.5912 290.026 42.4433 291.948 43.0413 292.13C45.2114 292.8 46.3736 293.147 45.8222 291.997C45.6955 291.734 41.6503 288.874 41.5458 288.475C41.4159 287.964 42.8821 288.961 42.7007 288.414C42.6863 288.369 41.7362 287.834 41.8925 287.657C42.5979 286.841 43.6648 286.22 43.7955 285.699C43.8083 285.649 42.234 284.932 42.2089 284.883C41.8278 285.285 42.7371 283.239 43.9002 282.609C44.204 282.424 45.241 283.076 45.5956 283.162C47.7411 283.684 45.0597 281.932 45.0405 281.827C44.4864 279.327 47.6942 279.194 47.0836 277.132C47.0496 277.008 44.1602 275.128 46.9559 275.96C47.142 276.015 50.0029 276.868 48.2001 275.893C48.0874 275.831 46.5918 275.457 46.8526 275.213C47.0788 274.994 47.0754 272.418 49.0457 272.342C49.6926 272.252 52.6156 273.086 51.0291 271.153C50.9006 271.038 47.1268 267.012 50.4202 268.73C50.9593 269.017 54.1739 271.225 52.9443 269.479C52.7045 269.143 51.8429 268.859 51.6052 268.246C51.2356 267.307 52.4638 267.378 51.2671 266.048C51.0612 265.804 49.0116 264.107 50.7651 265.098C51.0416 265.251 52.1081 266.001 52.2759 266.01C53.09 266.042 52.3175 265.579 52.9827 266.303C53.2223 266.551 55.1973 267.28 55.6582 267.662C56.0807 268.18 56.7354 267.924 55.8063 267.647C54.9026 267.289 51.6066 266.638 51.3854 266.404C50.9175 265.872 51.3068 264.696 52.1465 262.851C52.8127 261.346 55.0819 257.258 55.1545 257.524C55.2508 257.403 54.1062 257.03 54.1459 256.868C54.331 256.208 53.8629 253.922 56.5884 253.431C58.7914 252.99 60.0346 254.515 61.0162 253.963C61.4887 253.675 57.7539 252.469 57.6492 252.369C56.5918 251.319 58.3929 251.074 57.9923 250.234C57.9081 250.064 56.3223 249.962 56.2671 249.824C56.0641 249.353 56.8277 249.002 56.7536 248.568C56.7164 248.375 55.5132 248.259 55.6262 248.104C55.8824 247.732 56.4247 247.445 57.5901 247.156C57.6964 247.128 59.1686 247.524 59.2538 247.218C59.3865 246.729 60.5495 246.165 59.4258 245.544C59.0874 245.362 56.3304 245.22 58.2473 245.001C58.6472 244.958 61.9604 245.129 59.1064 244.702C58.6335 244.627 54.7777 244.007 57.2668 243.467C57.9224 243.343 60.6358 243.027 60.2093 242.754C60.1413 242.717 58.658 242.866 58.5134 242.64C58.0293 241.842 58.1875 241.007 57.723 240.188C57.596 239.969 56.0611 240.295 55.9208 239.969C55.5329 239.073 55.9237 237.954 56.4041 237.077C56.5842 236.754 57.8556 236.978 57.994 236.954C60.2445 236.576 57.2068 236.352 57.0297 236.227C55.9691 235.447 57.396 234.852 57.0184 234.133C56.918 233.934 55.4696 234.075 55.3405 234.035C54.0786 233.626 56.6797 233.931 56.9664 233.672C57.7783 232.945 57.6619 232.134 57.4768 231.4C57.4067 231.13 55.7272 231.433 55.6837 231.191C55.3943 229.757 55.555 228.266 56.4809 226.866C56.6583 226.603 57.9515 226.769 58.2469 226.714C60.3134 226.335 57.4946 225.78 57.2261 225.653C56.0001 225.072 57.1438 224.847 56.9303 224.334C55.8675 221.83 56.625 218.739 57.0929 216.375C57.6951 213.295 58.9254 210.905 58.606 207.968C58.5873 207.782 56.8669 207.97 56.8287 207.809C56.4139 205.731 57.0862 203.686 56.5893 201.604C56.5516 201.433 54.9206 201.68 54.8052 201.406C54.5572 200.843 54.6458 200.131 55.1666 199.562C55.4175 199.285 56.817 199.657 57.041 199.378C57.5657 198.728 57.6818 198.031 57.4204 197.363C57.3055 197.079 55.6375 197.508 55.6182 197.138C55.4527 194.622 55.1655 192.152 57.3255 189.609C57.4739 189.435 60.864 189.282 60.2139 188.912C59.273 188.884 58.1663 188.885 57.1606 188.873C56.6189 185.211 57.7942 181.586 57.9759 177.913C57.9832 177.758 56.1869 178.026 56.1918 177.726C56.2184 175.991 55.7208 174.306 57.5062 172.531C57.6808 172.355 60.8408 172.445 60.3629 171.927C60.2757 171.835 59.8543 171.053 59.1683 170.851C59.0648 170.824 57.5898 170.966 57.5468 170.715C57.3228 169.251 57.6596 167.717 58.5608 166.256C58.7091 166.02 60.2798 166.271 60.399 166.103C61.2329 164.912 60.0388 163.616 61.465 162.478C62.4252 161.716 65.1404 161.998 67.813 161.593C68.1901 161.536 68.2498 161.064 69.8048 161.039C73.715 160.977 77.9966 161.205 82.1645 161.112C83.0622 161.092 82.0953 160.46 84.2647 160.834C84.4099 160.86 85.1299 161.318 85.8658 161.431C86.3746 161.51 87.9561 161.368 88.6074 161.528C89.2581 161.689 87.9325 161.865 88.6977 162.131C89.4724 162.396 91.2715 162.279 91.4845 162.81ZM44.8007 302.024C46.4586 301.611 41.1779 299.939 42.1835 301.364C42.239 301.435 44.7182 302.051 44.8007 302.024ZM26.9039 277.854C24.4501 278.319 28.0311 278.757 29.9233 278.435C31.8137 278.123 27.6478 277.717 26.9039 277.854ZM25.4195 272.372C23.4494 272.823 31.2641 273.535 29.7345 272.801C29.6481 272.759 25.5339 272.347 25.4195 272.372ZM68.5741 163.471C68.6475 163.465 68.7192 163.126 68.6463 163.118C66.889 162.937 66.747 163.615 68.5741 163.471ZM24.2086 266.816C23.1288 266.809 24.2377 267.574 25.5787 267.571C26.6551 267.577 25.5486 266.837 24.2086 266.816ZM59.949 283.442C60.0274 283.469 60.1908 283.276 59.7602 283.097C58.3732 282.523 58.6322 282.994 59.949 283.442ZM27.0197 258.45C26.1846 259.276 19.8644 257.467 21.3929 256.112C21.6633 255.891 22.8862 257.702 23.5923 257.619C24.8349 257.55 21.6046 255.016 23.8691 255.542C24.2547 255.678 27.0603 258.434 27.0263 258.457C27.0241 258.455 27.0219 258.452 27.0197 258.45ZM51.3439 303.252C51.4163 303.26 51.5747 302.961 51.5089 302.932C49.8885 302.215 49.5311 302.945 51.3439 303.252ZM69.8301 272.017C69.9917 272.037 70.3644 271.205 70.2285 271.141C67.543 270.058 66.8432 271.506 69.8301 272.017ZM29.7531 304.749C28.515 306.071 27.9598 305.977 28.8625 303.925C29.1344 304.233 29.4677 304.454 29.7531 304.749Z" fill="white"/>
<path d="M61.4135 229.428C61.9117 231.055 61.4375 233.235 60.7704 234.936C60.5635 235.469 59.5768 235.225 59.39 235.595C59.0262 236.318 59.5242 236.977 59.0889 237.701C58.9399 237.941 57.3793 237.688 57.2586 237.939C56.6086 239.32 57.0402 240.605 56.7481 242.013C55.3044 248.949 54.895 255.939 53.9395 263.264C53.6265 265.687 52.0576 268.551 52.4552 271.124C52.5031 271.426 53.8765 271.366 53.9836 271.432C55.619 272.478 52.9031 271.938 52.4852 272.479C50.8313 274.636 50.3979 277.115 50.5669 279.41C50.6411 280.387 53.4693 279.868 51.809 280.594C51.6965 280.644 50.3093 280.161 50.1131 280.398C49.6725 280.932 49.7216 282.113 49.5197 282.549C49.1251 283.385 49.1106 283.528 48.9239 284.334C48.7992 284.816 48.4174 285.776 48.4033 284.968C48.2318 285.286 48.0984 285.909 48.2324 286.461C48.2933 286.706 49.7932 286.464 50.0238 286.869C50.0813 286.97 50.1127 287.117 50.1203 287.297C50.1238 287.391 50.1218 287.487 50.1115 287.621C50.1062 287.69 50.0993 287.763 50.0871 287.876C50.0814 287.926 50.0728 288.008 50.059 288.123C50.0516 288.183 50.0457 288.237 50.0229 288.407C49.8909 288.907 50.4375 287.337 49.4955 290.518C49.258 291.054 49.136 291.775 47.7362 293.431C47.0072 294.229 45.7772 295.45 43.4162 296.171C41.0788 296.984 37.4258 296.29 35.7432 295.065C32.3084 292.561 32.4603 291.192 32.0554 290.459C31.7837 289.705 31.7209 289.34 31.6592 289.047C31.4582 287.872 31.5611 288.387 31.5267 288.133C31.5049 287.893 31.4986 287.729 31.4971 287.67C31.4939 287.542 31.4949 287.456 31.4965 287.375C31.5014 287.267 31.5087 287.149 31.5181 287.092C31.5368 286.955 31.561 286.861 31.5895 286.772C31.6465 286.603 31.7199 286.493 31.8073 286.405C32.1571 286.067 33.3238 286.21 33.5911 286.15C35.8477 285.654 32.7176 284.506 32.6394 284.358C31.3095 281.647 33.0651 279.272 33.0455 276.664C33.0266 274.685 32.4354 272.548 32.5314 270.63C32.652 268.343 33.4917 266.411 33.4323 264.162C33.4279 263.924 31.6738 264.14 31.6652 263.847C31.5746 260.775 31.962 257.355 33.5901 254.275C33.7535 253.969 35.2136 254.593 35.4671 254.305C36.9833 252.503 40.4849 250.254 34.1959 247.766C34.7199 246.522 35.3385 245.027 36.9164 244.228C37.932 243.715 39.3829 244.806 38.9062 243.766C38.8011 243.531 37.3186 243.434 37.269 243.107C37.0627 241.724 37.8783 240.492 37.4789 239.082C37.3944 238.793 36.1123 238.517 35.9039 238.384C34.2228 237.287 37.5385 237.147 37.8178 237.001C39.9143 235.855 39.597 234.517 40.0561 233.062C40.1624 232.727 38.3602 232.631 38.3966 232.31C38.481 231.099 38.9652 229.42 40.1214 227.775C40.3835 227.41 41.7661 228.102 41.9661 227.945C42.8309 227.257 40.1168 226.421 40.9316 225.68C41.1004 225.524 42.3171 225.946 42.4621 225.947C44.7327 225.993 41.8326 224.73 41.8101 224.557C41.4556 222.424 44.8978 222.397 45.4438 220.36C45.5102 220.115 43.8146 219.827 44.103 219.171C44.5546 218.171 44.8708 217.518 45.5634 216.498C45.6969 216.303 46.0412 215.822 46.383 215.429C46.5539 215.244 46.7672 214.942 47.5222 214.314C47.9049 214.012 48.3945 213.625 49.3626 213.219C49.4806 213.16 51.7159 212.247 54.0334 212.994C56.463 213.699 57.9618 215.79 58.4012 216.946C59.67 221.416 58.6939 220.706 58.7576 221.385C58.6511 221.862 58.541 222.206 58.4471 222.468C57.6448 224.642 56.6749 225.985 55.4949 227.397C55.1351 227.812 54.1089 227.058 53.9564 227.038C51.5692 226.74 54.4105 228.138 54.4615 228.345C54.8221 229.857 51.9115 230.114 55.11 232.264C51.9292 237.055 51.9027 242.924 46.7993 246.824C46.738 246.875 45.3368 246.201 45.2207 246.305C43.8062 247.553 46.1693 248.121 48.5215 250.21C49.1119 250.736 45.4885 250.247 45.2183 250.223C44.2236 250.133 42.1728 249.041 41.9664 249.06C40.33 249.244 47.4923 251.866 47.1302 252.816C47.1069 252.841 45.8442 252.214 45.6833 252.243C45.1791 252.334 45.6059 252.779 45.0621 252.848C43.806 253.002 40.266 251.884 41.9565 253.502C42.1773 253.709 46.2801 255.09 45.7682 255.86C45.5606 256.165 45.058 257.698 44.6407 258.01C44.2223 258.325 43.0257 257.548 42.958 257.556C40.8041 258.043 40.2514 257.344 37.4824 256.954C34.7231 256.569 40.8539 258.688 41.4458 259.171C42.0372 259.649 40.3 259.954 39.7279 259.976C39.1558 259.997 38.4208 259.432 38.0723 259.51C35.7906 260.037 40.894 261.158 41.7141 261.907C43.6619 263.666 38.8719 262.762 38.1258 263.437C37.9198 263.632 39.0198 263.811 39.0398 264.056C39.1044 265.029 37.5342 264.962 38.4917 266.383C38.6466 266.617 41.1216 268.296 38.9568 268.066C38.6429 268.038 37.5778 267.45 37.2003 267.723C36.6315 268.137 36.0831 268.944 36.2703 269.663C36.4164 270.171 38.4501 270.301 37.6999 270.628C37.3663 270.771 36.3999 270.001 35.8652 270.3C35.3321 270.582 35.0534 271.701 34.9864 272.12C34.9151 272.547 36.425 272.698 36.5135 272.758C37.0187 273.103 37.5362 274.026 37.5207 274.091C36.9289 277.425 34.0523 280.505 34.7266 284.177C34.7781 284.462 36.3642 284.339 36.3883 284.383C37.0134 285.355 32.8442 284.443 31.4165 285.095C34.6237 285.093 34.0291 285.479 34.3673 286.173C34.5333 286.506 35.7776 286.347 35.904 286.379C37.7809 286.883 35.3442 287.182 34.8453 287.271C33.0105 287.588 35.1753 287.953 33.9505 288.184C33.3426 288.304 32.5883 288.226 31.9887 288.203C31.689 288.192 31.4279 288.201 31.2431 288.253C31.1507 288.282 31.0774 288.302 31.0278 288.363C31.0029 288.394 30.9842 288.406 30.9715 288.448C31.3347 288.455 29.4088 288.456 32.0625 288.455C32.0647 288.453 32.0664 288.446 32.0677 288.436C32.0703 288.408 32.0713 288.402 32.0705 288.379C30.9226 288.178 27.9253 288.734 27.4384 288.178C25.605 286.142 27.9801 282.587 28.4118 280.711C28.8215 279.143 28.6964 278.553 29.24 277.682C30.2364 276.112 27.9449 276.389 27.1235 275.143C26.3125 273.886 31.6056 275.391 32.7897 275.453C33.9723 275.525 32.8104 275.151 33.4789 275.095C34.1468 275.043 34.8622 275.563 35.1772 275.208C35.4892 274.859 33.6646 273.34 32.495 272.931C30.0129 272.075 27.222 272.025 28.4122 271.087C28.4823 271.035 29.8407 271.556 30.0377 271.341C31.5554 269.625 32.1281 267.655 33.5923 266.021C33.7956 265.798 35.2759 266.454 35.4115 266.33C36.8295 265.05 34.0744 264.885 31.4383 263.191C35.2202 264.483 37.6999 264.684 38.0646 263.525C38.2865 262.827 36.5795 262.454 35.5386 261.644C35.2248 261.4 36.5216 261.242 35.7639 260.915C33.2883 259.843 30.272 259.452 31.7871 258.57C31.8577 258.533 33.2095 259.13 33.3508 258.97C34.2705 257.944 31.6346 256.981 31.7051 255.593C31.7599 254.51 33.938 253.219 34.5724 252.131C38.845 253.501 38.2061 252.113 35.4064 250.718C35.7726 249.996 35.8767 249.125 36.5331 248.527C36.7574 248.322 37.9295 248.91 38.0732 248.923C40.3191 249.163 37.5902 247.852 37.5381 247.646C37.1948 245.346 39.3646 245.347 38.9714 241.736C38.9809 241.655 38.3508 241.149 38.1825 240.55C38.3697 240.066 36.6977 238.873 42.5931 238.792C42.7888 238.725 40.0457 239.82 40.3271 240.315C40.3052 240.567 40.4227 240.684 40.9693 240.567C41.138 240.157 45.2994 240.821 45.4639 242.245C46.4892 245.481 44.1286 245.833 45.6041 247.346C45.9329 247.646 48.392 248.64 46.3678 249.034C46.0931 249.087 45.2118 248.912 44.706 248.975C43.0928 249.19 46.2095 249.682 43.5053 249.803C40.7993 249.927 38.7254 250.527 40.3963 251.842C40.4447 251.881 42.8786 252.495 42.7809 252.854C42.6245 253.422 41.9678 254.136 41.8674 254.725C41.8201 255.009 43.3764 255.132 43.3944 255.187C43.8508 257.311 42.1647 258.388 41.0433 260.225C40.8364 260.557 42.569 262.204 40.7543 262.446C38.7689 262.703 31.7128 259.744 32.9306 261.974C33.4165 262.865 42.3501 266.658 37.1724 266.435C37.5712 269.284 34.3771 270.843 35.3422 273.885C35.3842 274.022 37.8743 275.118 37.7662 275.367C37.6 275.739 36.3267 275.619 36.17 275.88C35.4827 276.968 36.2569 278.314 35.8407 279.411C35.6859 279.83 34.4455 279.401 34.2624 279.916C34.0815 280.436 35.6953 281.107 34.7528 281.664C34.0369 282.08 30.482 282.075 29.9632 282.815C33.3831 283.335 33.2338 283.838 34.0418 284.826C34.1993 285.015 35.4155 284.966 35.5519 285.06C36.1346 285.439 35.1133 285.634 35.7602 285.989C35.9156 286.075 37.0924 286.175 37.2863 286.246C38.9802 286.834 36.2859 287.437 35.8176 287.586C34.038 288.083 35.5681 288.385 34.8712 288.805C34.1763 289.236 33.3157 288.577 32.8935 289.093C32.0251 290.157 32.216 291.518 32.1617 292.595C32.1473 293.025 33.7238 292.732 33.7583 292.793C34.1581 293.682 32.4813 294.581 35.6214 295.074C27.5022 295.69 36.4089 295.61 34.7836 296.88C34.6521 296.98 30.8126 297.108 30.2489 296.723C29.6858 296.339 30.8859 295.757 30.0073 295.224C29.8011 295.097 26.2032 294.374 25.9853 294.276C24.282 293.503 30.0196 293.393 30.3347 293.352C33.7356 292.889 29.8596 292.005 29.5918 291.772C28.3648 290.701 29.1702 289.833 28.2964 288.892C27.736 288.258 23.9804 288.132 24.1132 287.568C24.5748 285.604 29.8562 285.455 25.5307 283.296C24.6144 282.822 20.4874 282.629 23.8768 281.732C24.0914 281.664 27.1539 281.183 25.4071 280.331C25.1869 280.222 24.0073 280.017 23.9246 279.907C23.3948 279.17 24.41 278.935 24.0955 278.186C23.7817 277.435 23.2915 276.487 23.8609 275.838C24.2027 275.442 26.5059 275.417 27.0857 275.35C28.7526 275.167 26.4146 273.916 28.3487 274.058C30.2894 274.215 32.9221 275.614 34.3486 275.083C31.3575 274.229 28.2998 273.308 25.2998 272.421C25.9692 270.407 27.5166 268.793 27.9732 266.881C28.027 266.643 26.3572 266.379 26.3739 266.11C26.4515 264.98 27.874 264.443 27.7514 263.257C27.6506 262.336 26.2335 260.939 26.053 260.007C29.6075 260.558 28.8144 259.006 29.3664 258.257C29.5591 257.992 30.4676 258.272 30.826 258.144C32.1547 257.651 29.0184 257.187 28.6001 256.842C26.8039 255.395 33.708 257.143 33.8179 255.971C33.8284 255.902 30.3036 254.325 30.0914 254.189C28.7222 253.265 31.4015 254.388 31.7589 254.076C32.408 253.514 33.4032 253.179 32.452 252.211C32.1712 251.918 29.919 251.074 31.7913 250.941C32.0369 250.921 33.2733 251.133 33.3531 251.098C34.6946 250.416 30.7868 249.87 29.5219 249.229C28.2577 248.566 31.0525 247.984 31.846 247.921C33.9083 247.674 32.6754 248.343 32.8708 248.382C35.1969 248.915 34.855 248.272 35.0985 247.811C38.9517 248.115 38.7765 247.451 35.3304 247.37C34.9545 247.358 35.2834 247.731 35.0985 247.811C31.3638 247.016 30.9242 246.496 34.4969 246.027C36.1664 245.825 38.1077 246.092 37.408 245.244C37.087 244.936 34.4104 244.99 33.7123 245.314C33.5217 245.449 33.3846 245.658 33.4419 246.284C33.4734 246.573 33.5325 247.034 33.9482 247.968C34.3542 248.674 35.0022 250.892 38.9099 252.655C43.098 254.435 47.1717 252.333 47.8914 251.735C49.0794 250.891 49.3653 250.438 49.6251 250.114C50.1263 249.425 50.0946 249.254 50.1108 249.064C49.9985 248.515 49.2287 248.855 49.2724 249.278C49.2852 249.619 50.745 249.899 50.8056 250.139C50.9682 250.789 49.7458 250.936 50.045 251.757C50.0741 251.832 51.5584 252.209 51.5075 252.409C51.1506 253.939 49.7605 255.048 49.1943 256.757C48.9255 257.566 49.2585 259.359 48.8131 260.233C48.0555 261.732 45.3524 262.987 45.4778 264.452C45.5541 265.403 47.0726 265.649 47.9629 266.302C49.6908 267.561 45.879 267.766 45.2942 267.784C45.2745 267.784 45.1346 266.965 44.2718 267.135C42.6389 266.913 45.2895 267.774 45.2942 267.784C44.915 267.793 44.1827 269.134 44.3897 269.492C44.502 269.687 45.9201 269.977 45.9526 270.071C46.695 272.287 46.6126 274.158 45.5717 275.821C45.5364 275.847 43.9652 275.465 43.9017 275.532C42.9746 276.457 44.7861 277.523 45.799 278.551C46.8121 279.581 46.3345 280.127 43.5177 280.239C43.7811 280.871 42.4515 281.66 41.6595 282.116C40.8944 282.346 44.0334 282.602 44.0931 282.639C46.0175 283.949 44.2001 284.929 43.9008 286.613C43.8276 287.014 43.9023 287.645 44.0422 288.211C44.0593 288.253 44.08 288.487 44.0964 288.253C44.0966 288.244 44.0967 288.234 44.0968 288.222C44.0968 288.216 44.0968 288.21 44.0968 288.203C44.095 288.174 44.1053 288.326 44.0831 287.822C44.0622 287.614 44.1191 287.69 43.9326 286.427C43.8549 286.039 43.8514 285.648 43.3531 284.202C43.0296 283.442 42.8535 282.397 40.9182 280.108C39.9172 279.003 38.215 277.37 35.1385 276.42C32.0866 275.418 28.0458 275.995 25.6965 277.311C20.9701 280.072 20.7142 282.174 20.0831 283.202C19.59 284.292 19.4583 284.845 19.3372 285.282C19.1228 286.123 19.0913 286.444 19.0485 286.72C18.8618 288.327 18.9523 287.887 18.9314 288.097C18.9261 288.271 18.9277 288.2 18.9262 288.239C18.9243 288.279 18.9229 288.298 18.9215 288.312C18.9188 288.338 18.9164 288.338 18.914 288.338C18.9091 288.338 18.9042 288.329 18.8993 288.315C18.8894 288.284 18.8794 288.262 18.8692 288.223C18.8283 288.088 18.7846 287.908 18.7405 287.745C18.6523 287.416 18.5614 287.097 18.4782 286.826C18.2107 285.955 18.9583 285.477 18.5102 284.683C18.4505 284.575 17.0472 284.639 16.9942 284.605C15.3483 283.661 18.7571 284.206 19.3744 284.049C21.6223 283.481 22.818 283.171 21.8386 282.016C21.6137 281.758 16.7454 280.662 16.4988 280.131C16.1864 279.454 17.9264 279.847 17.5602 279.139C17.5308 279.078 16.443 278.99 16.5318 278.572C16.9306 276.628 17.8481 274.555 18.1341 272.437C18.1779 272.147 16.4074 272.201 16.4456 271.766C16.6227 269.74 17.2572 267.399 18.6491 265.637C18.9813 265.256 20.051 265.895 20.4233 265.909C22.6559 266.057 19.8692 264.405 19.8561 264.253C19.3623 260.894 22.8509 259.648 22.547 256.508C22.5241 256.337 19.7699 254.008 22.6777 254.525C22.8719 254.558 25.8415 255.1 24.101 253.949C23.9922 253.877 22.4412 253.656 22.7908 253.165C23.144 252.663 22.5008 251.466 24.3559 251.313C24.9409 251.262 27.9217 251.763 25.9709 250.239C25.8326 250.138 21.242 247.168 24.836 248.094C25.4268 248.249 29.049 249.703 27.491 248.173C27.1882 247.878 26.2663 247.852 25.916 247.245C25.3751 246.313 26.6739 245.844 25.3472 244.448C25.1116 244.203 22.86 242.676 24.9149 242.934C25.2367 242.975 26.4 243.58 26.63 243.388C27.7282 242.481 27.3807 240.959 28.6742 240.112C29.1297 239.811 31.0131 240.781 31.7062 240.553C32.3989 240.326 33.241 239.652 32.5176 238.853C31.7935 238.055 28.4717 237.338 28.4816 236.567C28.5266 233.211 31.4796 231.03 32.8506 228.24C33.0537 227.827 31.7973 227.751 32.0127 227.12C32.8206 224.749 33.2262 220.432 36.2551 219.465C38.6762 218.709 39.5379 221 40.6974 220.176C41.2788 219.695 37.7106 218.035 37.63 217.88C37.1868 217.237 37.4231 216.67 37.4625 217.508C37.473 217.883 37.4376 217.653 37.4288 219.711C37.4417 220.221 37.4697 220.865 37.6158 221.791C38.0062 222.988 36.968 222.673 40.0692 227.899C41.5789 230.189 44.9415 232.93 48.6395 233.741C52.2772 234.627 55.5273 233.796 56.9162 233.272C58.5638 232.66 59.5334 232.02 60.2505 231.517C62.9449 229.425 62.5735 229.294 62.9239 228.971C63.1509 228.695 63.2776 228.555 63.3428 228.576C63.4579 228.597 64.7545 229.509 64.8309 229.528C65.0938 229.591 63.6799 230.558 63.9003 230.465C64.0026 230.412 65.0891 230.942 65.0859 230.738C64.9974 230.438 64.4778 230.324 63.3305 230.189C63.2233 230.185 61.8578 229.528 61.7308 229.734C61.5299 230.064 60.2491 230.513 61.1824 231.609C61.4631 231.94 64.1601 232.526 62.1717 232.694C61.7554 232.736 58.5508 231.86 61.1958 233.196C61.6379 233.402 65.1371 235.549 62.5225 235.825C61.836 235.892 59.0738 235.807 59.3723 236.386C59.422 236.469 60.9304 236.545 60.9694 236.995C60.9829 238.95 60.537 239.791 60.6724 241.04C60.7125 241.363 62.3109 241.353 62.324 241.821C62.3617 243.108 61.5832 244.44 60.8196 245.421C60.5352 245.782 59.3843 245.168 59.2427 245.162C56.9396 245.057 59.7981 246.128 59.9279 246.329C60.6945 247.576 59.1254 247.948 59.2735 248.919C59.3111 249.185 60.7597 249.361 60.8733 249.439C61.9781 250.231 59.5417 249.245 59.1866 249.491C58.1836 250.18 58.0709 251.185 58.0657 252.088C58.0661 252.42 59.7841 252.418 59.7669 252.707C59.6974 254.422 59.2449 256.015 58.1129 257.401C57.8969 257.662 56.6416 257.303 56.3405 257.322C54.2327 257.469 56.9504 258.458 57.2025 258.617C58.348 259.376 57.1855 259.511 57.3527 260.017C58.1831 262.629 57.3004 266.869 56.8021 269.941C56.1576 274.016 54.9665 277.325 55.3157 281.476C55.3363 281.74 57.0547 281.461 57.0945 281.689C57.3125 283.159 57.2569 284.657 57.2047 286.153C57.1981 286.339 57.1916 286.524 57.1857 286.709C57.1827 286.795 57.1805 286.858 57.1781 286.851C57.1768 286.848 57.1756 286.809 57.1721 286.712C57.1703 286.665 57.1675 286.566 57.1589 286.398C57.1551 286.332 57.1479 286.147 57.116 285.782C57.099 285.595 57.077 285.36 57.0244 284.979C56.8652 284.36 57.1978 284.022 55.6799 280.389C55.211 279.418 54.6082 278.087 52.8333 276.124C51.1462 274.265 47.3577 271.211 41.7489 270.879C36.0015 270.59 32.2041 273.036 30.1625 274.756C28.0897 276.555 27.2731 277.92 26.666 278.91C23.4677 285.544 24.9393 283.941 24.6181 284.522C24.5747 284.783 24.5515 284.954 24.5335 285.091C24.4972 285.376 24.492 285.447 24.4835 285.528C24.4683 285.684 24.4637 285.75 24.4609 285.789C24.4551 285.872 24.4558 285.878 24.4564 285.878C24.4581 285.871 24.4627 285.812 24.467 285.746C24.4756 285.613 24.4843 285.437 24.4908 285.259C24.5707 284.163 24.286 285.24 24.6608 281.2C25.1076 278.794 23.1402 280.287 23.1615 279.635C23.0734 278.9 23.3239 278.123 23.9482 277.629C24.2502 277.385 25.5473 278.055 25.8241 277.798C26.4715 277.197 26.713 276.488 26.5788 275.663C26.5169 275.317 24.7922 275.549 24.8387 275.127C25.1175 272.233 25.123 269.336 27.4761 266.306C27.6375 266.099 31.0338 266.106 30.4114 265.592C29.4739 265.504 28.3687 265.445 27.3655 265.375C27.0762 260.766 28.2767 256.052 28.3847 251.075C28.3888 250.866 26.5982 251.254 26.597 250.85C26.5871 248.509 26.0337 246.22 27.7527 243.701C27.9206 243.451 31.0831 243.494 30.5857 242.781C30.4951 242.655 30.0439 241.572 29.3504 241.307C29.2459 241.271 27.7769 241.512 27.7242 241.159C27.4439 239.107 27.721 236.912 28.5757 234.785C28.7165 234.443 30.2947 234.77 30.4087 234.526C31.2051 232.798 29.9795 230.938 31.391 229.257C32.3421 228.138 35.0607 228.53 37.7301 227.934C38.1066 227.85 38.1642 227.173 39.7193 227.136C43.6293 227.042 47.9115 227.35 52.0791 227.212C52.9765 227.182 52.0092 226.332 54.1788 226.835C54.3238 226.87 55.045 227.483 55.7817 227.632C56.291 227.735 57.8716 227.54 58.5238 227.75C59.1755 227.959 57.851 228.203 58.6189 228.551C59.3964 228.898 61.1935 228.727 61.4135 229.428ZM38.2413 284.175C36.7173 284.7 42.2477 284.897 40.9382 284.28C40.8683 284.25 38.3161 284.149 38.2413 284.175ZM31.5028 270.051C34.0671 270.013 30.8003 268.437 28.834 268.413C26.8674 268.398 30.724 270.068 31.5028 270.051ZM31.0434 278.608C33.1249 278.11 25.5186 276.176 26.8264 277.596C26.9 277.679 30.9222 278.639 31.0434 278.608ZM38.5155 230.609C38.5888 230.6 38.6544 230.117 38.5815 230.106C36.8211 229.868 36.6912 230.84 38.5155 230.609ZM31.7917 287.235C32.8644 286.987 31.7 286.064 30.357 286.357C29.2731 286.615 30.4537 287.568 31.7917 287.235ZM35.5779 262.54C35.6602 262.555 35.8429 262.269 35.403 262.115C33.9847 261.623 34.2207 262.215 35.5779 262.54ZM31.8342 300.799C32.1296 298.806 38.6111 297.599 37.8797 299.768C37.7474 300.161 35.8128 298.921 35.2285 299.421C34.1639 300.336 38.2335 300.944 36.0527 301.878C35.6536 302.047 31.803 300.912 31.8252 300.795C31.8282 300.796 31.8312 300.797 31.8342 300.799ZM31.5891 284.346C31.5155 284.356 31.4363 284.828 31.5088 284.841C33.26 285.128 33.4202 284.189 31.5891 284.346ZM45.8431 245.1C45.9974 245.133 46.5313 244.156 46.4099 244.071C43.9371 242.501 42.8519 244.469 45.8431 245.1ZM34.6923 252.149C33.1627 251.121 33.1642 250.432 35.4035 250.72C35.1321 251.177 34.9525 251.684 34.6923 252.149Z" fill="white"/>
</svg>
